<?xml version="1.0" encoding="utf-8"?>
<!-- Generator: Adobe Illustrator 27.0.1, SVG Export Plug-In . SVG Version: 6.00 Build 0)  -->
<svg version="1.1" id="Layer_1" xmlns="http://www.w3.org/2000/svg" xmlns:xlink="http://www.w3.org/1999/xlink" x="0px" y="0px"
	 width="512px" height="512px" viewBox="0 0 512 512" style="enable-background:new 0 0 512 512;" xml:space="preserve">
<style type="text/css">
	.st0{fill:none;stroke:#676869;stroke-width:2;stroke-linecap:round;}
	.st1{fill:#F0F9FF;stroke:#0984E3;stroke-width:1.5;}
	.st2{fill:none;stroke:#0984E3;stroke-width:2;stroke-linecap:round;}
	.st3{fill:#0984E3;}
	.st4{fill:#676869;}
	.st5{fill:none;stroke:#676869;stroke-width:1.5;}
	.st6{fill:none;stroke:#FFFFFF;stroke-width:1.5;}
	.st7{fill:none;stroke:#676869;stroke-width:1.5;stroke-linecap:round;}
	.st8{fill:#FFF6F5;}
	.st9{fill:#E74C3C;}
	.st10{fill:none;stroke:#E74C3C;stroke-width:1.5;}
	.st11{fill:#F0F9FF;}
	.st12{fill:none;stroke:#0984E3;stroke-width:1.5;}
	.st13{fill:none;stroke:#0984E3;stroke-width:2.5;stroke-linecap:round;}
	.st14{fill:#FFFFFF;}
	.st15{fill:#EDF1F4;stroke:#D1D6D8;}
	.st16{fill:none;stroke:#5B5D5F;stroke-width:1.5;stroke-linecap:round;stroke-linejoin:round;}
	.st17{fill:#E9EEF4;}
	.st18{fill:#313949;}
	.st19{fill:#5B5D5F;}
	.st20{fill:none;stroke:#676869;stroke-width:1.5;stroke-linecap:round;stroke-miterlimit:10;}
</style>
<path id="Reset" class="st0" d="M79.9,43.8c0,6.3-5.1,11.3-11.3,11.3c-6.3,0-11.3-5.1-11.3-11.3c0-6.3,5.1-11.3,11.3-11.3
	c3.3,0,6.3,1.4,8.4,3.7 M76.9,32l1.1,5.3c0,0.1,0,0.1-0.1,0.1l-5.1-0.6 M72.1,40.5l-7.2,7.2 M72.1,47.8l-7.2-7.2"/>
<g id="Resume">
	<circle class="st1" cx="102.9" cy="43.6" r="12.2"/>
	<path class="st2" d="M98.4,38.3v10.5"/>
	<path class="st3" d="M101.9,48.1V39c0-0.8,0.9-1.3,1.6-0.8l6.3,4.5c0.6,0.4,0.6,1.2,0,1.6l-6.3,4.5C102.8,49.4,101.9,49,101.9,48.1
		z"/>
</g>
<g>
	<path class="st4" d="M133.7,38.6h7c0.8,0,1.5,0.7,1.5,1.5v7c0,0.8-0.7,1.5-1.5,1.5h-7c-0.8,0-1.5-0.7-1.5-1.5v-7
		C132.2,39.3,132.9,38.6,133.7,38.6z"/>
	<path class="st5" d="M137.2,31.3L137.2,31.3c6.8,0,12.2,5.5,12.2,12.2l0,0c0,6.8-5.5,12.2-12.2,12.2l0,0c-6.8,0-12.2-5.5-12.2-12.2
		l0,0C125,36.8,130.4,31.3,137.2,31.3z"/>
</g>
<path class="st6" d="M27.4,35.5L27.4,35.5c1.2,0,2.1,0.9,2.1,2.1v4.3c0,1.2-0.9,2.1-2.1,2.1l0,0c-1.2,0-2.1-0.9-2.1-2.1v-4.3
	C25.3,36.4,26.2,35.5,27.4,35.5z M32.3,44.1l-0.2,0.6c-0.2,0.8-0.7,1.4-1.4,1.8l0,0c-2,1.3-4.7,1.3-6.7,0l0,0
	c-0.7-0.4-1.2-1.1-1.4-1.8l-0.2-0.6 M27.6,47.7v2.6 M24.6,49.6h5.9"/>
<path class="st5" d="M171.5,32c6.8,0,12.2,5.5,12.2,12.2s-5.5,12.2-12.2,12.2s-12.2-5.5-12.2-12.2S164.7,32,171.5,32z M168.5,38.7
	v11 M174.5,38.7v11"/>
<g>
	<path class="st4" d="M212.2,39.9l1.3-6c0.2-0.8,1.1-1.1,1.7-0.5l4.6,4.3c0.6,0.5,0.3,1.5-0.4,1.7l-5.9,1.7
		C212.7,41.3,212,40.6,212.2,39.9z"/>
	<path class="st7" d="M216.5,36.2c2.1-2.2,5.2-4,8.6-4c6.5,0,11.8,5.4,11.8,12c0,6.6-5.3,12-11.8,12c-5.8,0-10.7-4.3-11.7-9.9"/>
</g>
<g>
	<path class="st4" d="M273.9,39.9l-1.3-6c-0.2-0.8-1.1-1.1-1.7-0.5l-4.6,4.3c-0.6,0.5-0.3,1.5,0.4,1.7l5.9,1.7
		C273.4,41.3,274,40.6,273.9,39.9z"/>
	<path class="st7" d="M269.6,36.2c-2.1-2.2-5.2-4-8.6-4c-6.5,0-11.8,5.4-11.8,12c0,6.6,5.3,12,11.8,12c5.8,0,10.7-4.3,11.7-9.9"/>
</g>
<g id="Stop-Rec">
	<path class="st8" d="M428,28.2L428,28.2c11.2,0,20.2,9.1,20.2,20.2l0,0c0,11.2-9.1,20.2-20.2,20.2l0,0c-11.2,0-20.2-9.1-20.2-20.2
		l0,0C407.8,37.3,416.8,28.2,428,28.2z"/>
	<path class="st9" d="M423,40.5h10c1.7,0,3,1.3,3,3v10c0,1.7-1.3,3-3,3h-10c-1.7,0-3-1.3-3-3v-10C420,41.8,421.3,40.5,423,40.5z"/>
	<path class="st10" d="M428,28.2L428,28.2c11.2,0,20.2,9.1,20.2,20.2l0,0c0,11.2-9.1,20.2-20.2,20.2l0,0c-11.2,0-20.2-9.1-20.2-20.2
		l0,0C407.8,37.3,416.8,28.2,428,28.2z"/>
</g>
<g id="Play">
	<path class="st11" d="M322.5,27L322.5,27c11.2,0,20.2,9.1,20.2,20.2l0,0c0,11.2-9.1,20.2-20.2,20.2l0,0c-11.2,0-20.2-9.1-20.2-20.2
		l0,0C302.2,36.1,311.3,27,322.5,27z"/>
	<path class="st3" d="M317.5,54.3V40.1c0-1.2,1.4-1.9,2.4-1.2l9.9,7.1c0.8,0.6,0.8,1.8,0,2.4l-9.9,7.1
		C318.9,56.3,317.5,55.6,317.5,54.3z"/>
	<path class="st12" d="M322.5,27L322.5,27c11.2,0,20.2,9.1,20.2,20.2l0,0c0,11.2-9.1,20.2-20.2,20.2l0,0c-11.2,0-20.2-9.1-20.2-20.2
		l0,0C302.2,36.1,311.3,27,322.5,27z"/>
</g>
<g id="Pause">
	<path class="st11" d="M374.2,27.1L374.2,27.1c11.2,0,20.2,9.1,20.2,20.2l0,0c0,11.2-9.1,20.2-20.2,20.2l0,0
		c-11.2,0-20.2-9.1-20.2-20.2l0,0C353.9,36.1,363,27.1,374.2,27.1z"/>
	<path class="st13" d="M369.5,38.7v17.2"/>
	<path class="st13" d="M378.9,38.7v17.2"/>
	<path class="st12" d="M374.2,27.1L374.2,27.1c11.2,0,20.2,9.1,20.2,20.2l0,0c0,11.2-9.1,20.2-20.2,20.2l0,0
		c-11.2,0-20.2-9.1-20.2-20.2l0,0C353.9,36.1,363,27.1,374.2,27.1z"/>
</g>
<g>
	<path class="st3" d="M279.5,89.6c6.4,0,11.5,5.1,11.5,11.5c0,6.4-5.1,11.5-11.5,11.5c-6.4,0-11.5-5.1-11.5-11.5
		C268,94.8,273.1,89.6,279.5,89.6z"/>
	<path class="st14" d="M277.5,105.6c-0.1,0-0.2,0-0.3-0.1c-0.1,0-0.2-0.1-0.3-0.2l-3.2-3.2c-0.1-0.1-0.2-0.2-0.2-0.3
		s-0.1-0.2-0.1-0.4c0-0.2,0.1-0.5,0.3-0.7c0.2-0.2,0.4-0.3,0.6-0.3c0.2,0,0.5,0.1,0.6,0.3l2.5,2.6l6.4-6.5c0.2-0.2,0.4-0.3,0.6-0.3
		c0.2,0,0.5,0.1,0.6,0.3c0.2,0.2,0.3,0.4,0.3,0.7c0,0.2-0.1,0.5-0.3,0.7l-7,7.1c-0.1,0.1-0.2,0.2-0.3,0.2
		C277.8,105.6,277.7,105.6,277.5,105.6z"/>
</g>
<g>
	<path class="st15" d="M311.5,112.1c-6.1,0-11-4.9-11-11c0-6.1,4.9-11,11-11s11,4.9,11,11C322.5,107.2,317.5,112.1,311.5,112.1z"/>
	<path class="st16" d="M316,96.6l-9,9 M307,96.6l9,9"/>
</g>
<g>
	<circle class="st17" cx="345.8" cy="101.1" r="11.5"/>
	<path class="st18" d="M340.3,104v2.7h2.7l5.4-5.4l-2.8-2.7L340.3,104z M348.8,95.6l-1.9,1.9l2.5,2.5l1.9-1.9L348.8,95.6z"/>
</g>
<path class="st14" d="M381.3,105.8c-0.1,0-0.2,0-0.3-0.1c-0.1,0-0.2-0.1-0.3-0.2l-3.2-3.2c-0.1-0.1-0.2-0.2-0.2-0.3
	s-0.1-0.2-0.1-0.4c0-0.2,0.1-0.5,0.3-0.7c0.2-0.2,0.4-0.3,0.6-0.3s0.5,0.1,0.6,0.3l2.5,2.6l6.4-6.5c0.2-0.2,0.4-0.3,0.6-0.3
	c0.2,0,0.5,0.1,0.6,0.3c0.2,0.2,0.3,0.4,0.3,0.7c0,0.2-0.1,0.5-0.3,0.7l-7,7.1c-0.1,0.1-0.2,0.2-0.3,0.2
	C381.5,105.8,381.4,105.8,381.3,105.8z"/>
<path class="st16" d="M419.7,96.8l-9,9 M410.7,96.8l9,9"/>
<path class="st18" d="M444,104.2v2.7h2.7l5.4-5.4l-2.8-2.7L444,104.2z M452.5,95.8l-1.9,1.9l2.5,2.5l1.9-1.9L452.5,95.8z"/>
<path class="st19" d="M24.3,95.6h-9.7c-0.3,0-0.5-0.1-0.7-0.3s-0.3-0.4-0.3-0.7s0.1-0.5,0.3-0.7c0.2-0.2,0.4-0.3,0.7-0.3h9.7
	c0.3,0,0.5,0.1,0.7,0.3s0.3,0.4,0.3,0.7s-0.1,0.5-0.3,0.7C24.8,95.5,24.6,95.6,24.3,95.6L24.3,95.6z M32.7,95.6h-2.4
	c-0.3,0-0.5-0.1-0.7-0.3s-0.3-0.4-0.3-0.7s0.1-0.5,0.3-0.7c0.2-0.2,0.4-0.3,0.7-0.3h2.4c0.3,0,0.5,0.1,0.7,0.3s0.3,0.4,0.3,0.7
	s-0.1,0.5-0.3,0.7C33.2,95.5,33,95.6,32.7,95.6z M32.7,104.6H23c-0.3,0-0.5-0.1-0.7-0.3s-0.3-0.4-0.3-0.7s0.1-0.5,0.3-0.7
	c0.2-0.2,0.4-0.3,0.7-0.3h9.7c0.3,0,0.5,0.1,0.7,0.3s0.3,0.4,0.3,0.7s-0.1,0.5-0.3,0.7C33.2,104.5,33,104.6,32.7,104.6z M17.1,104.6
	h-2.4c-0.3,0-0.5-0.1-0.7-0.3s-0.3-0.4-0.3-0.7s0.1-0.5,0.3-0.7c0.2-0.2,0.4-0.3,0.7-0.3h2.4c0.3,0,0.5,0.1,0.7,0.3s0.3,0.4,0.3,0.7
	s-0.1,0.5-0.3,0.7C17.6,104.5,17.4,104.6,17.1,104.6z M20.1,107.5c-0.8,0-1.5-0.2-2.2-0.7c-0.6-0.4-1.2-1-1.5-1.8
	c-0.3-0.7-0.4-1.5-0.2-2.3c0.2-0.8,0.5-1.5,1.1-2c0.6-0.6,1.3-0.9,2-1.1c0.8-0.2,1.6-0.1,2.3,0.2c0.7,0.3,1.3,0.8,1.8,1.5
	c0.4,0.6,0.7,1.4,0.7,2.2c0,1-0.4,2-1.2,2.8C22.1,107.1,21.1,107.5,20.1,107.5z M20.1,101.5c-0.4,0-0.8,0.1-1.1,0.3
	c-0.3,0.2-0.6,0.5-0.7,0.9c-0.2,0.4-0.2,0.8-0.1,1.1c0.1,0.4,0.3,0.7,0.5,1c0.3,0.3,0.6,0.5,1,0.5c0.4,0.1,0.8,0,1.1-0.1
	c0.4-0.2,0.7-0.4,0.9-0.7c0.2-0.3,0.3-0.7,0.3-1.1c0-0.5-0.2-1-0.6-1.4S20.6,101.5,20.1,101.5z M27.3,98.5c-0.8,0-1.5-0.2-2.2-0.7
	c-0.6-0.4-1.2-1-1.5-1.8c-0.3-0.7-0.4-1.5-0.2-2.3c0.2-0.8,0.5-1.5,1.1-2c0.6-0.6,1.3-0.9,2-1.1c0.8-0.2,1.6-0.1,2.3,0.2
	c0.7,0.3,1.3,0.8,1.8,1.5c0.4,0.6,0.7,1.4,0.7,2.2c0,1-0.4,2-1.2,2.8C29.3,98.1,28.3,98.5,27.3,98.5z M27.3,92.6
	c-0.4,0-0.8,0.1-1.1,0.3c-0.3,0.2-0.6,0.5-0.7,0.9s-0.2,0.8-0.1,1.1c0.1,0.4,0.3,0.7,0.5,1c0.3,0.3,0.6,0.5,1,0.5
	c0.4,0.1,0.8,0,1.1-0.1c0.4-0.2,0.7-0.4,0.9-0.7c0.2-0.3,0.3-0.7,0.3-1.1c0-0.5-0.2-1-0.6-1.4C28.3,92.8,27.8,92.6,27.3,92.6z"/>
<g>
	<path class="st5" d="M46,99.1L46,99.1c0-6.8,5.5-12.2,12.2-12.2l0,0c6.8,0,12.2,5.5,12.2,12.2l0,0c0,6.8-5.5,12.2-12.2,12.2l0,0
		C51.4,111.3,46,105.9,46,99.1z"/>
	<path class="st20" d="M52.9,104.8h10.6"/>
	<rect x="56.2" y="93.4" class="st4" width="4" height="5"/>
	<path class="st4" d="M58.2,102.8l-5-4.4h5.6h4.4L58.2,102.8z"/>
</g>
<path class="st19" d="M126,104.6c0,0.4-0.2,0.7-0.5,0.8c-0.1,0.1-0.3,0.1-0.4,0.1c-0.2,0-0.4-0.1-0.6-0.2l-5-4.1h-2.6
	c-0.5,0-0.9-0.4-0.9-0.9v-3.6c0-0.5,0.4-0.9,0.9-0.9h2.6l5-4.1c0.3-0.2,0.6-0.3,1-0.1c0.3,0.1,0.5,0.5,0.5,0.8V104.6z M129.5,103.2
	C129.4,103.2,129.4,103.2,129.5,103.2c-0.3,0-0.5-0.1-0.7-0.3l-0.1-0.1c-0.3-0.3-0.4-0.8-0.1-1.2c0.7-0.9,1-2,1-3.1
	c0-1.2-0.4-2.4-1.2-3.3c-0.3-0.4-0.3-0.9,0.1-1.2l0.1-0.1c0.2-0.2,0.4-0.3,0.7-0.3s0.5,0.1,0.7,0.3c1.1,1.3,1.6,2.9,1.6,4.6
	c0,1.6-0.5,3.1-1.4,4.4C130,103,129.7,103.2,129.5,103.2z M133.2,106c-0.2,0.2-0.4,0.3-0.7,0.3l0,0c-0.2,0-0.5-0.1-0.6-0.3l-0.1-0.1
	c-0.3-0.3-0.4-0.9-0.1-1.2c1.5-1.7,2.3-4,2.3-6.2c0-2.4-0.9-4.6-2.4-6.4c-0.3-0.4-0.3-0.9,0-1.2l0.1-0.1c0.2-0.2,0.4-0.3,0.7-0.3
	c0.2,0,0.5,0.1,0.7,0.3c1.9,2.1,2.9,4.9,2.9,7.7C136,101.2,135,103.9,133.2,106z"/>
<path class="st19" d="M161.1,104.8c0,0.4-0.2,0.7-0.5,0.8c-0.1,0.1-0.3,0.1-0.4,0.1c-0.2,0-0.4-0.1-0.6-0.2l-5-4.1H152
	c-0.5,0-0.9-0.4-0.9-0.9v-3.6c0-0.5,0.4-0.9,0.9-0.9h2.6l5-4.1c0.3-0.2,0.6-0.3,1-0.1c0.3,0.1,0.5,0.5,0.5,0.8V104.8z M164.6,103.4
	L164.6,103.4c-0.3,0-0.5-0.1-0.7-0.3l-0.1-0.1c-0.3-0.3-0.4-0.8-0.1-1.2c0.7-0.9,1-2,1-3.1c0-1.2-0.4-2.4-1.2-3.3
	c-0.3-0.4-0.3-0.9,0.1-1.2l0.1-0.1c0.2-0.2,0.4-0.3,0.7-0.3s0.5,0.1,0.7,0.3c1.1,1.3,1.6,2.9,1.6,4.6c0,1.6-0.5,3.1-1.4,4.4
	C165.1,103.2,164.9,103.4,164.6,103.4z"/>
<path class="st19" d="M193.2,104.5c0,0.4-0.2,0.7-0.5,0.8c-0.1,0.1-0.3,0.1-0.4,0.1c-0.2,0-0.4-0.1-0.6-0.2l-5-4.1h-2.6
	c-0.5,0-0.9-0.4-0.9-0.9v-3.6c0-0.5,0.4-0.9,0.9-0.9h2.6l5-4.1c0.3-0.2,0.6-0.3,1-0.1c0.3,0.1,0.5,0.5,0.5,0.8V104.5z M195.2,101.3
	v-6c0,0,2,0,2,3S195.2,101.3,195.2,101.3z"/>
<path class="st19" d="M211.2,89.1L211.2,89.1c0.3-0.3,0.8-0.3,1.1,0l17.5,17.5c0.3,0.3,0.3,0.8,0,1.1l0,0c-0.3,0.3-0.8,0.3-1.1,0
	l-17.5-17.5C210.9,89.9,210.9,89.4,211.2,89.1z M214.2,95.3h-0.7c-0.6,0-1,0.5-1,1v4.1c0,0.6,0.5,1,1,1h3l5.7,4.7
	c0.2,0.2,0.4,0.2,0.7,0.2c0.1,0,0.3,0,0.4-0.1c0.4-0.2,0.6-0.5,0.6-0.9v-0.4L214.2,95.3z M226.8,101.5l-0.6-0.6v-6.1
	c0,0,2.3,0,2.3,3.4C228.5,100.5,227.5,101.3,226.8,101.5z M223.9,98.6l-5.2-5.2l3.5-2.9c0.3-0.3,0.7-0.3,1.1-0.1s0.6,0.5,0.6,0.9
	V98.6z"/>
<g>
</g>
<g>
</g>
<g>
</g>
<g>
</g>
<g>
</g>
<g>
</g>
</svg>
