<?xml version="1.0" encoding="utf-8"?>
<!-- Generator: Adobe Illustrator 27.0.1, SVG Export Plug-In . SVG Version: 6.00 Build 0)  -->
<svg version="1.1" id="Layer_1" xmlns="http://www.w3.org/2000/svg" xmlns:xlink="http://www.w3.org/1999/xlink" x="0px" y="0px"
	 width="400px" height="800px" viewBox="0 0 400 800" style="enable-background:new 0 0 400 800;" xml:space="preserve">
<style type="text/css">
	.st0{fill-rule:evenodd;clip-rule:evenodd;fill:#5B5D5F;}
	.st1{fill:#5B5D5F;}
	.st2{fill:#7B7C7D;}
	.st3{fill:#292C2E;}
	.st4{fill:#585858;}
	.st5{fill:#FFFFFF;}
	.st6{fill:#0984E3;}
	.st7{fill:#E74C3C;}
	.st8{fill:#21BF64;}
	.st9{fill:#F2A62E;}
	.st10{fill:url(#SVGID_1_);}
	.st11{fill-rule:evenodd;clip-rule:evenodd;fill:url(#SVGID_00000068643284065821096830000012261354859967751047_);}
	.st12{fill:url(#SVGID_00000044139080931668289770000001698060353555546793_);}
	.st13{fill:url(#SVGID_00000103969006076690699640000009790809055644614299_);}
	.st14{fill-rule:evenodd;clip-rule:evenodd;fill:#FFFFFF;}
	.st15{fill-rule:evenodd;clip-rule:evenodd;fill:#292C2E;}
	.st16{fill:#EDF6FD;stroke:#292C32;stroke-width:1.5;}
	.st17{fill:#FFFFFF;stroke:#292C32;stroke-width:1.5;}
	.st18{fill:#FFFFFF;stroke:#0984E3;stroke-width:1.5;}
	.st19{fill:#292C32;}
	.st20{fill:#2ECC71;stroke:#FFFFFF;stroke-width:1.5;}
	.st21{fill:#E74C3C;stroke:#FFFFFF;stroke-width:1.5;}
	.st22{fill:#9B59B6;stroke:#FFFFFF;stroke-width:1.5;}
	.st23{fill:#5B5D5F;stroke:#FFFFFF;stroke-width:1.5;}
	.st24{fill:#F39C12;stroke:#FFFFFF;stroke-width:1.5;}
	.st25{clip-path:url(#SVGID_00000147184443585763984700000012373772724255867054_);}
	.st26{fill:#5B5D5F;stroke:#FFFFFF;stroke-width:1.5002;stroke-miterlimit:4.001;}
	.st27{fill:#0984E3;stroke:#FFFFFF;stroke-width:1.5;}
	.st28{fill:#34495E;stroke:#FFFFFF;stroke-width:1.5;}
	.st29{fill:#0984E3;stroke:#EEF2F4;stroke-width:2;}
	.st30{fill:#0984E3;stroke:#0984E3;}
	.st31{fill-rule:evenodd;clip-rule:evenodd;fill:#2196F3;}
	.st32{fill-rule:evenodd;clip-rule:evenodd;fill:#E74C3C;}
	.st33{fill:none;stroke:#292C2E;stroke-width:1.5;stroke-linecap:round;stroke-linejoin:round;}
	.st34{fill:none;stroke:#292C2E;}
	.st35{fill:none;stroke:#292C2E;stroke-dasharray:2.88,2.88;}
	.st36{fill:none;stroke:#0984E3;stroke-width:1.5;}
	.st37{fill:none;stroke:#0984E3;stroke-width:1.5;stroke-linecap:round;}
	.st38{fill:none;stroke:#000000;stroke-width:1.25;stroke-linecap:round;stroke-miterlimit:10;}
	.st39{fill:none;stroke:#231F20;stroke-miterlimit:10;}
	.st40{fill:#231F20;}
	.st41{fill:none;stroke:#231F20;stroke-linecap:round;stroke-linejoin:round;stroke-miterlimit:10;}
	.st42{fill:#E0E3E7;}
	.st43{fill:#292C2E;stroke:#292C2E;stroke-width:1.5;stroke-linecap:round;stroke-miterlimit:10;}
	.st44{fill:#292C2E;stroke:#292C2E;stroke-width:1.5;stroke-linecap:round;stroke-linejoin:round;stroke-miterlimit:10;}
	.st45{fill:none;stroke:#FFFFFF;stroke-width:1.5;stroke-linecap:round;stroke-linejoin:round;stroke-miterlimit:10;}
	.st46{fill:none;stroke:#FFFFFF;stroke-width:1.5;stroke-linecap:round;}
	.st47{fill:none;stroke:#5B5D5F;stroke-width:1.5;stroke-linecap:round;stroke-linejoin:round;}
	.st48{display:none;fill:#E0E3E7;}
	.st49{fill:none;stroke:#E0E3E7;stroke-width:1.5;stroke-linecap:round;}
	.st50{fill:none;stroke:#E0E3E7;stroke-width:1.5;stroke-linecap:round;stroke-linejoin:round;}
	.st51{fill:none;stroke:#E0E3E7;stroke-width:1.5;}
	.st52{fill:none;stroke:#E0E3E7;stroke-width:1.5;stroke-linecap:round;stroke-linejoin:round;stroke-miterlimit:10;}
	.st53{fill:none;stroke:#292C2E;stroke-width:1.5;stroke-linecap:round;stroke-miterlimit:10;}
	.st54{fill:none;stroke:#292C2E;stroke-width:1.5;stroke-dasharray:3,3;}
	.st55{fill:none;stroke:#292C2E;stroke-width:1.5;}
	.st56{fill:none;stroke:#292C2E;stroke-width:1.5;stroke-linecap:round;}
	.st57{fill:none;stroke:#7B7C7D;stroke-width:2;}
	.st58{fill:none;stroke:#292C2E;stroke-width:2;}
	.st59{fill:#DFE2E6;stroke:#BABDBF;stroke-width:2;}
	.st60{fill:#FFFFFF;stroke:#0984E3;stroke-width:2;}
	.st61{fill:#FFFFFF;stroke:#0984E3;stroke-width:4;}
	.st62{fill:#9900CC;}
	.st63{fill:none;stroke:#676869;stroke-width:2;stroke-linecap:round;}
	.st64{fill:#FFF6F5;}
	.st65{fill:none;stroke:#E74C3C;stroke-width:1.5;}
	.st66{fill:#F0F9FF;stroke:#0984E3;stroke-width:1.5;}
	.st67{fill:none;stroke:#0984E3;stroke-width:2;stroke-linecap:round;}
	.st68{fill:#EDF1F4;stroke:#D1D6D8;}
	.st69{fill:#F0F9FF;}
	.st70{fill:none;stroke:#0984E3;stroke-width:2.5;stroke-linecap:round;}
	.st71{fill:#676869;}
	.st72{fill:none;stroke:#676869;stroke-width:1.5;}
	.st73{fill:#FFFFFF;stroke:#878889;stroke-width:1.3;}
	.st74{fill:#FFFFFF;stroke:#0984E3;stroke-width:1.3;}
	.st75{fill:none;stroke:#0984E3;stroke-linecap:round;}
	.st76{display:none;}
	.st77{display:inline;}
	.st78{clip-path:url(#SVGID_00000172416578251776693180000015528419463134188421_);}
	.st79{fill:#F3FAFF;stroke:#0984E3;}
	.st80{fill:#F5FBFF;stroke:#0984E3;stroke-width:1.5;}
	.st81{clip-path:url(#SVGID_00000154384177524513034900000016267013540497737616_);}
	.st82{fill:none;stroke:#292C2E;stroke-width:1.3;}
	.st83{fill:none;stroke:#676869;stroke-width:1.5;stroke-linecap:round;stroke-linejoin:round;}
	.st84{fill-rule:evenodd;clip-rule:evenodd;fill:#707274;}
	.st85{fill:none;stroke:#FFFFFF;stroke-width:1.5;}
	.st86{fill:none;stroke:#676869;stroke-width:1.5;stroke-linecap:round;}
	.st87{fill:none;stroke:#676869;stroke-width:1.5;stroke-linecap:round;stroke-miterlimit:10;}
</style>
<path class="st0" d="M16.2,9.2c-0.5,0-0.9,0.4-0.9,0.9v4.1h-4.1c-0.5,0-0.9,0.4-0.9,0.9s0.4,0.9,0.9,0.9h4.1v4
	c0,0.5,0.4,0.9,0.9,0.9s0.9-0.4,0.9-0.9v-4.1h4.1c0.5,0,0.9-0.4,0.9-0.9s-0.4-0.9-0.9-0.9h-4.1V10C17.1,9.6,16.7,9.2,16.2,9.2z"/>
<path class="st1" d="M35.4,15.9c-0.5,0-0.9-0.4-0.9-0.9s0.4-0.9,0.9-0.9h9.9c0.5,0,0.9,0.4,0.9,0.9s-0.4,0.9-0.9,0.9H35.4z"/>
<path class="st1" d="M64.6,18.6c-0.2,0-0.4-0.1-0.6-0.3L58.8,13c-0.3-0.3-0.3-0.9,0-1.2s0.9-0.3,1.2,0l4.6,4.7l4.6-4.7
	c0.3-0.3,0.9-0.3,1.2,0c0.3,0.3,0.3,0.9,0,1.2l-5.2,5.3C65,18.5,64.8,18.6,64.6,18.6z"/>
<path class="st1" d="M88.8,11.6c-0.2,0-0.4,0.1-0.6,0.3L83,17.1c-0.3,0.3-0.3,0.9,0,1.2c0.3,0.3,0.9,0.3,1.2,0l4.6-4.7l4.6,4.7
	c0.3,0.3,0.9,0.3,1.2,0c0.3-0.3,0.3-0.9,0-1.2l-5.2-5.3C89.2,11.7,89,11.6,88.8,11.6z"/>
<path class="st1" d="M116.5,15.1c0,0.2-0.1,0.4-0.3,0.6l-5.3,5.2c-0.3,0.3-0.9,0.3-1.2,0c-0.3-0.3-0.3-0.9,0-1.2l4.7-4.6l-4.7-4.6
	c-0.3-0.3-0.3-0.9,0-1.2s0.9-0.3,1.2,0l5.3,5.2C116.4,14.6,116.5,14.9,116.5,15.1z"/>
<path class="st2" d="M133.6,9.7v10.6c0,0.4,0.5,0.7,0.8,0.4l6-5.3c0.2-0.2,0.2-0.6,0-0.7l-6-5.3C134.1,9.1,133.6,9.3,133.6,9.7z"/>
<path class="st3" d="M166.6,12H156c-0.4,0-0.7,0.5-0.4,0.8l5.3,6c0.2,0.2,0.6,0.2,0.7,0l5.3-6C167.3,12.5,167.1,12,166.6,12z"/>
<path class="st4" d="M16.7,48l5.1-5.1c0.2-0.2,0.2-0.5,0-0.7s-0.5-0.2-0.7,0l0,0L16,47.3l-5.1-5.1c-0.2-0.2-0.5-0.2-0.7,0
	s-0.2,0.5,0,0.7l5.1,5.1l-5.1,5.1c-0.2,0.2-0.2,0.5,0,0.7s0.5,0.2,0.7,0l5.1-5.1l5.1,5.1c0.2,0.2,0.5,0.2,0.7,0s0.2-0.5,0-0.7
	L16.7,48z"/>
<path class="st5" d="M40.5,61.9c-0.3,0-0.6-0.1-0.8-0.3c-0.3-0.3-0.4-0.8-0.3-1.2l2.5-6.1c-1.7-2.2-2.6-4.7-2.6-7.4
	c0-3.5,1.5-6.7,4.1-9.2c2.6-2.4,6.1-3.7,9.9-3.7s7.2,1.3,9.9,3.7c2.7,2.4,4.1,5.7,4.1,9.2c0,2.5-0.8,4.9-2.2,7
	c-0.3,0.5-1,0.6-1.5,0.3s-0.6-1-0.3-1.5c1.2-1.7,1.8-3.7,1.8-5.7c0-5.9-5.3-10.7-11.8-10.7S41.5,41.1,41.5,47c0,2.4,0.9,4.7,2.5,6.6
	c0.3,0.3,0.3,0.7,0.2,1.1l-1.7,4.2l5-2.2c0.3-0.1,0.6-0.1,0.9,0c1.6,0.7,3.3,1,5,1c2,0,4-0.5,5.8-1.4c0.5-0.3,1.2-0.1,1.5,0.5
	c0.3,0.5,0.1,1.2-0.5,1.5c-2.1,1-4.4,1.6-6.7,1.6c-1.9,0-3.7-0.3-5.4-1l-7,3.1C40.8,61.8,40.7,61.9,40.5,61.9z M54.5,51.6v-5.9
	c0-0.6-0.5-1.1-1.1-1.1s-1.1,0.5-1.1,1.1v5.9c0,0.6,0.5,1.1,1.1,1.1S54.5,52.2,54.5,51.6z M53.4,40.9c-0.6,0-1.1,0.5-1.1,1.1
	s0.5,1.1,1.1,1.1s1.1-0.5,1.1-1.1S54,40.9,53.4,40.9z"/>
<path class="st5" d="M110.8,47.9c0,7.7-6.3,14-14,14s-14-6.3-14-14s6.3-14,14-14c3.8,0,7.3,1.5,9.9,4.1c0.5,0.5,0.5,1.2,0,1.7
	s-1.2,0.5-1.6,0c-2.2-2.2-5.1-3.4-8.3-3.4c-6.4,0-11.7,5.2-11.7,11.7c0,6.4,5.2,11.7,11.7,11.7c6.4,0,11.7-5.2,11.7-11.7
	c0-0.6,0.5-1.2,1.2-1.2C110.3,46.7,110.8,47.2,110.8,47.9z M101.2,43.5c-0.5-0.5-1.2-0.5-1.6,0l-2.7,2.7l-2.7-2.7
	c-0.5-0.5-1.2-0.5-1.6,0c-0.5,0.5-0.5,1.2,0,1.6l2.7,2.7l-2.7,2.7c-0.5,0.5-0.5,1.2,0,1.6c0.2,0.2,0.5,0.3,0.8,0.3s0.6-0.1,0.8-0.3
	l2.7-2.7l2.7,2.7c0.2,0.2,0.5,0.3,0.8,0.3s0.6-0.1,0.8-0.3c0.5-0.5,0.5-1.2,0-1.6l-2.7-2.7l2.7-2.7C101.6,44.7,101.6,44,101.2,43.5z
	"/>
<path class="st5" d="M146.4,43.4c0.4,0.4,0.4,1.1,0,1.5l-7.3,7.3c-0.4,0.4-1.1,0.4-1.5,0l-3.5-3.5c-0.4-0.4-0.4-1.1,0-1.5
	s1.1-0.4,1.5,0l2.7,2.7l6.6-6.6C145.3,43,146,43,146.4,43.4z M150.2,38c-5.5-5.5-14.3-5.5-19.8,0s-5.5,14.3,0,19.8s14.3,5.5,19.8,0
	c0.5-0.5,0.5-1.2,0-1.6c-0.5-0.5-1.2-0.5-1.6,0c-4.5,4.5-12,4.5-16.5,0s-4.5-12,0-16.5s12-4.5,16.5,0c2.2,2.2,3.4,5.2,3.4,8.3
	c0,0.6,0.5,1.2,1.2,1.2c0.6,0,1.2-0.5,1.2-1.2C154.3,44.2,152.8,40.6,150.2,38z"/>
<path class="st5" d="M194,60.4c-0.1,0-0.1,0-0.2,0h-20.3l0,0h-0.1c0,0-0.1,0-0.1-0.1c-1.7-0.3-2.9-1.2-3.5-2.8
	c-0.1-0.2-0.1-0.4-0.2-0.6c0-0.1,0-0.2-0.1-0.3v-0.9l0,0c0.1-1,0.6-1.7,1.1-2.6l0,0c0.1-0.1,0.1-0.2,0.2-0.3l2.7-4.5
	c2-3.4,4.1-6.7,6.1-10.1c0.7-1.2,1.6-1.9,2.9-2.1c0.3-0.1,0.7-0.1,1-0.1c1.6,0,2.9,0.8,3.8,2.2c0.9,1.4,1.8,2.9,2.6,4.4l2.8,4.8
	c0.2,0.4,0.3,0.8,0,1.2c-0.2,0.3-0.5,0.5-0.9,0.5c-0.1,0-0.1,0-0.1,0l0,0c-0.4,0-0.6-0.2-0.9-0.6c-0.7-1.1-0.6-1.1-1.3-2.3l-1.6-2.7
	c-0.8-1.4-1.7-2.8-2.5-4.2c-0.5-0.8-1.2-1.2-2-1.2s-1.5,0.4-2,1.2l-1,1.6c-2.8,4.7-5.7,9.4-8.5,14.1c-0.6,1-0.4,2.2,0.5,2.9
	c0.4,0.3,0.8,0.4,1.3,0.4c2.3,0,4.5,0,6.8,0h9.7c0.9,0,1.8,0,2.8,0c0.6,0,1.2-0.3,1.6-0.7c0.4-0.4,0.6-0.9,0.5-1.5
	c0-0.3-0.2-0.7-0.3-1c-0.1-0.2-0.2-0.3-0.3-0.5c-0.1-0.1-0.1-0.2-0.2-0.3c-0.3-0.5-0.1-1.2,0.4-1.5c0.2-0.1,0.4-0.1,0.5-0.1
	c0.4,0,0.7,0.2,0.9,0.5c0.5,0.8,0.9,1.6,1.1,2.5C197.9,57.9,196.3,60.1,194,60.4z M183.7,52.3c0.4,0,1-0.2,1-0.7
	c0-2,0.2-4.9,0.2-6.9c0-0.7-0.6-1-1.2-1c-0.7,0-1.2,0.4-1.2,1c0,2,0.2,4.9,0.2,6.9C182.7,52.1,183.2,52.3,183.7,52.3z M183.7,56.1
	c0.7,0,1.3-0.6,1.3-1.3s-0.6-1.3-1.3-1.3s-1.3,0.6-1.3,1.3S183,56.1,183.7,56.1z"/>
<path class="st6" d="M227.1,34.3c-7.7,0-14,6.3-14,14s6.3,14,14,14s14-6.3,14-14C241.1,40.5,234.8,34.3,227.1,34.3z M227.1,60.3
	c-6.6,0-12-5.4-12-12s5.4-12,12-12s12,5.4,12,12S233.7,60.3,227.1,60.3z M228.5,46.8v7c0,0.4-0.6,0.9-1.4,0.9
	c-0.8,0-1.4-0.4-1.4-0.9v-7c0-0.5,0.6-0.9,1.4-0.9C227.9,45.9,228.5,46.3,228.5,46.8z M228.6,42.9c0,0.7-0.7,1.3-1.5,1.3
	s-1.5-0.6-1.5-1.3s0.7-1.3,1.5-1.3C227.9,41.6,228.6,42.2,228.6,42.9z"/>
<path class="st7" d="M274.7,45.3l-2.9,2.9l2.9,2.9c0.4,0.4,0.4,0.9,0,1.3c-0.4,0.4-0.4,0.3-0.6,0.3s-0.5-0.1-0.6-0.3l-2.9-2.9
	l-2.9,2.9c-0.2,0.2-0.4,0.3-0.6,0.3s-0.5-0.1-0.6-0.3c-0.4-0.4-0.4-0.9,0-1.3l2.9-2.9l-2.9-2.9c-0.2-0.2-0.3-0.4-0.3-0.6
	c0-0.2,0.1-0.5,0.3-0.6c0.2-0.2,0.4-0.3,0.6-0.3s0.5,0.1,0.6,0.3l2.9,2.9l2.9-2.9c0.2-0.2,0.4-0.3,0.6-0.3s0.5,0.1,0.6,0.3
	c0.2,0.2,0.3,0.4,0.3,0.6C275,44.9,275,45.2,274.7,45.3z M284.5,48.3c0,7.8-6.2,14-14,14s-14-6.2-14-14s6.2-14,14-14
	S284.5,40.6,284.5,48.3z M282.6,48.3c0-6.6-5.5-12.1-12.1-12.1s-12.1,5.5-12.1,12.1s5.5,12.1,12.1,12.1S282.6,55,282.6,48.3z"/>
<path class="st8" d="M320.1,43.9c0.4,0.4,0.4,1.1,0,1.5l-7.3,7.3c-0.4,0.4-1.1,0.4-1.5,0l-3.5-3.5c-0.4-0.4-0.4-1.1,0-1.5
	s1.1-0.4,1.5,0l2.7,2.7l6.6-6.6C319,43.4,319.7,43.4,320.1,43.9z M327.9,48.3c0,7.7-6.3,14-14,14s-14-6.3-14-14s6.3-14,14-14
	C321.7,34.3,327.9,40.6,327.9,48.3z M325.8,48.3c0-6.5-5.3-11.8-11.8-11.8s-11.8,5.3-11.8,11.8s5.3,11.8,11.8,11.8
	S325.8,54.8,325.8,48.3z"/>
<path class="st9" d="M371,56.2l-11.5-19c-0.5-0.8-1.3-1.2-2.2-1.2c-0.9,0-1.7,0.5-2.2,1.2l-11.5,19c-0.5,0.8-0.5,1.7,0,2.5
	c0.4,0.8,1.3,1.3,2.2,1.3h23c0.9,0,1.7-0.5,2.2-1.3S371.5,56.9,371,56.2z M369.5,57.8c-0.1,0.2-0.4,0.4-0.6,0.4h-23
	c-0.2,0-0.5-0.1-0.6-0.4c-0.1-0.2-0.1-0.5,0-0.7l11.5-19c0.1-0.2,0.4-0.3,0.6-0.3s0.5,0.1,0.6,0.3l11.5,19
	C369.6,57.3,369.6,57.6,369.5,57.8z M356.4,51.3c0-2-0.2-4.9-0.2-6.9c0-0.7,0.5-1,1.2-1s1.2,0.4,1.2,1c0,2-0.2,4.9-0.2,6.9
	c0,0.5-0.6,0.7-1,0.7C356.8,52.1,356.4,51.9,356.4,51.3z M358.7,54.6c0,0.7-0.6,1.3-1.3,1.3c-0.7,0-1.3-0.6-1.3-1.3s0.6-1.3,1.3-1.3
	S358.7,53.9,358.7,54.6z"/>
<linearGradient id="SVGID_1_" gradientUnits="userSpaceOnUse" x1="4.4324" y1="3377.1199" x2="51.8803" y2="3424.5679" gradientTransform="matrix(1 0 0 -1 0 3500)">
	<stop  offset="0" style="stop-color:#198ECF"/>
	<stop  offset="1" style="stop-color:#46ABEE"/>
</linearGradient>
<path class="st10" d="M45.9,110.6l-2.4-7c1.6-2.8,2.5-5.9,2.5-9.1c0-10-8-18-18-18s-18,8-18,18s8,18,18,18c3.5,0,6.6-1,9.1-2.5
	l7,2.4C45.2,112.8,46.3,111.7,45.9,110.6L45.9,110.6z M29.4,102.6c0,0.8-0.6,1.4-1.4,1.4s-1.4-0.6-1.4-1.4V91.9
	c0-0.8,0.6-1.4,1.4-1.4s1.4,0.6,1.4,1.4V102.6L29.4,102.6z M28,87.7c-0.8,0-1.4-0.6-1.4-1.4s0.6-1.4,1.4-1.4s1.4,0.6,1.4,1.4
	S28.7,87.7,28,87.7z"/>
<linearGradient id="SVGID_00000183947274952923442840000005001930175067217832_" gradientUnits="userSpaceOnUse" x1="135.1153" y1="-3177.0847" x2="220.8182" y2="-3091.3818" gradientTransform="matrix(1 0 0 1 -106 3224)">
	<stop  offset="0" style="stop-color:#E74C3C"/>
	<stop  offset="1" style="stop-color:#FD8B7F"/>
</linearGradient>
<path style="fill-rule:evenodd;clip-rule:evenodd;fill:url(#SVGID_00000183947274952923442840000005001930175067217832_);" d="
	M68.7,76.5c-5.5,0-10,4.5-10,10v16c0,5.5,4.5,10,10,10h16c5.5,0,10-4.5,10-10v-16c0-5.5-4.5-10-10-10H68.7z M84.2,88.4l-6.1,6.1
	l6.1,6.1c0.4,0.4,0.4,1,0,1.4c-0.2,0.2-0.4,0.3-0.7,0.3c-0.2,0-0.5-0.1-0.7-0.3l-6.1-6.1l-6.1,6.1c-0.2,0.2-0.4,0.3-0.7,0.3
	c-0.2,0-0.5-0.1-0.7-0.3c-0.4-0.4-0.4-1,0-1.4l6.1-6.1l-6.1-6.1c-0.4-0.4-0.4-1,0-1.4s1-0.4,1.4,0l6.1,6.1l6.1-6.1
	c0.4-0.4,1-0.4,1.4,0C84.5,87.4,84.5,88,84.2,88.4z"/>
<linearGradient id="SVGID_00000057108035488879339600000004076099087328301497_" gradientUnits="userSpaceOnUse" x1="213.4802" y1="-3147.5386" x2="249.4754" y2="-3111.5435" gradientTransform="matrix(1 0 0 1 -106 3224)">
	<stop  offset="0" style="stop-color:#2ECC71"/>
	<stop  offset="1" style="stop-color:#5CF29C"/>
</linearGradient>
<path style="fill:url(#SVGID_00000057108035488879339600000004076099087328301497_);" d="M125.5,76.5c-9.9,0-18,8.1-18,18
	s8.1,18,18,18s18-8.1,18-18C143.5,84.5,135.4,76.5,125.5,76.5z M134.2,89.6L123,100.8c-0.2,0.2-0.5,0.3-0.8,0.3s-0.6-0.1-0.8-0.3
	l-4.5-4.5c-0.4-0.4-0.4-1.2,0-1.6s1.2-0.4,1.6,0l3.7,3.7L132.6,88c0.4-0.4,1.2-0.4,1.6,0C134.6,88.5,134.6,89.2,134.2,89.6z"/>
<linearGradient id="SVGID_00000167384355376625658340000002519448965703429775_" gradientUnits="userSpaceOnUse" x1="260.5613" y1="-3143.408" x2="290.7632" y2="-3107.8821" gradientTransform="matrix(1 0 0 1 -106 3224)">
	<stop  offset="0" style="stop-color:#F2A62E"/>
	<stop  offset="1" style="stop-color:#FEC05F"/>
</linearGradient>
<path style="fill:url(#SVGID_00000167384355376625658340000002519448965703429775_);" d="M191.9,106.4l-15.8-26.2
	c-0.4-0.7-1.1-1.1-1.9-1.1s-1.5,0.4-1.9,1.1l-15.8,26.2c-0.4,0.7-0.4,1.5,0,2.2s1.1,1.1,1.9,1.1H190c0.8,0,1.5-0.4,1.9-1.1
	C192.4,107.9,192.4,107.1,191.9,106.4z M174.3,88.2c0.9,0,1.7,0.5,1.7,1.4c0,2.8-0.3,6.7-0.3,9.5c0,0.7-0.8,1-1.3,1
	c-0.7,0-1.4-0.3-1.4-1c0-2.8-0.3-6.7-0.3-9.5C172.6,88.7,173.3,88.2,174.3,88.2z M174.3,105.4c-1,0-1.8-0.8-1.8-1.8s0.8-1.8,1.8-1.8
	s1.8,0.8,1.8,1.8C176.1,104.5,175.2,105.4,174.3,105.4z"/>
<path class="st4" d="M210.2,100c-0.2,0-0.5-0.1-0.6-0.2c-0.2-0.2-0.2-0.4-0.2-0.6s0.1-0.5,0.2-0.6l4.6-4.5l-4.6-4.5
	c-0.3-0.3-0.3-0.9,0-1.2c0.2-0.2,0.4-0.3,0.6-0.3s0.4,0.1,0.6,0.2l4.5,4.6l4.5-4.6c0.2-0.2,0.4-0.2,0.6-0.2c0.2,0,0.5,0.1,0.6,0.2
	c0.3,0.3,0.3,0.9,0,1.2l-4.5,4.5l4.5,4.5c0.3,0.3,0.3,0.9,0,1.2c-0.2,0.2-0.4,0.2-0.6,0.2c-0.2,0-0.4-0.1-0.6-0.2l-4.6-4.6l-4.5,4.7
	C210.6,99.9,210.4,100,210.2,100L210.2,100z"/>
<path class="st5" d="M253.6,95.7c0,2.1-1.7,3.7-3.7,3.7h-2.1v-1.1h2.1c1.3,0,2.4-1,2.6-2.3c0.2-1.5-0.8-2.8-2.3-3
	c-0.2,0-0.4-0.2-0.5-0.4c-0.4-2.2-2.4-3.9-4.7-3.9c-2.6,0-4.8,2.1-4.8,4.8c0,0.3-0.2,0.5-0.5,0.5c-1.2,0-2.1,1-2.1,2.1
	c0,1.2,1,2.1,2.1,2.1h2.7v1.1h-2.7c-1.6,0-2.9-1.1-3.2-2.7c-0.3-1.7,0.9-3.4,2.6-3.7c0.2-2.5,2-4.6,4.4-5.2c3.1-0.8,6.3,1.1,7.1,4.2
	C252.4,92.5,253.6,94,253.6,95.7z M244.7,94.3l-2.1,2.1l0.7,0.7l1.2-1.2v5.1h1.1v-5l1.2,1.2l0.7-0.7l-2.1-2.1
	C245.2,94.1,244.9,94.1,244.7,94.3z"/>
<path class="st5" d="M283.3,94.4c0,2.1-1.7,3.7-3.7,3.7h-2.1V97h2.1c1.3,0,2.4-1,2.6-2.3c0.2-1.5-0.8-2.8-2.3-3
	c-0.2,0-0.4-0.2-0.5-0.4c-0.4-2.2-2.4-3.9-4.7-3.9c-2.6,0-4.8,2.1-4.8,4.8c0,0.3-0.2,0.5-0.5,0.5c-1.2,0-2.1,1-2.1,2.1
	s1,2.1,2.1,2.1h2.7V98h-2.7c-1.6,0-2.9-1.1-3.2-2.7c-0.3-1.7,0.9-3.4,2.6-3.7c0.2-2.5,2-4.6,4.4-5.2c3.1-0.8,6.3,1.1,7.1,4.2
	C282.1,91.2,283.3,92.6,283.3,94.4z M275.3,100.6v-5.1h-1.1v5.1l-1.2-1.2l-0.7,0.7l2.1,2.1c0.2,0.2,0.5,0.2,0.7,0l2.1-2.1l-0.7-0.7
	L275.3,100.6z"/>
<path class="st14" d="M298.1,100.2v-2.7c0-0.6-0.5-1.1-1.1-1.1s-1.1,0.5-1.1,1.1v3.7c0,0.6,0.5,1.1,1.1,1.1h14.9
	c0.6,0,1.1-0.5,1.1-1.1v-3.7c0-0.6-0.5-1.1-1.1-1.1s-1.1,0.5-1.1,1.1v2.7H298.1z M303.4,93.9v-6.4c0-0.6,0.5-1.1,1.1-1.1
	s1.1,0.5,1.1,1.1v6.4l1.8-0.2c0.3,0,0.6,0.4,0.4,0.7l-2.9,4.5c-0.2,0.3-0.6,0.3-0.8,0l-2.9-4.5c-0.2-0.3,0.1-0.8,0.4-0.7L303.4,93.9
	z"/>
<path class="st14" d="M324.7,91.9l4.5,5l4.5-5H324.7z"/>
<path class="st15" d="M347.4,91.9l4.5,5l4.5-5H347.4z"/>
<path class="st16" d="M12.6,129.9h10c1.2,0,2.2,1,2.2,2.2v10c0,1.2-1,2.2-2.2,2.2h-10c-1.2,0-2.2-1-2.2-2.2v-10
	C10.3,130.9,11.3,129.9,12.6,129.9z"/>
<path class="st6" d="M53,129.1H43c-1.7,0-3,1.3-3,3v10c0,1.7,1.3,3,3,3h10c1.7,0,3-1.3,3-3v-10C56,130.5,54.7,129.1,53,129.1z
	 M52.8,134.5l-5.8,6c-0.1,0.1-0.2,0.1-0.2,0.2s-0.2,0.1-0.3,0.1s-0.2,0-0.3-0.1c-0.1,0-0.2-0.1-0.2-0.2l-2.6-2.7
	c-0.1-0.1-0.1-0.2-0.2-0.3c0-0.1-0.1-0.2-0.1-0.3c0-0.2,0.1-0.4,0.2-0.5c0.1-0.1,0.3-0.2,0.5-0.2s0.4,0.1,0.5,0.2l2.1,2.1l5.3-5.4
	c0.1-0.1,0.3-0.2,0.5-0.2s0.4,0.1,0.5,0.2c0.1,0.1,0.2,0.3,0.2,0.5S52.9,134.3,52.8,134.5z"/>
<path class="st17" d="M78.1,129.9L78.1,129.9c4,0,7.2,3.2,7.2,7.2l0,0c0,4-3.2,7.2-7.2,7.2l0,0c-4,0-7.2-3.2-7.2-7.2l0,0
	C70.8,133.1,74.1,129.9,78.1,129.9z"/>
<g>
	<path class="st18" d="M108.1,129.9L108.1,129.9c4,0,7.2,3.2,7.2,7.2l0,0c0,4-3.2,7.2-7.2,7.2l0,0c-4,0-7.2-3.2-7.2-7.2l0,0
		C100.8,133.1,104.1,129.9,108.1,129.9z"/>
	<path class="st6" d="M108.1,133.1L108.1,133.1c2.2,0,4,1.8,4,4l0,0c0,2.2-1.8,4-4,4l0,0c-2.2,0-4-1.8-4-4l0,0
		C104.1,134.9,105.9,133.1,108.1,133.1z"/>
</g>
<path class="st15" d="M138.7,129.3c-0.6,0-1.1,0.5-1.1,1.1v5.3h-5.3c-0.6,0-1.1,0.5-1.1,1.1s0.5,1.1,1.1,1.1h5.3v5.2
	c0,0.6,0.5,1.1,1.1,1.1s1.1-0.5,1.1-1.1v-5.2h5.2c0.6,0,1.1-0.5,1.1-1.1s-0.5-1.1-1.1-1.1h-5.2v-5.3
	C139.8,129.8,139.3,129.3,138.7,129.3z"/>
<path class="st6" d="M180.4,133.2c0.5-0.5,0.5-1.4,0-1.9s-1.3-0.5-1.8,0l-7.8,8l-3.2-3.3c-0.5-0.5-1.3-0.5-1.8,0s-0.5,1.4,0,1.9
	l4.1,4.3c0.5,0.5,1.3,0.5,1.8,0L180.4,133.2z"/>
<path class="st3" d="M211.1,143c-0.2,0-0.5,0-0.7-0.2l-4.4-4.4l-4.4,4.4c-0.2,0.2-0.5,0.2-0.7,0.2s-0.5,0-0.7-0.2s-0.2-0.5-0.2-0.7
	s0-0.5,0.2-0.7l4.4-4.4l-4.4-4.4c-0.2-0.2-0.2-0.5-0.2-0.7s0-0.5,0.2-0.7s0.5-0.2,0.7-0.2s0.5,0,0.7,0.2l4.4,4.4l4.4-4.4
	c0.2-0.2,0.5-0.2,0.7-0.2s0.5,0,0.7,0.2s0.2,0.5,0.2,0.7s0,0.5-0.2,0.7l-4.4,4.4l4.4,4.4c0.2,0.2,0.2,0.5,0.2,0.7s0,0.5-0.2,0.7
	C211.5,143,211.3,143,211.1,143z"/>
<path class="st5" d="M356.4,196.6c-0.4-2-1.3-3.6-2.8-4.9c-1.2-1.1-2.6-1.7-4.2-2c-0.3,0-0.5-0.1-0.8-0.1c-0.4,0-0.8,0-1.2,0
	c-0.3,0-0.6,0.1-0.9,0.1c-1.8,0.3-3.3,1.1-4.6,2.4c-1.2,1.3-2,2.8-2.3,4.5c0,0.3-0.1,0.5-0.1,0.8c0,0.4,0,0.8,0,1.2
	c0,0.3,0.1,0.6,0.1,0.9c0.4,2,1.3,3.6,2.8,4.9c1.3,1.1,2.7,1.8,4.4,2c0.2,0,0.4,0,0.6,0.1h1.2c0.3,0,0.6-0.1,0.9-0.1
	c1.9-0.4,3.6-1.3,4.9-2.8c1.1-1.3,1.8-2.8,2-4.4c0-0.2,0.1-0.4,0.1-0.6v-1.2C356.4,197.1,356.4,196.8,356.4,196.6z M348,205.6
	c-4.1,0-7.5-3.4-7.4-7.5c0-4.1,3.4-7.4,7.5-7.4l0,0c4.1,0,7.4,3.4,7.4,7.5C355.4,202.1,352.1,205.6,348,205.6z M351.5,197.6
	c0.2,0.2,0.2,0.5,0,0.8c-0.9,0.9-1.8,1.8-2.6,2.6c-0.2,0.2-0.5,0.2-0.7,0s-0.3-0.5-0.1-0.7c0-0.1,0.1-0.1,0.1-0.2
	c0.5-0.5,1-1,1.5-1.5l0.1-0.1l0,0h-0.2c-1.6,0-3.2,0-4.8,0c-0.3,0-0.5-0.2-0.5-0.4c0-0.3,0.1-0.5,0.4-0.6c0.1,0,0.2,0,0.2,0
	c1.6,0,3.2,0,4.8,0c0.1,0,0.1,0,0.2,0c-0.1-0.1-0.1-0.1-0.1-0.1c-0.5-0.5-1.1-1.1-1.6-1.6c-0.3-0.3-0.2-0.8,0.2-0.9
	c0.2-0.1,0.4,0,0.6,0.2c0.5,0.5,1.1,1.1,1.6,1.6C350.9,197.1,351.3,197.3,351.5,197.6z"/>
<path class="st3" d="M242.6,130.7v12.9c-0.1,0.2-0.2,0.4-0.4,0.5c-0.3,0.2-0.6,0.1-0.8-0.1c-1.4-1.2-2.9-2.3-4.3-3.4l-0.1-0.1
	c0,0.1,0,0.1,0,0.1c0,0.9,0,1.9,0,2.8c0,0.3-0.1,0.6-0.4,0.7c-0.3,0.1-0.5,0.1-0.8-0.1c-0.4-0.4-0.9-0.7-1.3-1.1
	c-2.2-1.7-4.3-3.5-6.5-5.2c-0.4-0.3-0.4-0.9,0-1.2c2.6-2.1,5.2-4.2,7.9-6.3c0.1-0.1,0.2-0.1,0.4-0.2c0.4-0.1,0.8,0.2,0.8,0.7
	c0,0.9,0,1.9,0,2.8c0,0.1,0,0.1,0,0.2c0.8-0.7,1.6-1.3,2.4-1.9c0.7-0.6,1.4-1.1,2.1-1.7C241.9,129.9,242.4,130.1,242.6,130.7
	L242.6,130.7L242.6,130.7z"/>
<path class="st3" d="M260.1,144h0.4c0.1-0.1,0.3-0.1,0.4-0.2c0.6-0.3,1.2-0.6,1.7-0.9c2.2-1.3,4.4-2.6,6.6-3.9
	c0.7-0.4,1.4-0.8,2.1-1.3c0.3-0.2,0.6-0.4,0.7-0.8c0-0.1,0-0.2,0.1-0.3v-0.2c-0.1-0.6-0.5-1-0.9-1.2s-0.7-0.4-1-0.6
	c-2.1-1.3-4.3-2.6-6.4-3.9c-1-0.6-2-1.2-3.1-1.7h-0.4l0,0c-0.4,0.1-0.7,0.3-0.9,0.8c-0.1,0.1-0.1,0.3-0.1,0.5v12.5v0.1
	c0,0.4,0.2,0.6,0.5,0.9C259.7,143.9,259.9,143.9,260.1,144L260.1,144z"/>
<path class="st3" d="M292.2,130.5c0,4.3,0,8.6,0,12.9c0,0.1,0,0.1,0,0.2c0,0.4-0.2,0.6-0.5,0.8c-0.1,0-0.1,0.1-0.2,0.1h-2.3
	c-0.1,0-0.1-0.1-0.2-0.1c-0.2-0.1-0.4-0.4-0.5-0.6v-13.5c0.1-0.1,0.1-0.3,0.2-0.4c0.1-0.2,0.3-0.3,0.5-0.4h2.3l0,0
	C292,129.7,292.2,129.9,292.2,130.5z M297,129.5c-0.1,0-0.1-0.1-0.2-0.1c-0.8,0-1.5,0-2.3,0c-0.1,0.1-0.2,0.1-0.3,0.2
	c-0.2,0.2-0.3,0.4-0.3,0.8c0,0.5,0,1.1,0,1.6c0,3.8,0,7.6,0,11.4c0,0.6,0.2,0.8,0.6,1l0,0h2.3c0.2-0.1,0.4-0.2,0.5-0.4
	c0.1-0.1,0.1-0.2,0.2-0.4v-13.5C297.4,129.9,297.3,129.6,297,129.5z"/>
<path class="st3" d="M318,129h9c1.7,0,3,1.3,3,3v9c0,1.7-1.3,3-3,3h-9c-1.7,0-3-1.3-3-3v-9C315,130.3,316.3,129,318,129z"/>
<path class="st3" d="M347.6,129.9v12.9c0.1,0.2,0.2,0.4,0.4,0.5c0.3,0.2,0.6,0.1,0.8-0.1c1.4-1.2,2.9-2.3,4.3-3.4l0.1-0.1
	c0,0.1,0,0.1,0,0.1c0,0.9,0,1.9,0,2.8c0,0.3,0.1,0.6,0.4,0.7s0.5,0.1,0.8-0.1c0.4-0.4,0.9-0.7,1.3-1.1c2.2-1.7,4.3-3.5,6.5-5.2
	c0.4-0.3,0.4-0.9,0-1.2c-2.6-2.1-5.2-4.2-7.9-6.3c-0.1-0.1-0.2-0.1-0.4-0.2c-0.4-0.1-0.8,0.2-0.8,0.7c0,0.9,0,1.9,0,2.8
	c0,0.1,0,0.1,0,0.2c-0.8-0.7-1.6-1.3-2.4-1.9c-0.7-0.6-1.4-1.1-2.1-1.7C348.3,129.2,347.8,129.3,347.6,129.9L347.6,129.9
	L347.6,129.9z"/>
<path class="st3" d="M18,176.4h-7.5h-0.1c-0.7-0.2-1.2-1-0.9-1.7c0.2-0.6,0.6-0.9,1.2-1c0.2,0,0.4,0,0.6,0v-9.6c-0.2,0-0.3,0-0.5,0
	s-0.3,0-0.5-0.1c-0.4-0.2-0.7-0.5-0.8-1s0.1-0.9,0.4-1.3c0.2-0.2,0.4-0.3,0.7-0.3c2.5,0,5,0,7.5,0h0.1c0.8,0.1,1.5,0.4,2.1,0.9
	c1.2,1,1.7,2.3,1.6,3.9c-0.1,1-0.4,1.8-1,2.5l-0.1,0.1c0.1,0.1,0.1,0.1,0.2,0.2c0.7,1,1.1,2.1,0.9,3.3c-0.1,0.9-0.4,1.6-0.9,2.3
	c-0.6,0.7-1.3,1.3-2.1,1.5C18.6,176.3,18.3,176.4,18,176.4z M13.8,167.5h0.1c1.2,0,2.5,0,3.7,0c0.1,0,0.2,0,0.4,0
	c0.8-0.2,1.4-1.1,1.2-1.9c-0.1-0.9-0.8-1.5-1.6-1.5c-1.2,0-2.5,0-3.7,0h-0.1V167.5L13.8,167.5z M13.8,170.3v3.4h0.1
	c1.2,0,2.5,0,3.7,0c0.1,0,0.3,0,0.4-0.1c0.7-0.2,1.3-1,1.2-1.8c-0.1-0.8-0.7-1.5-1.5-1.5C16.5,170.3,15.2,170.3,13.8,170.3
	C13.9,170.3,13.9,170.3,13.8,170.3L13.8,170.3z"/>
<path class="st3" d="M45.5,173c0-0.1,0.1-0.2,0.1-0.4c0,0,0.5-2,1.1-4.2c0.9-3.6,1.2-4.4,1.2-4.5c0.2-0.4,0.5-0.7,0.9-0.9
	c0.3-0.2,0.8-0.3,1.3-0.3c0.2,0,0.3-0.1,0.4-0.3c0.1-0.1,0.2-0.3,0.2-0.5c0-0.4-0.3-0.6-0.6-0.6H43c-0.3,0-0.6,0.3-0.6,0.6l0,0
	c0,0.3,0.2,0.6,0.5,0.6c0.4,0.1,1,0.2,1.4,0.4c0.2,0.1,0.4,0.2,0.5,0.4s0.2,0.4,0.2,0.6c0,0.4-0.1,0.9-0.2,1.3
	c0,0.1-0.1,0.2-0.1,0.3c-0.2,0.6-0.4,1.4-0.6,2.4c-0.6,2.3-1.3,5.1-1.5,5.7c-0.1,0.4-0.6,1.2-2.2,1.4c-0.2,0-0.3,0.1-0.4,0.2
	c-0.1,0.1-0.2,0.3-0.2,0.4l0,0c0,0.4,0.3,0.6,0.6,0.6h7.1c0.3,0,0.6-0.3,0.6-0.6l0,0c0-0.3-0.2-0.6-0.5-0.6c-0.1,0-0.1,0-0.2,0
	c-0.6-0.1-1.4-0.2-1.7-0.6c-0.2-0.2-0.2-0.5-0.1-0.8C45.4,173.4,45.4,173.2,45.5,173z"/>
<path class="st3" d="M76.3,161.4h6.4c0.2,0.1,0.4,0.3,0.4,0.6v0.3c-0.1,0.3-0.2,0.5-0.5,0.6c-0.2,0-0.4,0.1-0.6,0.1
	c-0.7,0.1-1,0.5-1,1.2c0,2.5,0,4.9,0,7.4c0,0.7-0.1,1.4-0.5,2c-0.6,1.1-1.5,1.9-2.7,2.4c-1,0.4-2,0.6-3.1,0.6
	c-1.3,0-2.6-0.2-3.9-0.8c-1.7-0.9-2.7-2.3-2.7-4.2c0-2.5,0-4.9,0-7.4c0-0.6-0.3-1-0.9-1.1c-0.2,0-0.4-0.1-0.6-0.1
	c-0.4,0-0.6-0.2-0.7-0.6V162c0-0.3,0.2-0.4,0.4-0.6h6.4c0.4,0.2,0.5,0.5,0.4,1c0,0.2-0.2,0.4-0.4,0.4c-0.2,0-0.5,0.1-0.7,0.1
	c-0.4,0.1-0.8,0.2-0.9,0.6c0,0.2-0.1,0.3-0.1,0.5c0,2.1,0,4.1,0,6.2c0,0.6,0,1.1,0.1,1.7c0.2,1.1,0.8,1.9,1.8,2.4
	c0.7,0.3,1.4,0.3,2.1,0.2c1.1-0.2,1.9-0.7,2.4-1.8c0.3-0.6,0.3-1.3,0.3-1.9c0-2.3,0-4.6,0-6.9c0-0.6-0.2-0.9-0.8-1
	c-0.3-0.1-0.6-0.1-0.9-0.1c-0.2,0-0.4-0.2-0.4-0.4C75.8,161.9,75.8,161.6,76.3,161.4L76.3,161.4z"/>
<path class="st3" d="M100.9,173.1c0.5,0,0.9-0.2,1.1-0.6c0.3-0.5,0.5-1.1,0.8-1.6c0.1-0.1,0.1-0.2,0.3-0.2c1.6,0,3.1,0,4.7,0
	c0.1,0,0.2,0,0.3,0.2c0.2,0.5,0.5,1.1,0.8,1.6s0.9,0.8,1.4,0.6s0.9-0.8,0.7-1.4c-0.1-0.3-0.2-0.6-0.4-0.9c-1.3-2.9-2.7-5.7-4-8.6
	c-0.1-0.3-0.4-0.6-0.7-0.7c-0.1,0-0.2-0.1-0.3-0.1l0,0h-0.1l0,0c-0.5,0.1-0.8,0.3-1,0.8c-0.7,1.6-1.5,3.2-2.2,4.7s-1.4,2.9-2.1,4.4
	c-0.1,0.3-0.2,0.6-0.1,0.9C100,172.7,100.4,173,100.9,173.1z M105.3,165.3c0.5,1,0.9,2,1.4,3h-2.8
	C104.3,167.3,104.8,166.3,105.3,165.3z M113.8,175v0.5c0,0.1,0,0.1-0.1,0.2c-0.1,0.3-0.4,0.6-0.7,0.7c-0.1,0-0.2,0.1-0.3,0.1H97.9
	h-0.1c-0.3-0.1-0.6-0.2-0.8-0.5c-0.1-0.1-0.1-0.3-0.2-0.4c0-0.2,0-0.3,0-0.5V175c0.2-0.5,0.6-0.8,1.1-0.9c0.3,0,0.6,0,0.9,0
	c4.5,0,9,0,13.5,0C113.1,174.1,113.6,174.3,113.8,175z"/>
<path d="M144.8,162.1v0.4c-0.1,0.3-0.3,0.5-0.6,0.6c-0.1,0-0.2,0-0.3,0c-5.1,0-10.2,0-15.3,0c-0.4,0-0.7-0.2-0.8-0.6v-0.4
	c0.1-0.2,0.2-0.4,0.3-0.5s0.3-0.1,0.4-0.2H144C144.5,161.5,144.7,161.7,144.8,162.1z M144,174.7c-5.1,0-10.2,0-15.3,0
	c-0.1,0-0.2,0-0.3,0c-0.3,0.1-0.5,0.3-0.6,0.6v0.4c0.1,0.4,0.4,0.6,0.7,0.7H144c0.1-0.1,0.3-0.1,0.4-0.2c0.1-0.1,0.2-0.3,0.3-0.5
	v-0.4C144.7,175,144.4,174.7,144,174.7z M143.9,168.1c-5.1,0-10.1,0-15.2,0c-0.1,0-0.1,0-0.2,0c-0.2,0-0.4,0.1-0.6,0.3
	c-0.1,0.1-0.1,0.2-0.2,0.3c0,0.1,0,0.2,0,0.4c0.1,0.1,0.1,0.2,0.2,0.3c0.2,0.3,0.5,0.3,0.8,0.3c5.1,0,10.1,0,15.1,0
	c0.1,0,0.2,0,0.2,0c0.3,0,0.5-0.2,0.6-0.4c0-0.1,0.1-0.1,0.1-0.2v-0.4c-0.1-0.1-0.1-0.2-0.2-0.3
	C144.5,168.1,144.2,168.1,143.9,168.1z M128.8,166.4c3.6,0,7.3,0,10.9,0c0.1,0,0.2,0,0.2,0c0.3,0,0.6-0.3,0.7-0.6
	c0.1-0.3-0.1-0.7-0.4-0.9c-0.2-0.1-0.4-0.1-0.5-0.1c-2.4,0-4.8,0-7.2,0c-1.3,0-2.6,0-3.9,0c-0.2,0-0.5,0-0.6,0.2
	c-0.1,0.1-0.2,0.3-0.3,0.5l0,0v0.4C128,166.3,128.3,166.4,128.8,166.4z M128.8,173.1c3.6,0,7.3,0,10.9,0c0.1,0,0.2,0,0.3,0
	c0.4,0,0.7-0.4,0.7-0.8c0-0.5-0.3-0.9-0.9-0.9c-3.7,0-7.4,0-11.2,0c-0.1,0-0.2,0-0.3,0c-0.3,0.1-0.5,0.3-0.6,0.6l0,0v0.4
	C128,172.9,128.3,173.1,128.8,173.1z"/>
<path d="M179.2,162.1v0.4c-0.1,0.3-0.3,0.5-0.6,0.6c-0.1,0-0.2,0-0.3,0c-5.1,0-10.2,0-15.3,0c-0.4,0-0.7-0.2-0.8-0.6v-0.4
	c0.1-0.2,0.2-0.4,0.3-0.5s0.3-0.1,0.4-0.2h15.5C178.9,161.5,179.1,161.7,179.2,162.1z M178.4,174.7c-5.1,0-10.2,0-15.3,0
	c-0.1,0-0.2,0-0.3,0c-0.3,0.1-0.5,0.3-0.6,0.6v0.4c0.1,0.4,0.4,0.6,0.7,0.7h15.5c0.1-0.1,0.3-0.1,0.4-0.2c0.1-0.1,0.2-0.3,0.3-0.5
	v-0.4C179.1,175,178.8,174.7,178.4,174.7z M178.3,168.1c-5.1,0-10.1,0-15.2,0c-0.1,0-0.1,0-0.2,0c-0.2,0-0.4,0.1-0.6,0.3
	c-0.1,0.1-0.1,0.2-0.2,0.3c0,0.1,0,0.2,0,0.4c0.1,0.1,0.1,0.2,0.2,0.3c0.2,0.3,0.5,0.3,0.8,0.3c5.1,0,10.1,0,15.1,0
	c0.1,0,0.2,0,0.2,0c0.3,0,0.5-0.2,0.6-0.4c0-0.1,0.1-0.1,0.1-0.2v-0.3c-0.1-0.1-0.1-0.2-0.2-0.3
	C178.9,168.1,178.6,168.1,178.3,168.1z M176.1,166.4c0.1,0,0.2,0,0.2,0c0.3,0,0.6-0.3,0.7-0.7c0.1-0.3-0.1-0.7-0.4-0.9
	c-0.2-0.1-0.4-0.1-0.5-0.1c-2.4,0-4.8,0-7.2,0c-1.3,0-2.6,0-3.9,0c-0.2,0-0.5,0-0.6,0.2c-0.1,0.1-0.2,0.3-0.3,0.5l0,0v0.4
	c0.2,0.5,0.5,0.7,1,0.7C168.8,166.4,172.5,166.4,176.1,166.4z M176.1,173.1c0.1,0,0.2,0,0.3,0c0.4,0,0.7-0.4,0.7-0.8
	c0-0.5-0.3-0.9-0.9-0.9c-3.7,0-7.4,0-11.2,0c-0.1,0-0.2,0-0.3,0c-0.3,0.1-0.5,0.3-0.6,0.6l0,0v0.4c0.2,0.5,0.5,0.7,1,0.7
	C168.8,173.1,172.5,173.1,176.1,173.1z"/>
<path d="M213.4,162.1v0.4c-0.1,0.3-0.3,0.5-0.6,0.6c-0.1,0-0.2,0-0.3,0c-5.1,0-10.2,0-15.3,0c-0.4,0-0.7-0.2-0.8-0.6v-0.4
	c0.1-0.2,0.2-0.4,0.3-0.5s0.3-0.1,0.4-0.2h15.5C213,161.5,213.3,161.7,213.4,162.1z M212.5,174.7c-5.1,0-10.2,0-15.3,0
	c-0.1,0-0.2,0-0.3,0c-0.3,0.1-0.5,0.3-0.6,0.6v0.4c0.1,0.4,0.4,0.6,0.7,0.7h15.5c0.1-0.1,0.3-0.1,0.4-0.2c0.1-0.1,0.2-0.3,0.3-0.5
	v-0.4C213.2,175,213,174.7,212.5,174.7z M212.5,168.1c-5.1,0-10.1,0-15.2,0c-0.1,0-0.1,0-0.2,0c-0.2,0-0.4,0.1-0.6,0.3
	c-0.1,0.1-0.1,0.2-0.2,0.3c0,0.1,0,0.2,0,0.4c0.1,0.1,0.1,0.2,0.2,0.3c0.2,0.3,0.5,0.3,0.8,0.3c5.1,0,10.1,0,15.1,0
	c0.1,0,0.2,0,0.2,0c0.3,0,0.5-0.2,0.6-0.4c0-0.1,0.1-0.1,0.1-0.2v-0.3c-0.1-0.1-0.1-0.2-0.2-0.3C213,168.1,212.8,168.1,212.5,168.1z
	 M212.3,166.4c0.1,0,0.2,0,0.2,0c0.3,0,0.6-0.3,0.7-0.6c0.1-0.3-0.1-0.7-0.4-0.9c-0.2-0.1-0.4-0.1-0.5-0.1c-2.4,0-4.8,0-7.2,0
	c-1.3,0-2.6,0-3.9,0c-0.2,0-0.5,0-0.6,0.2c-0.1,0.1-0.2,0.3-0.3,0.5l0,0v0.4c0.2,0.5,0.5,0.7,1,0.7
	C205,166.4,208.7,166.4,212.3,166.4z M212.3,173.1c0.1,0,0.2,0,0.3,0c0.4,0,0.7-0.4,0.7-0.8c0-0.5-0.3-0.9-0.9-0.9
	c-3.7,0-7.4,0-11.2,0c-0.1,0-0.2,0-0.3,0c-0.3,0.1-0.5,0.3-0.6,0.6l0,0v0.4c0.2,0.5,0.5,0.7,1,0.7
	C205,173.1,208.7,173.1,212.3,173.1z"/>
<path d="M248,162.6v0.4c-0.1,0.3-0.3,0.5-0.6,0.6c-0.1,0-0.2,0-0.3,0c-5.1,0-10.2,0-15.3,0c-0.4,0-0.7-0.2-0.8-0.6v-0.4
	c0.1-0.2,0.2-0.4,0.3-0.5s0.3-0.1,0.4-0.2h15.5C247.6,162,247.8,162.2,248,162.6z M247.1,175.3c-5.1,0-10.2,0-15.3,0
	c-0.1,0-0.2,0-0.3,0c-0.3,0.1-0.5,0.3-0.6,0.6v0.4c0.1,0.4,0.4,0.6,0.7,0.7h15.5c0.1-0.1,0.3-0.1,0.4-0.2c0.1-0.1,0.2-0.3,0.3-0.5
	v-0.4C247.8,175.5,247.6,175.3,247.1,175.3z M247.1,168.6c-5.1,0-10.1,0-15.2,0c-0.1,0-0.1,0-0.2,0c-0.2,0-0.4,0.1-0.6,0.3
	c-0.1,0.1-0.1,0.2-0.2,0.3c0,0.1,0,0.2,0,0.4c0.1,0.1,0.1,0.2,0.2,0.3c0.2,0.3,0.5,0.3,0.8,0.3c5.1,0,10.1,0,15.1,0
	c0.1,0,0.2,0,0.2,0c0.3,0,0.5-0.2,0.6-0.4c0-0.1,0.1-0.1,0.1-0.2v-0.4c-0.1-0.1-0.1-0.2-0.2-0.3
	C247.6,168.7,247.4,168.6,247.1,168.6z M231.9,167c3.6,0,11.3,0,14.9,0c0.1,0,0.2,0,0.2,0c0.3,0,0.6-0.3,0.7-0.6
	c0.1-0.3-0.1-0.7-0.4-0.9c-0.2-0.1-0.4-0.1-0.5-0.1c-2.4,0-4.8,0-7.2,0c-1.3,0-6.6,0-7.9,0c-0.2,0-0.5,0-0.6,0.2
	c-0.1,0.1-0.2,0.3-0.3,0.5l0,0v0.4C231.1,166.8,231.5,167,231.9,167z M231.9,173.6c3.6,0,11.3,0,14.9,0c0.1,0,0.2,0,0.3,0
	c0.4,0,0.7-0.4,0.7-0.8c0-0.5-0.3-0.9-0.9-0.9c-3.7,0-11.4,0-15.2,0c-0.1,0-0.2,0-0.3,0c-0.3,0.1-0.5,0.3-0.6,0.6l0,0v0.4
	C231.1,173.4,231.5,173.6,231.9,173.6z"/>
<path class="st19" d="M272.4,175.3c-3.9,0-7-3.1-7-7s3.1-7,7-7s7,3.1,7,7S276.2,175.3,272.4,175.3z M272.4,162.6
	c-3.1,0-5.7,2.5-5.7,5.7c0,3.1,2.5,5.7,5.7,5.7c3.1,0,5.7-2.5,5.7-5.7C278,165.2,275.5,162.6,272.4,162.6z M282.2,178.1
	c0.3-0.3,0.3-0.7,0-0.9l-3-3c-0.3-0.3-0.7-0.3-0.9,0c-0.3,0.3-0.3,0.7,0,0.9l3,3c0.1,0.1,0.3,0.2,0.5,0.2S282,178.3,282.2,178.1z"/>
<path class="st5" d="M10.4,195.1l4.5,4.5c0.1,0.1,0.1,0.3,0,0.4l-0.6,0.6c-0.1,0.1-0.3,0.1-0.4,0l-4.5-4.5c-0.1-0.1-0.1-0.3,0-0.4
	l0.6-0.6C10.1,195,10.3,195,10.4,195.1z"/>
<path class="st5" d="M23.3,197.7l2.3-2.3c0.1-0.1,0.2-0.1,0.3-0.1c0.1,0,0.2,0,0.3,0.1l0.2,0.2c0.1,0.1,0.1,0.2,0.1,0.3
	s0,0.2-0.1,0.3l-1.4,1.4h4.4c0.2,0,0.4,0.2,0.4,0.3v0.3c0,0.2-0.2,0.4-0.4,0.4H25l1.4,1.4c0.1,0.1,0.1,0.2,0.1,0.2
	c0,0.1,0,0.2-0.1,0.3l-0.2,0.2c-0.1,0.1-0.2,0.1-0.3,0.1c-0.1,0-0.2,0-0.3-0.1l-2.3-2.3c-0.1-0.1-0.1-0.2-0.1-0.3
	C23.2,197.8,23.3,197.7,23.3,197.7z"/>
<path class="st5" d="M40.1,200.3c-0.1,0.1-0.1,0.1-0.2,0.1c-0.1,0-0.2,0-0.2-0.1l-1.9-1.9c-0.2-0.2-0.2-0.5,0-0.7l0.2-0.2
	c0.2-0.2,0.5-0.2,0.7,0l1.2,1.2l3.1-3.1c0.2-0.2,0.5-0.2,0.7,0l0.2,0.2c0.2,0.2,0.2,0.5,0,0.7L40.1,200.3z"/>
<path class="st5" d="M56.1,197.9l1.8-1.8c0.2-0.2,0.2-0.5,0-0.7l-0.2-0.2c-0.2-0.2-0.5-0.2-0.7,0l-1.8,1.8l-1.8-1.8
	c-0.2-0.2-0.5-0.2-0.7,0l-0.2,0.2c-0.2,0.2-0.2,0.5,0,0.7l1.8,1.8l-1.8,1.8c-0.2,0.2-0.2,0.5,0,0.7l0.2,0.2c0.2,0.2,0.5,0.2,0.7,0
	l1.8-1.8l1.8,1.8c0.2,0.2,0.5,0.2,0.7,0l0.2-0.2c0.2-0.2,0.2-0.5,0-0.7L56.1,197.9z"/>
<path class="st5" d="M71.9,197h-0.4v-0.6c0-1.1-0.9-2-2-2s-2,0.9-2,2v0.6H67c-0.1,0-0.1,0.1-0.1,0.1v3.6c0,0.3,0.3,0.6,0.6,0.6h4
	c0.3,0,0.6-0.3,0.6-0.6v-3.6C72,197.1,72,197,71.9,197z M69.9,200.1v0.1h-0.1h-0.6h-0.1v-0.1l0.1-0.8c-0.1-0.1-0.2-0.3-0.2-0.5
	c0-0.3,0.3-0.6,0.6-0.6c0.3,0,0.6,0.3,0.6,0.6c0,0.2-0.1,0.4-0.2,0.5L69.9,200.1z M70.6,197h-2.3v-0.6c0-0.6,0.5-1.2,1.2-1.2
	c0.6,0,1.2,0.5,1.2,1.2L70.6,197L70.6,197z"/>
<path class="st5" d="M82.2,199.5l-0.3-4.2c0-0.2,0.1-0.5,0.2-0.7c0.2-0.2,0.4-0.3,0.6-0.3s0.5,0.1,0.6,0.3c0.2,0.2,0.2,0.4,0.2,0.7
	l-0.3,4.2c0,0.3-0.2,0.5-0.5,0.5C82.5,200,82.3,199.8,82.2,199.5z M82.8,200.3c-0.3,0-0.6,0.3-0.6,0.6s0.3,0.6,0.6,0.6
	c0.3,0,0.6-0.3,0.6-0.6C83.3,200.5,83.1,200.3,82.8,200.3z"/>
<path class="st20" d="M101,191.5c3.5,0,6.2,2.8,6.2,6.2s-2.8,6.2-6.2,6.2s-6.2-2.8-6.2-6.2S97.6,191.5,101,191.5z"/>
<g>
	<circle class="st21" cx="122.4" cy="198.1" r="6.2"/>
	<path class="st5" d="M120.7,195.3l4.5,4.5c0.1,0.1,0.1,0.3,0,0.4l-0.6,0.6c-0.1,0.1-0.3,0.1-0.4,0l-4.5-4.5c-0.1-0.1-0.1-0.3,0-0.4
		l0.6-0.6C120.4,195.2,120.6,195.2,120.7,195.3z"/>
</g>
<g>
	<circle class="st22" cx="144" cy="198.3" r="5.8"/>
	<circle class="st5" cx="144" cy="198.3" r="2.5"/>
</g>
<path class="st23" d="M164.9,191.7c3.4,0,6.2,2.8,6.2,6.2s-2.8,6.2-6.2,6.2s-6.2-2.8-6.2-6.2S161.5,191.7,164.9,191.7z"/>
<g>
	<circle class="st24" cx="187" cy="198" r="6.2"/>
	<g>
		<g>
			<path class="st5" d="M183.9,197.7l2.3-2.3c0.1-0.1,0.2-0.1,0.3-0.1s0.2,0,0.3,0.1l0.2,0.2c0.1,0.1,0.1,0.2,0.1,0.3s0,0.2-0.1,0.3
				l-1.4,1.4h4.4c0.2,0,0.4,0.2,0.4,0.3v0.3c0,0.2-0.2,0.4-0.4,0.4h-4.4l1.4,1.4c0.1,0.1,0.1,0.2,0.1,0.2c0,0.1,0,0.2-0.1,0.3
				l-0.2,0.2c-0.1,0.1-0.2,0.1-0.3,0.1s-0.2,0-0.3-0.1l-2.3-2.3c-0.1-0.1-0.1-0.2-0.1-0.3C183.8,197.9,183.8,197.8,183.9,197.7z"/>
		</g>
	</g>
</g>
<path class="st20" d="M209.2,191c3.8,0,6.8,3,6.8,6.8s-3,6.8-6.8,6.8s-6.8-3-6.8-6.8S205.4,191,209.2,191z"/>
<g>
	<g>
		<g>
			<g>
				<g>
					<g>
						<g>
							<g>
								<g>
									<g>
										<g>
											<g>
												<g>
													<g>
														<g>
															<g>
																<g>
																	<g>
																		<g>
																			<g>
																				<g>
																					<g>
																						<defs>
																							
																								<rect id="SVGID_00000152242651319646363130000000083311709861425849_" x="206" y="194.6" width="6.4" height="6.4"/>
																						</defs>
																						<clipPath id="SVGID_00000020390626329460323270000008240375816650113199_">
																							<use xlink:href="#SVGID_00000152242651319646363130000000083311709861425849_"  style="overflow:visible;"/>
																						</clipPath>
																						<g style="clip-path:url(#SVGID_00000020390626329460323270000008240375816650113199_);">
																							<path class="st5" d="M208.5,200.2c-0.1,0.1-0.1,0.1-0.2,0.1c-0.1,0-0.2,0-0.2-0.1l-1.9-1.9
																								c-0.2-0.2-0.2-0.5,0-0.7l0.2-0.2c0.2-0.2,0.5-0.2,0.7,0l1.2,1.2l3.1-3.1c0.2-0.2,0.5-0.2,0.7,0l0.2,0.2
																								c0.2,0.2,0.2,0.5,0,0.7L208.5,200.2z"/>
																						</g>
																					</g>
																				</g>
																			</g>
																		</g>
																	</g>
																</g>
															</g>
														</g>
													</g>
												</g>
											</g>
										</g>
									</g>
								</g>
							</g>
						</g>
					</g>
				</g>
			</g>
		</g>
	</g>
</g>
<g>
	<circle class="st21" cx="231.5" cy="197.6" r="6.8"/>
	<g>
		<g>
			<path class="st5" d="M232.4,197.6l1.8-1.8c0.2-0.2,0.2-0.5,0-0.7l-0.2-0.2c-0.2-0.2-0.5-0.2-0.7,0l-1.8,1.8l-1.8-1.8
				c-0.2-0.2-0.5-0.2-0.7,0l-0.2,0.2c-0.2,0.2-0.2,0.5,0,0.7l1.8,1.8l-1.8,1.8c-0.2,0.2-0.2,0.5,0,0.7l0.2,0.2
				c0.2,0.2,0.5,0.2,0.7,0l1.8-1.8l1.8,1.8c0.2,0.2,0.5,0.2,0.7,0l0.2-0.2c0.2-0.2,0.2-0.5,0-0.7L232.4,197.6z"/>
		</g>
	</g>
</g>
<g>
	<ellipse transform="matrix(0.2347 -0.9721 0.9721 0.2347 1.457 397.8608)" class="st26" cx="253.4" cy="198" rx="6.8" ry="6.8"/>
	<g>
		<g>
			<path class="st5" d="M255.9,197.1h-0.4v-0.6c0-1.1-0.9-2-2-2s-2,0.9-2,2v0.6H251c-0.1,0-0.1,0.1-0.1,0.1v3.6
				c0,0.3,0.3,0.6,0.6,0.6h4c0.3,0,0.6-0.3,0.6-0.6v-3.6C256,197.2,256,197.1,255.9,197.1z M253.9,200.1v0.1h-0.1h-0.6h-0.1v-0.1
				l0.1-0.8c-0.1-0.1-0.2-0.3-0.2-0.5c0-0.3,0.3-0.6,0.6-0.6s0.6,0.3,0.6,0.6c0,0.2-0.1,0.4-0.2,0.5L253.9,200.1z M254.6,197.1h-2.3
				v-0.6c0-0.6,0.5-1.2,1.2-1.2s1.2,0.5,1.2,1.2L254.6,197.1L254.6,197.1z"/>
		</g>
	</g>
</g>
<g>
	<path class="st27" d="M283,193.8l-5.7-3.4c-0.2-0.1-0.4-0.1-0.5,0l-5.7,3.4c-0.2,0.1-0.2,0.3-0.2,0.4v1.9c0,4.1,2.3,7.8,6,9.2
		c0.1,0,0.2,0,0.4,0c3.6-1.4,6-5.1,6-9.2v-1.9C283.3,194.1,283.2,193.9,283,193.8z"/>
	<g>
		<g>
			<path class="st5" d="M276.4,200.3c-0.1,0.1-0.1,0.1-0.2,0.1s-0.2,0-0.2-0.1l-1.9-1.9c-0.2-0.2-0.2-0.5,0-0.7l0.2-0.2
				c0.2-0.2,0.5-0.2,0.7,0l1.2,1.2l3.2-3.2c0.2-0.2,0.5-0.2,0.7,0l0.2,0.2c0.2,0.2,0.2,0.5,0,0.7L276.4,200.3z"/>
		</g>
	</g>
</g>
<g>
	<circle class="st28" cx="300.5" cy="198" r="6.8"/>
	<path class="st5" d="M300.5,200.1c0.3,0,0.5-0.2,0.5-0.5l0.3-4.2c0-0.2-0.1-0.5-0.2-0.7c-0.2-0.2-0.4-0.3-0.6-0.3s-0.5,0.1-0.6,0.3
		c-0.2,0.2-0.2,0.4-0.2,0.7l0.3,4.2C300,199.9,300.3,200.1,300.5,200.1z"/>
	<path class="st5" d="M300.5,200.4c-0.3,0-0.6,0.3-0.6,0.6s0.3,0.6,0.6,0.6c0.3,0,0.6-0.3,0.6-0.6
		C301.1,200.6,300.8,200.4,300.5,200.4z"/>
</g>
<path class="st3" d="M330.6,199.7c-0.3,1.6-1.1,3.1-2.5,4c-1.1,0.8-2.3,1.2-3.6,1.2c-0.3,0-0.6,0-1-0.1c-3.4-0.5-5.7-3.7-5.1-7
	c0.3-1.6,1.1-3.1,2.5-4c1.1-0.8,2.5-1.2,3.9-1.2l-1-1l0.7-0.7l1.6,1.5l0,0l0.7,0.7l-0.7,0.7l0,0l-1.5,1.6l-0.7-0.7l1-1
	c-1.2-0.1-2.3,0.3-3.3,1c-1.1,0.8-1.8,2-2,3.3c-0.4,2.8,1.5,5.4,4.2,5.8c1.3,0.2,2.7-0.1,3.8-0.9c1.1-0.8,1.8-2,2-3.3
	c0.3-1.8-0.4-3.7-1.9-4.8l0.7-0.9C330.1,195.2,330.9,197.4,330.6,199.7z M325.1,201.8L325.1,201.8L325.1,201.8v-0.6
	c0.8-0.1,1.5-0.6,1.5-1.5c0-1.2-1.1-1.4-2-1.5c-0.5-0.1-0.9-0.1-0.9-0.5s0.6-0.5,0.9-0.5c0.4,0,0.8,0.2,1,0.4v0.1l0.8-0.4v-0.1
	c-0.3-0.6-0.9-0.8-1.3-0.9v-0.6h-1v0.6c-0.9,0.1-1.4,0.6-1.4,1.4c0,1.2,1.1,1.3,1.8,1.4c0.7,0.1,1,0.3,1,0.5c0,0.5-0.8,0.6-1,0.6
	c-0.5,0-1-0.3-1.2-0.6v-0.1l-0.9,0.4v0.1c0.3,0.6,0.8,1,1.6,1.1v0.6h1.1V201.8z"/>
<path class="st0" d="M10,265.7l5.5,6l5.5-6"/>
<path class="st7" d="M51,274.2l-6.6-11.9c-0.2-0.3-0.5-0.5-0.8-0.5s-0.7,0.2-0.8,0.5l-6.6,11.9c-0.2,0.3-0.2,0.6,0,0.9
	s0.5,0.5,0.8,0.5h13.1c0.3,0,0.6-0.2,0.8-0.5C51.2,274.8,51.2,274.5,51,274.2z M43.5,266.6C43.6,266.6,43.6,266.6,43.5,266.6
	c0.5,0,0.9,0.3,1,0.7c0,0.1,0,0.2,0,0.3l-0.6,3.5c0,0.1-0.2,0.2-0.3,0.2l0,0c-0.1,0-0.2-0.1-0.2-0.2l-0.6-3.5
	C42.7,267.1,43,266.7,43.5,266.6z M43.6,273.8c-0.5,0-0.9-0.4-0.9-0.9s0.4-0.9,0.9-0.9s0.9,0.4,0.9,0.9S44.1,273.8,43.6,273.8z"/>
<path class="st3" d="M69.7,273.4c-0.1,0-0.3,0-0.4-0.1c-0.1,0-0.2-0.1-0.3-0.2l-3.4-3.4c-0.1-0.1-0.2-0.2-0.2-0.3
	c0-0.1-0.1-0.2-0.1-0.4c0-0.3,0.1-0.5,0.3-0.7c0.2-0.2,0.4-0.3,0.7-0.3c0.3,0,0.5,0.1,0.7,0.3l2.7,2.7l6.9-6.8
	c0.2-0.2,0.4-0.3,0.7-0.3c0.3,0,0.5,0.1,0.7,0.3c0.2,0.2,0.3,0.4,0.3,0.7c0,0.3-0.1,0.5-0.3,0.7l-7.6,7.5c-0.1,0.1-0.2,0.2-0.3,0.2
	C70,273.4,69.8,273.4,69.7,273.4z"/>
<path class="st1" d="M98.4,274.2c-3.9,0-7-3.1-7-7s3.1-7,7-7s7,3.1,7,7C105.4,271,102.3,274.2,98.4,274.2z M98.4,261.5
	c-3.1,0-5.7,2.5-5.7,5.7s2.5,5.7,5.7,5.7c3.1,0,5.7-2.5,5.7-5.7S101.6,261.5,98.4,261.5z M108.2,277c0.3-0.3,0.3-0.7,0-0.9l-3-3
	c-0.3-0.3-0.7-0.3-0.9,0c-0.3,0.3-0.3,0.7,0,0.9l3,3c0.1,0.1,0.3,0.2,0.5,0.2S108.1,277.1,108.2,277z"/>
<path class="st1" d="M128.7,268.7l4.7-4.7c0.2-0.2,0.2-0.5,0-0.6c-0.2-0.2-0.5-0.2-0.6,0l0,0l-4.7,4.7l-4.7-4.7
	c-0.2-0.2-0.5-0.2-0.6,0c-0.2,0.2-0.2,0.5,0,0.6l4.7,4.7l-4.7,4.7c-0.2,0.2-0.2,0.5,0,0.6c0.2,0.2,0.5,0.2,0.6,0l4.7-4.7l4.7,4.7
	c0.2,0.2,0.5,0.2,0.6,0c0.2-0.2,0.2-0.5,0-0.6L128.7,268.7z"/>
<g>
	<path class="st29" d="M156.2,260.2L156.2,260.2c4.7,0,8.5,3.8,8.5,8.5l0,0c0,4.7-3.8,8.5-8.5,8.5l0,0c-4.7,0-8.5-3.8-8.5-8.5l0,0
		C147.7,264,151.5,260.2,156.2,260.2z"/>
	<path class="st5" d="M159.2,272.2c-0.1,0-0.3,0-0.4-0.1l-2.6-2.6l-2.6,2.6c-0.1,0.1-0.3,0.1-0.4,0.1c-0.1,0-0.3,0-0.4-0.1
		c-0.1-0.1-0.1-0.3-0.1-0.4s0-0.3,0.1-0.4l2.6-2.6l-2.6-2.6c-0.1-0.1-0.1-0.3-0.1-0.4s0-0.3,0.1-0.4s0.3-0.1,0.4-0.1
		c0.1,0,0.3,0,0.4,0.1l2.6,2.6l2.6-2.6c0.1-0.1,0.3-0.1,0.4-0.1c0.1,0,0.3,0,0.4,0.1s0.1,0.3,0.1,0.4s0,0.3-0.1,0.4l-2.6,2.6
		l2.6,2.6c0.1,0.1,0.1,0.3,0.1,0.4s0,0.3-0.1,0.4C159.5,272.2,159.3,272.2,159.2,272.2L159.2,272.2z"/>
</g>
<path class="st1" d="M181.3,267.2c-0.3-0.6-0.3-1.3-0.2-2s0.5-1.3,0.9-1.7c0.5-0.5,1.1-0.8,1.7-0.9c0.7-0.1,1.3-0.1,2,0.2
	c0.6,0.3,1.2,0.7,1.5,1.3c0.4,0.6,0.6,1.2,0.6,1.9c0,0.9-0.4,1.8-1,2.4s-1.5,1-2.4,1c-0.7,0-1.3-0.2-1.9-0.6
	C181.9,268.3,181.5,267.8,181.3,267.2z M191.2,273.7L191.2,273.7l-0.3,0.4c-0.8,1-1.8,1.8-2.9,2.3c-1.1,0.5-2.4,0.8-3.6,0.8l0,0
	c-0.3,0-0.5,0-0.8,0c-0.1,0-0.2,0-0.2,0c-0.2,0-0.4-0.1-0.7-0.1c-0.1,0-0.1,0-0.2,0c-0.6-0.1-1.1-0.3-1.7-0.6l0,0l0,0
	c-0.3-0.1-0.5-0.3-0.8-0.4c0,0,0,0-0.1,0c-0.3-0.2-0.6-0.4-0.8-0.6c-0.6-0.5-1.1-1-1.5-1.6v-0.1l0,0c-0.7-0.9-1.2-2-1.4-3.2
	c-0.4-1.9-0.2-3.9,0.7-5.6c0.8-1.7,2.3-3.1,4-4c1.7-0.8,3.7-1,5.6-0.6c1.9,0.4,3.6,1.5,4.7,3c1.2,1.5,1.8,3.4,1.8,5.3
	C192.9,270.6,192.3,272.3,191.2,273.7z M177.2,270.1c0.2,1,0.6,1.9,1.1,2.7c0.7-0.7,1.5-1.3,2.4-1.8c1.1-0.5,2.4-0.8,3.6-0.8
	c1.3,0,2.5,0.3,3.6,0.8c0.9,0.4,1.7,1,2.5,1.8c0,0,0,0,0-0.1c0.8-1.2,1.2-2.6,1.2-4.1c0-2-0.8-3.8-2.2-5.2c-1.4-1.4-3.3-2.2-5.2-2.2
	c-1.5,0-2.9,0.4-4.1,1.2c-1.2,0.8-2.2,2-2.7,3.3S176.9,268.7,177.2,270.1z"/>
<path class="st1" d="M218,263.4l-2.8,3.8l2.8,3.8h-9.6v4.5c0,0.2-0.1,0.4-0.2,0.5c-0.1,0.1-0.3,0.2-0.5,0.2s-0.4-0.1-0.5-0.2
	s-0.2-0.3-0.2-0.5V262c0-0.2,0.1-0.4,0.2-0.5c0.1-0.1,0.3-0.2,0.5-0.2s0.4,0.1,0.5,0.2s0.2,0.3,0.2,0.5v1.5L218,263.4L218,263.4z"/>
<path class="st15" d="M243.5,263.3v1.6H240c-0.9,0-1.7,0.3-2.3,0.9s-0.9,1.4-0.9,2.3v2.5c-0.3,0.2-0.7,0.5-0.9,0.7
	c-0.1,0.1-0.2,0.1-0.3,0.1s-0.2,0-0.3-0.1c-0.1,0-0.2-0.1-0.2-0.2c-0.1-0.1-0.1-0.2-0.1-0.3V270c-0.2,0-0.5,0-0.7-0.1
	s-0.4-0.2-0.6-0.4c-0.2-0.2-0.3-0.4-0.4-0.6s-0.1-0.5-0.1-0.7v-4.9c0-0.6,0.2-1.1,0.6-1.5c0.4-0.4,1-0.6,1.5-0.6h6
	c0.6,0,1.1,0.2,1.5,0.6C243.3,262.2,243.5,262.7,243.5,263.3L243.5,263.3z M246.1,266h-6c-0.6,0-1.1,0.2-1.5,0.6s-0.6,1-0.6,1.5v4.6
	c0,0.6,0.2,1.1,0.6,1.5c0.4,0.4,1,0.6,1.5,0.6h3.8l1.7,1.2c0.1,0.1,0.2,0.1,0.3,0.1s0.2,0,0.3-0.1c0.1,0,0.2-0.1,0.2-0.2
	c0.1-0.1,0.1-0.2,0.1-0.3v-0.8c0.5,0,1-0.2,1.3-0.5s0.5-0.8,0.5-1.3V268c0-0.6-0.2-1.1-0.6-1.5C247.2,266.2,246.7,266,246.1,266
	L246.1,266z M243.4,272h-2.7v-1h2.7V272z M245.6,269.9h-4.9v-1.1h4.9V269.9z"/>
<path class="st1" d="M266,270.5h-3.9c-0.3,0-0.6-0.1-0.8-0.3c-0.2-0.2-0.3-0.5-0.3-0.8v-2.5c0-0.3,0.1-0.6,0.3-0.8
	c0.2-0.2,0.5-0.3,0.8-0.3h3.9V270.5z M274.8,262.1c-0.1-0.1-0.3-0.2-0.5-0.2s-0.4,0-0.5,0.1l-7,3.6v5.1l7,3.6c0.3,0.1,0.7,0.1,1-0.1
	c0.1-0.1,0.3-0.2,0.3-0.4c0.1-0.2,0.1-0.3,0.1-0.5V263c0-0.2,0-0.3-0.1-0.5C275,262.4,274.9,262.2,274.8,262.1z M266.2,271.2h-2.9
	l1,3.5c0.1,0.2,0.2,0.4,0.4,0.6c0.2,0.1,0.4,0.2,0.6,0.2h0.7c0.2,0,0.3,0,0.5-0.1c0.1-0.1,0.3-0.2,0.4-0.3c0.1-0.1,0.2-0.3,0.2-0.4
	c0-0.2,0-0.3,0-0.5L266.2,271.2z M276.4,267.4c-0.1-0.2-0.3-0.3-0.5-0.4v2.4c0.2-0.1,0.4-0.2,0.5-0.4c0.1-0.2,0.2-0.4,0.2-0.6V268
	C276.6,267.8,276.6,267.5,276.4,267.4z"/>
<path class="st1" d="M296.9,268.4c1.1,0,2.1-0.4,2.9-1.2c0.8-0.8,1.2-1.8,1.2-2.9s-0.4-2.1-1.2-2.9c-0.8-0.8-1.8-1.2-2.9-1.2
	s-2.1,0.4-2.9,1.2s-1.2,1.8-1.2,2.9s0.4,2.1,1.2,2.9C294.8,268,295.8,268.4,296.9,268.4z M294.7,262.1c0.6-0.6,1.3-0.9,2.2-0.9
	c0.9,0,1.6,0.3,2.2,0.9s0.9,1.3,0.9,2.2c0,0.9-0.3,1.6-0.9,2.2s-1.3,0.9-2.2,0.9c-0.9,0-1.6-0.3-2.2-0.9s-0.9-1.3-0.9-2.2
	C293.8,263.4,294.1,262.7,294.7,262.1z M304.1,273.3c0-0.3-0.1-0.7-0.1-1.1c-0.1-0.4-0.2-0.7-0.3-1.1c-0.1-0.3-0.3-0.7-0.4-1
	c-0.2-0.3-0.4-0.6-0.7-0.9c-0.3-0.3-0.6-0.5-1-0.6s-0.8-0.2-1.2-0.2c-0.2,0-0.3,0.1-0.7,0.3c-0.2,0.1-0.4,0.3-0.7,0.4
	c-0.2,0.1-0.5,0.3-0.9,0.4s-0.7,0.2-1.1,0.2s-0.7-0.1-1.1-0.2s-0.7-0.3-0.9-0.4c-0.3-0.2-0.5-0.3-0.7-0.4c-0.3-0.2-0.5-0.3-0.7-0.3
	c-0.4,0-0.9,0.1-1.2,0.2c-0.4,0.1-0.7,0.4-1,0.6s-0.5,0.5-0.7,0.9c-0.2,0.3-0.3,0.7-0.4,1s-0.2,0.7-0.3,1.1
	c-0.1,0.4-0.1,0.7-0.1,1.1c0,0.3,0,0.7,0,1c0,0.9,0.3,1.6,0.8,2.1s1.3,0.8,2.2,0.8h8.2c0.9,0,1.6-0.3,2.2-0.8s0.8-1.2,0.8-2.1
	C304.1,273.9,304.1,273.6,304.1,273.3z M302.6,275.7c-0.4,0.3-0.8,0.5-1.5,0.5h-8.2c-0.6,0-1.1-0.2-1.5-0.5s-0.5-0.8-0.5-1.4
	c0-0.3,0-0.6,0-0.9s0.1-0.6,0.1-1c0.1-0.3,0.1-0.7,0.2-1s0.2-0.6,0.4-0.8c0.1-0.3,0.3-0.5,0.5-0.6c0.2-0.2,0.4-0.3,0.6-0.4
	s0.5-0.1,0.8-0.2c0,0,0.1,0.1,0.2,0.1c0.2,0.1,0.4,0.3,0.7,0.5c0.3,0.2,0.7,0.4,1.1,0.5c0.5,0.1,0.9,0.2,1.4,0.2s0.9-0.1,1.4-0.2
	s0.8-0.3,1.1-0.5c0.3-0.2,0.5-0.3,0.7-0.5c0.1-0.1,0.2-0.1,0.2-0.1c0.3,0,0.6,0.1,0.8,0.2c0.3,0.1,0.5,0.2,0.6,0.4
	c0.2,0.2,0.3,0.4,0.5,0.6c0.2,0.3,0.3,0.5,0.4,0.8s0.2,0.6,0.2,1c0.1,0.3,0.1,0.7,0.1,1l0,0c0,0.3,0,0.6,0,0.9
	C303.1,274.9,302.9,275.3,302.6,275.7z"/>
<path class="st8" d="M325.2,260.2c-4.7,0-8.5,3.8-8.5,8.5s3.8,8.5,8.5,8.5s8.5-3.8,8.5-8.5S329.8,260.2,325.2,260.2z M325.2,275.9
	c-4,0-7.2-3.2-7.2-7.2s3.2-7.2,7.2-7.2s7.2,3.2,7.2,7.2C332.3,272.6,329.1,275.9,325.2,275.9z M329.1,265.7c-0.3-0.2-0.7-0.2-0.9,0
	l-4,4.4l-1.9-2c-0.3-0.3-0.7-0.3-0.9,0c-0.3,0.3-0.3,0.7,0,0.9l2.4,2.5c0.1,0.1,0.3,0.2,0.5,0.2l0,0c0.2,0,0.4-0.1,0.5-0.2l4.5-4.9
	C329.3,266.4,329.3,266,329.1,265.7z"/>
<path class="st7" d="M353.3,270.8c-0.3,0-0.5-0.2-0.5-0.5v-3.7c0-0.3,0.2-0.5,0.5-0.5s0.5,0.2,0.5,0.5v3.7
	C353.8,270.6,353.6,270.8,353.3,270.8z M361.6,273.5l-6.6-11c-0.8-1.3-2.6-1.3-3.3,0l-6.6,11c-0.6,1,0.1,2.4,1.3,2.4h13.9
	C361.5,275.9,362.2,274.5,361.6,273.5L361.6,273.5z M360.2,274.8h-13.9c-0.4,0-0.6-0.4-0.4-0.8l6.6-11c0.3-0.6,1.2-0.6,1.5,0l6.6,11
	C360.9,274.4,360.6,274.8,360.2,274.8z M353.3,272.9c0.4,0,0.8-0.4,0.8-0.8s-0.4-0.8-0.8-0.8s-0.8,0.4-0.8,0.8
	C352.5,272.6,352.9,272.9,353.3,272.9z"/>
<path class="st1" d="M385.2,260.2c-0.1,0-6.4,0-6.4,0c-1.1,0-2.1,1-2.1,2.1h-0.6c-1.1,0-2,1-2,2.1V275c0,1.1,1,2.1,2.1,2.1h8
	c1.1,0,2.1-1,2.1-2.1h0.5c1.1,0,2.1-1,2.1-2.1v-8.5L385.2,260.2z M384.1,276.1h-8c-0.6,0-1.1-0.5-1.1-1.1v-10.6
	c0-0.8,0.7-1.1,1.6-1.1v9.6c0,1.1,1,2.1,2.1,2.1c0,0,5.8,0,6.4,0C385.2,275.7,384.8,276.1,384.1,276.1z M385.2,271.3h-4.8
	c-0.3,0-0.5-0.2-0.5-0.5s0.2-0.5,0.5-0.5h4.8c0.3,0,0.5,0.2,0.5,0.5S385.5,271.3,385.2,271.3z M385.2,268.7h-4.8
	c-0.3,0-0.5-0.2-0.5-0.5s0.2-0.5,0.5-0.5h4.8c0.3,0,0.5,0.2,0.5,0.5S385.5,268.7,385.2,268.7z M386.2,264.4c-0.6,0-1.1-0.5-1.1-1.1
	c0,0,0-1.1,0-2.1l0,0l2.7,3.2H386.2z"/>
<path d="M34.1,308.2l-2.2-2.2c-0.5-0.6-1.5-0.6-2.1,0l-9.8,9.9c0,0-0.1,0.1-0.1,0.2l-1.5,5.1c0,0.1,0,0.3,0.1,0.4s0.2,0.1,0.3,0.1
	h0.1l5.1-1.5c0.1,0,0.1,0,0.2-0.1l9.9-9.8c0.3-0.3,0.4-0.6,0.4-1S34.3,308.5,34.1,308.2z M28.2,308.6l1.3,1.3l-7,7l-0.5-1
	c-0.1-0.1-0.2-0.2-0.3-0.2h-0.6L28.2,308.6z M19.4,320.7l0.5-1.7l1.2,1.2L19.4,320.7z M23.6,319.5l-1.7,0.5l-1.8-1.8l0.5-1.7h1
	l0.6,1.3c0,0.1,0.1,0.1,0.2,0.2l1.3,0.6L23.6,319.5L23.6,319.5z M24.3,318.9v-0.6c0-0.1-0.1-0.3-0.2-0.3l-1-0.5l7-7l1.3,1.3
	L24.3,318.9z M33.6,309.7l-1.6,1.6l-3.2-3.2l1.6-1.6c0.3-0.3,0.8-0.3,1,0l2.2,2.2c0.1,0.1,0.2,0.3,0.2,0.5S33.7,309.6,33.6,309.7z"
	/>
<path class="st15" d="M78.6,309.1c0.3-0.3,0.3-0.8,0-1.1c-0.3-0.3-0.8-0.3-1.1,0l-5,5c-0.3,0.3-0.3,0.8,0,1.1l5,5
	c0.3,0.3,0.8,0.3,1.1,0c0.3-0.3,0.3-0.8,0-1.1l-3.7-3.7h10.4c0.4,0,0.8-0.3,0.8-0.8s-0.3-0.8-0.8-0.8H74.9L78.6,309.1z"/>
<path class="st15" d="M125.8,309.1c-0.3-0.3-0.3-0.8,0-1.1c0.3-0.3,0.8-0.3,1.1,0l5,5c0.3,0.3,0.3,0.8,0,1.1l-5,5
	c-0.3,0.3-0.8,0.3-1.1,0c-0.3-0.3-0.3-0.8,0-1.1l3.7-3.7h-10.4c-0.4,0-0.8-0.3-0.8-0.8s0.3-0.8,0.8-0.8h10.4L125.8,309.1z"/>
<path class="st4" d="M24.2,376.4h-8.7c-0.7,0-1.3,0.6-1.3,1.3v8.7c0,0.7,0.6,1.3,1.3,1.3h8.7c0.7,0,1.3-0.6,1.3-1.3v-8.7
	C25.5,376.9,24.9,376.4,24.2,376.4z M22,382v-1.5l-4.7,4.6l-0.7-0.7l4.6-4.6h-1.5v-0.9h2.5c0.3,0,0.6,0.3,0.6,0.6v2.5H22z
	 M16.7,388.9v1.2h-5v-5H13v-1.3h-1.9c-0.3,0-0.6,0.3-0.6,0.6v6.3c0,0.3,0.3,0.6,0.6,0.6h6.3c0.3,0,0.6-0.3,0.6-0.6v-1.9L16.7,388.9
	L16.7,388.9z"/>
<path class="st4" d="M87,377.2h-6c-0.5,0-1,0.1-1.5,0.3c-0.5,0.2-0.9,0.5-1.2,1l-3.9,5c-0.1,0.1-0.1,0.3-0.1,0.4s0,0.3,0.1,0.4
	l3.9,5c0.3,0.4,0.7,0.7,1.2,1c0.5,0.2,1,0.3,1.5,0.3h6c0.9,0,1.7-0.4,2.4-1c0.6-0.6,1-1.5,1-2.4v-6.7c0-0.9-0.4-1.7-1-2.4
	C88.7,377.6,87.8,377.2,87,377.2z M89,387.2c0,0.5-0.2,1-0.6,1.4s-0.9,0.6-1.4,0.6h-6c-0.3,0-0.6-0.1-0.9-0.2s-0.5-0.3-0.7-0.6
	l-3.5-4.6l3.5-4.6c0.2-0.2,0.4-0.4,0.7-0.6c0.3-0.1,0.6-0.2,0.9-0.2h6c0.5,0,1,0.2,1.4,0.6s0.6,0.9,0.6,1.4V387.2z M85.8,382.7
	l-1.2,1.2l1.2,1.2c0.1,0.1,0.1,0.1,0.1,0.2s0.1,0.2,0.1,0.3c0,0.1,0,0.2,0,0.3c0,0.1-0.1,0.2-0.1,0.2c-0.1,0.1-0.1,0.1-0.2,0.1
	s-0.2,0.1-0.3,0c-0.1,0-0.2,0-0.3-0.1c-0.1,0-0.2-0.1-0.2-0.1l-1.2-1.2l-1.2,1.2c-0.1,0.1-0.3,0.2-0.5,0.2s-0.3-0.1-0.5-0.2
	c-0.1-0.1-0.2-0.3-0.2-0.5s0.1-0.3,0.2-0.5l1.2-1.2l-1.2-1.2c-0.1-0.1-0.2-0.3-0.2-0.5s0.1-0.3,0.2-0.5c0.1-0.1,0.3-0.2,0.5-0.2
	s0.3,0.1,0.5,0.2l1.2,1.2l1.2-1.2c0.1-0.1,0.3-0.2,0.5-0.2s0.3,0.1,0.5,0.2c0.1,0.1,0.2,0.3,0.2,0.5
	C85.9,382.4,85.9,382.5,85.8,382.7z"/>
<path class="st4" d="M106.3,383.4c0.9,0,1.7-0.3,2.3-0.9c0.5-0.5,0.8-1.3,0.8-2.1c0-1.5-1.1-3-3.1-3c-0.9,0-1.7,0.3-2.3,0.9
	c-0.5,0.5-0.8,1.3-0.8,2.1C103.3,381.8,104.3,383.4,106.3,383.4z M106.3,378.8c1.1,0,1.6,0.8,1.6,1.6c0,0.4-0.1,0.8-0.4,1.1
	c-0.3,0.3-0.7,0.5-1.2,0.5c-1.1,0-1.7-0.8-1.7-1.6C104.7,379.6,105.2,378.8,106.3,378.8z M115,378.9l-9.1,10.2
	c-0.1,0.1-0.4,0.2-0.6,0.2h-1.2c-0.2,0-0.3-0.2-0.1-0.3l9.1-10.2c0.1-0.1,0.4-0.3,0.6-0.3h1.1C115.1,378.5,115.1,378.7,115,378.9z
	 M112.7,384.5c-0.9,0-1.7,0.3-2.3,0.9c-0.5,0.5-0.8,1.2-0.8,2c0,1.5,1,2.9,3,2.9c0.9,0,1.7-0.3,2.3-0.9c0.5-0.5,0.8-1.2,0.8-2
	C115.8,386,114.7,384.5,112.7,384.5z M114,388.5c-0.3,0.3-0.7,0.5-1.2,0.5c-1.1,0-1.6-0.8-1.6-1.6c0-0.4,0.1-0.8,0.4-1.1
	c0.3-0.3,0.7-0.5,1.2-0.5c1.1,0,1.6,0.8,1.6,1.6C114.3,387.9,114.2,388.2,114,388.5z"/>
<path class="st5" d="M142.3,383.9c0,0.4-0.3,0.7-0.7,0.7h-5.2h-1.3H130c-0.4,0-0.6-0.3-0.6-0.7c0-0.4,0.3-0.6,0.6-0.6h5.2h1.3h5.2
	C142,383.2,142.3,383.5,142.3,383.9z M135.8,380c0.7,0,1.3-0.6,1.3-1.3s-0.6-1.3-1.3-1.3s-1.3,0.6-1.3,1.3S135.1,380,135.8,380z
	 M135.8,387.8c-0.7,0-1.3,0.6-1.3,1.3s0.6,1.3,1.3,1.3s1.3-0.6,1.3-1.3S136.5,387.8,135.8,387.8z"/>
<path class="st5" d="M165.4,387.5c0.3,0.3,0.3,0.7,0,0.9s-0.7,0.3-0.9,0l-3.7-3.7l-3.7,3.7c-0.3,0.3-0.7,0.3-0.9,0
	c-0.3-0.3-0.3-0.7,0-0.9l3.7-3.7l-3.7-3.7c-0.3-0.3-0.3-0.7,0-0.9c0.3-0.3,0.7-0.3,0.9,0l3.7,3.7l3.7-3.7c0.3-0.3,0.7-0.3,0.9,0
	c0.3,0.3,0.3,0.7,0,0.9l-3.7,3.7L165.4,387.5z"/>
<path class="st5" d="M186.7,383.2h5.2c0.4,0,0.6,0.3,0.6,0.6c0,0.4-0.3,0.7-0.6,0.7h-5.2h-1.3h-5.2c-0.4,0-0.6-0.3-0.6-0.7
	c0-0.4,0.3-0.6,0.6-0.6h5.2H186.7z"/>
<path class="st5" d="M216.5,383.2h-5.2V378c0-0.4-0.3-0.6-0.7-0.6s-0.6,0.3-0.6,0.6v5.2h-5.2c-0.4,0-0.6,0.3-0.6,0.6
	c0,0.4,0.3,0.7,0.6,0.7h5.2v5.2c0,0.4,0.3,0.7,0.6,0.7c0.4,0,0.7-0.3,0.7-0.7v-5.2h5.2c0.4,0,0.6-0.3,0.6-0.7
	C217.1,383.5,216.8,383.2,216.5,383.2z"/>
<path class="st5" d="M246.4,386c0,0.5-0.4,0.9-0.9,0.9h-13.2c-0.5,0-0.9-0.4-0.9-0.9s0.4-0.9,0.9-0.9h13.2
	C246,385.1,246.4,385.5,246.4,386z M232.3,382.7h13.2c0.5,0,0.9-0.4,0.9-0.9s-0.4-0.9-0.9-0.9h-13.2c-0.5,0-0.9,0.4-0.9,0.9
	C231.4,382.3,231.8,382.7,232.3,382.7z"/>
<path class="st4" d="M259.9,383.9c0,1,0.8,1.7,1.8,1.7s1.8-0.7,1.8-1.7s-0.8-1.8-1.8-1.8S259.9,382.9,259.9,383.9z"/>
<path class="st4" d="M56.2,376.4H49c-0.6,0-1,0.5-1,1v7.2c0,0.6,0.5,1,1,1h7.2c0.6,0,1-0.5,1-1v-7.2
	C57.3,376.8,56.8,376.4,56.2,376.4z M52.6,382.8v0.8h-2.1c-0.3,0-0.5-0.2-0.5-0.5V381h0.8v1.3l3.8-3.8l0.5,0.5l-3.8,3.8H52.6z
	 M51.9,387.5h1.9v2.9c0,0.5-0.4,1-1,1h-9.6c-0.5,0-1-0.4-1-1v-9.6c0-0.5,0.4-1,1-1h2.9v1.9h-1.9v7.7h7.7
	C51.9,389.4,51.9,387.5,51.9,387.5z"/>
<path class="st6" d="M293.8,375.4h-9.9c-0.8,0-1.4,0.6-1.4,1.4v9.9c0,0.8,0.6,1.4,1.4,1.4h9.9c0.8,0,1.4-0.6,1.4-1.4v-9.9
	C295.2,376,294.6,375.4,293.8,375.4z M291.3,381.7V380l-5.3,5.3l-0.7-0.8l5.3-5.3h-1.7v-1.1h2.8c0.4,0,0.7,0.3,0.7,0.7v2.8
	L291.3,381.7z M285.3,389.5h1.4v2.1c0,0.4-0.3,0.7-0.7,0.7h-7.1c-0.4,0-0.7-0.3-0.7-0.7v-7.1c0-0.4,0.3-0.7,0.7-0.7h2.1v1.4h-1.4
	v5.7h5.7V389.5z"/>
<path class="st6" d="M327.5,375.4H319c-0.7,0-1.2,0.6-1.2,1.2v8.5c0,0.7,0.6,1.2,1.2,1.2h8.5c0.7,0,1.2-0.6,1.2-1.2v-8.5
	C328.8,375.9,328.2,375.4,327.5,375.4z M323.3,383.3v1h-2.8c-0.4,0-0.7-0.3-0.7-0.7v-2.8h1.1v1.7l5.2-5.2l0.7,0.7l-5.2,5.2
	L323.3,383.3z M322.7,388h2.2v3.3c0,0.6-0.5,1.1-1.1,1.1h-10.9c-0.6,0-1.1-0.5-1.1-1.1v-10.9c0-0.6,0.5-1.1,1.1-1.1h3.3v2.2H314v8.7
	h8.7V388z"/>
<path class="st4" d="M357.6,388.2c0,0.4-0.3,0.7-0.7,0.7h-5.2c-0.4,0-0.7-0.3-0.7-0.7c0-0.4,0.3-0.7,0.7-0.7h5.2
	C357.3,387.5,357.6,387.8,357.6,388.2z M347.1,383.9c0,0.4,0.3,0.7,0.7,0.7s0.7-0.3,0.7-0.7v-1.8h2c0.4,0,0.7-0.3,0.7-0.7
	c0-0.4-0.3-0.7-0.7-0.7h-2v-2.2c0-0.4-0.3-0.7-0.7-0.7c-0.4,0-0.7,0.3-0.7,0.7v2.2h-1.8c-0.4,0-0.7,0.3-0.7,0.7
	c0,0.4,0.3,0.7,0.7,0.7h1.8V383.9z M356.7,379c-0.3-0.3-0.7-0.3-1,0l-9.8,9.8c-0.3,0.3-0.3,0.7,0,1c0.1,0.1,0.3,0.2,0.5,0.2
	s0.3-0.1,0.5-0.2l9.8-9.8C357,379.6,357,379.2,356.7,379z"/>
<path class="st3" d="M389,380.9v4.6c0,2.9-2.3,5.2-5.2,5.2h-4.6c-2.9,0-5.2-2.3-5.2-5.2v-2.3c0-0.3,0.3-0.6,0.6-0.6s0.6,0.3,0.6,0.6
	v2.3c0,2.2,1.8,4,4,4h4.6c2.2,0,4-1.8,4-4v-4.6c0-2.2-1.8-4-4-4h-4.6c-1.1,0-2.1,0.4-2.8,1.1h1.1c0.3,0,0.6,0.3,0.6,0.6
	s-0.3,0.6-0.6,0.6h-2.3c-0.3,0-0.6-0.3-0.6-0.6v-2.3c0-0.3,0.3-0.6,0.6-0.6s0.6,0.3,0.6,0.6v0.7c1-0.8,2.2-1.3,3.4-1.3h4.6
	C386.6,375.7,389,378,389,380.9z M381.5,379.2c-0.3,0-0.6,0.3-0.6,0.6v3.5c0,0.2,0.1,0.3,0.2,0.4l2.3,2.3c0.2,0.2,0.6,0.2,0.8,0
	c0.2-0.2,0.2-0.6,0-0.8L382,383v-3.2C382,379.4,381.8,379.2,381.5,379.2z"/>
<path class="st30" d="M26.4,416c0,0.4-0.3,0.8-0.8,0.8h-6h-1.5h-6c-0.4,0-0.8-0.3-0.8-0.8c0-0.4,0.3-0.7,0.8-0.7h6h1.5h6
	C26.1,415.2,26.4,415.6,26.4,416z M18.9,411.5c0.8,0,1.5-0.7,1.5-1.5s-0.7-1.5-1.5-1.5s-1.5,0.7-1.5,1.5S18.1,411.5,18.9,411.5z
	 M18.9,420.5c-0.8,0-1.5,0.7-1.5,1.5s0.7,1.5,1.5,1.5s1.5-0.7,1.5-1.5S19.7,420.5,18.9,420.5z"/>
<path class="st30" d="M53.3,419.5l-4.2-4.2l4.2-4.2c0.3-0.3,0.3-0.8,0-1.1c-0.3-0.3-0.8-0.3-1.1,0l-4.2,4.2l-4.2-4.2
	c-0.3-0.3-0.8-0.3-1.1,0s-0.3,0.8,0,1.1l4.2,4.2l-4.2,4.2c-0.3,0.3-0.3,0.8,0,1.1c0.3,0.3,0.8,0.3,1.1,0l4.2-4.2l4.2,4.2
	c0.3,0.3,0.8,0.3,1.1,0C53.6,420.2,53.6,419.8,53.3,419.5z"/>
<path class="st30" d="M82,413.7h6c0.4,0,0.8,0.3,0.8,0.7c0,0.4-0.3,0.8-0.8,0.8h-6h-1.5h-6c-0.4,0-0.7-0.3-0.7-0.8
	c0-0.4,0.3-0.7,0.7-0.7h6H82z"/>
<path class="st30" d="M117.2,413.7h-6v-6c0-0.4-0.3-0.7-0.8-0.7c-0.4,0-0.7,0.3-0.7,0.7v6h-6c-0.4,0-0.7,0.3-0.7,0.7
	c0,0.4,0.3,0.8,0.7,0.8h6v6c0,0.4,0.3,0.8,0.7,0.8c0.4,0,0.8-0.3,0.8-0.8v-6h6c0.4,0,0.8-0.3,0.8-0.8
	C117.9,414.1,117.6,413.7,117.2,413.7z"/>
<path class="st5" d="M149.8,415.8c0,0.5-0.4,0.9-0.9,0.9h-13.2c-0.5,0-0.9-0.4-0.9-0.9s0.4-0.9,0.9-0.9h13.2
	C149.4,414.9,149.8,415.3,149.8,415.8z M135.7,412.5h13.2c0.5,0,0.9-0.4,0.9-0.9s-0.4-0.9-0.9-0.9h-13.2c-0.5,0-0.9,0.4-0.9,0.9
	S135.2,412.5,135.7,412.5z"/>
<path class="st5" d="M182.8,410.7l-9.9,9.9c-0.3,0.3-0.9,0.3-1.2,0s-0.3-0.9,0-1.2l9.9-9.9c0.3-0.3,0.9-0.3,1.2,0
	C183.2,409.8,183.2,410.4,182.8,410.7z M172.9,413.3c0,0.5,0.4,0.9,0.9,0.9s0.9-0.4,0.9-0.9v-2h2c0.5,0,0.9-0.4,0.9-0.9
	s-0.4-0.9-0.9-0.9h-2v-2c0-0.5-0.4-0.9-0.9-0.9s-0.9,0.4-0.9,0.9v2h-2c-0.5,0-0.9,0.4-0.9,0.9s0.4,0.9,0.9,0.9h2V413.3z
	 M184.2,418.8h-5.8c-0.5,0-0.9,0.4-0.9,0.9s0.4,0.9,0.9,0.9h5.8c0.5,0,0.9-0.4,0.9-0.9S184.7,418.8,184.2,418.8z"/>
<path class="st5" d="M216.7,406.4c-0.4-0.4-1-0.4-1.3,0l-2,2c-0.4-0.3-0.9-0.6-1.4-0.8c-0.8-0.3-1.6-0.5-2.5-0.5s-1.7,0.2-2.5,0.5
	s-1.5,0.8-2.1,1.4s-1.1,1.4-1.4,2.2c-0.3,0.8-0.5,1.6-0.5,2.4s0.2,1.7,0.5,2.4c0.2,0.5,0.5,1,0.8,1.4l-2,2c-0.4,0.4-0.4,1,0,1.3
	c0.4,0.4,1,0.4,1.3,0l2-2c0.4,0.3,0.9,0.6,1.4,0.8c0.8,0.3,1.6,0.5,2.5,0.5s1.7-0.2,2.5-0.5s1.5-0.8,2.1-1.4s1.1-1.4,1.4-2.2
	c0.3-0.8,0.5-1.6,0.5-2.4s-0.2-1.7-0.5-2.4c-0.2-0.5-0.5-1-0.8-1.4l2-2C217.1,407.4,217.1,406.8,216.7,406.4z M205.2,415.4
	c-0.2-0.6-0.3-1.2-0.3-1.8c0-0.6,0.1-1.2,0.3-1.8c0.2-0.6,0.6-1.1,1-1.5s0.9-0.8,1.5-1s1.2-0.4,1.8-0.4s1.2,0.1,1.8,0.4
	c0.3,0.1,0.5,0.3,0.8,0.4l-6.4,6.4C205.5,416,205.3,415.7,205.2,415.4z M213.8,415.4c-0.2,0.6-0.6,1.1-1,1.5s-0.9,0.8-1.5,1
	s-1.2,0.4-1.8,0.4s-1.2-0.1-1.8-0.4c-0.3-0.1-0.5-0.3-0.8-0.4l6.4-6.4c0.2,0.3,0.3,0.5,0.4,0.8c0.2,0.6,0.3,1.2,0.3,1.8
	C214.1,414.3,214,414.9,213.8,415.4z"/>
<path class="st31" d="M21.4,521.1c5.5,0,10-4.5,10-10s-4.5-10-10-10s-10,4.5-10,10S15.9,521.1,21.4,521.1z M20.7,506.8
	c0-0.4,0.3-0.8,0.8-0.8c0.4,0,0.8,0.3,0.8,0.8v3.5h3.5c0.4,0,0.8,0.3,0.8,0.8c0,0.4-0.3,0.8-0.8,0.8h-3.5v3.5c0,0.4-0.3,0.8-0.8,0.8
	c-0.4,0-0.8-0.3-0.8-0.8v-3.5h-3.5c-0.4,0-0.8-0.3-0.8-0.8c0-0.4,0.3-0.8,0.8-0.8h3.5V506.8z"/>
<path class="st32" d="M57.2,521.1c5.5,0,10-4.5,10-10s-4.5-10-10-10s-10,4.5-10,10C47.2,516.6,51.7,521.1,57.2,521.1z M52.2,511.1
	c0,0.4,0.3,0.8,0.8,0.8h8.5c0.4,0,0.8-0.3,0.8-0.8c0-0.4-0.3-0.8-0.8-0.8H53C52.5,510.3,52.2,510.7,52.2,511.1z"/>
<path class="st3" d="M89,512v-1.8c0-0.3,0.2-0.5,0.5-0.5h6.8v-3.4c0-0.4,0.5-0.7,0.9-0.4l4.4,4.4c0.4,0.4,0.4,1,0,1.4l-4.4,4.4
	c-0.3,0.3-0.9,0.1-0.9-0.4v-3.4h-6.8C89.2,512.5,89,512.3,89,512z"/>
<path class="st3" d="M132.1,508.6c1.1,0.7,2.4,1.4,3.6,1.9c0.5,0.2,0.5,0.8,0,1c-1.2,0.5-2.5,1.2-3.6,1.9c-0.5,0.3-1-0.2-0.8-0.7
	l0.2-0.5h-2.3v-2.5h2.3l-0.2-0.5C131,508.8,131.6,508.3,132.1,508.6z M120.4,509.8h0.7v2.5h-0.7V509.8z M122.4,509.8h1.7v2.5h-1.7
	V509.8z M125.4,509.8h2.5v2.5h-2.5V509.8z M128.3,514c1.1,0.7,2.4,1.4,3.6,1.9c0.5,0.2,0.5,0.8,0,1c-1.2,0.5-2.5,1.2-3.6,1.9
	c-0.5,0.3-1-0.2-0.8-0.7l0.2-0.5h-2.3v-2.5h2.3l-0.2-0.5C127.3,514.1,127.8,513.7,128.3,514z M120.4,515.2h0.7v2.5h-0.7V515.2z
	 M122.4,515.2h1.7v2.5h-1.7V515.2z M120.4,504.5h0.7v2.5h-0.7V504.5z M122.4,504.5h1.7v2.5h-1.7V504.5z M128.3,503.3
	c1.1,0.7,2.4,1.4,3.6,1.9c0.5,0.2,0.5,0.8,0,1c-1.2,0.5-2.5,1.2-3.6,1.9c-0.5,0.3-1-0.2-0.8-0.7l0.2-0.5h-2.3v-2.5h2.3l-0.2-0.5
	C127.2,503.5,127.8,503,128.3,503.3z"/>
<path class="st1" d="M161.9,507.6c0.6,0,1.2-0.5,1.2-1.2c0-0.6-0.5-1.2-1.2-1.2s-1.2,0.5-1.2,1.2S161.2,507.6,161.9,507.6z
	 M161.9,512.3c0.6,0,1.2-0.5,1.2-1.2c0-0.6-0.5-1.2-1.2-1.2s-1.2,0.5-1.2,1.2C160.7,511.7,161.2,512.3,161.9,512.3z M161.9,516.9
	c0.6,0,1.2-0.5,1.2-1.2s-0.5-1.2-1.2-1.2s-1.2,0.5-1.2,1.2S161.2,516.9,161.9,516.9z M166.6,507.6c0.6,0,1.2-0.5,1.2-1.2
	c0-0.6-0.5-1.2-1.2-1.2s-1.2,0.5-1.2,1.2C165.4,507.1,165.9,507.6,166.6,507.6z M166.6,512.3c0.6,0,1.2-0.5,1.2-1.2
	c0-0.6-0.5-1.2-1.2-1.2s-1.2,0.5-1.2,1.2C165.4,511.7,165.9,512.3,166.6,512.3z M166.6,516.9c0.6,0,1.2-0.5,1.2-1.2
	s-0.5-1.2-1.2-1.2s-1.2,0.5-1.2,1.2S165.9,516.9,166.6,516.9z"/>
<g>
	<path class="st33" d="M191.9,511.7l5.4-5.4l5.4,5.4"/>
	<g>
		<g>
			<line class="st34" x1="188.6" y1="515.8" x2="190.1" y2="515.8"/>
			<line class="st35" x1="192.9" y1="515.8" x2="203" y2="515.8"/>
			<line class="st34" x1="204.5" y1="515.8" x2="206" y2="515.8"/>
		</g>
	</g>
</g>
<path class="st6" d="M235.8,510.3l-6-4.8v9.5L235.8,510.3z"/>
<g>
	<path class="st36" d="M376.6,129.2h10c1.2,0,2.2,1,2.2,2.2v10c0,1.2-1,2.2-2.2,2.2h-10c-1.2,0-2.2-1-2.2-2.2v-10
		C374.3,130.2,375.3,129.2,376.6,129.2z"/>
	<path class="st37" d="M377.3,136.4h8.5"/>
</g>
<path class="st38" d="M273.3,507.2c1.4,0,2.5,0.6,2.5,1.3c0,0.7-1.1,1.3-2.5,1.3s-2.5-0.6-2.5-1.3S271.9,507.2,273.3,507.2z
	 M275.8,511.1c0,0.6-1.1,1.1-2.5,1.1s-2.5-0.5-2.5-1.1 M275.8,513.6c0,0.6-1.1,1.1-2.5,1.1s-2.5-0.5-2.5-1.1 M270.8,508.5v5.1
	 M275.8,508.5v5.1 M282.3,507.2c-1.4,0-2.5,0.6-2.5,1.3c0,0.7,1.1,1.3,2.5,1.3s2.5-0.6,2.5-1.3S283.7,507.2,282.3,507.2z
	 M279.9,511.1c0,0.6,1.1,1.1,2.5,1.1s2.5-0.5,2.5-1.1 M279.9,513.6c0,0.6,1.1,1.1,2.5,1.1s2.5-0.5,2.5-1.1 M284.8,508.5v5.1
	 M279.9,508.5v5.1 M273.9,505c4.3-2.2,7.9,0,7.9,0 M274.8,502.8l-0.9,2.2l2.2,0.9 M281.8,516.9c-4.3,2.2-7.9,0-7.9,0 M281,519.1
	l0.9-2.2l-2.2-0.9"/>
<g>
	<g>
		<path class="st39" d="M311.3,506.6H304c-0.6,0-1-0.4-1-1v-1.5c0-0.6,0.4-1,1-1h7.3c0.6,0,1,0.4,1,1v1.5
			C312.3,506.1,311.8,506.6,311.3,506.6z"/>
		<path class="st40" d="M308.2,505.4h-3.7c-0.2,0-0.3-0.1-0.3-0.3v-0.5c0-0.2,0.1-0.3,0.3-0.3h3.7c0.2,0,0.3,0.1,0.3,0.3v0.5
			C308.5,505.3,308.4,505.4,308.2,505.4z"/>
		<path class="st40" d="M310.5,505.4L310.5,505.4c-0.3,0-0.6-0.3-0.6-0.6l0,0c0-0.3,0.3-0.6,0.6-0.6l0,0c0.3,0,0.6,0.3,0.6,0.6l0,0
			C311,505.1,310.8,505.4,310.5,505.4z"/>
	</g>
	<g>
		<path class="st39" d="M310.3,511.9h-6.6c-0.4,0-0.8-0.3-0.8-0.8v-2c0-0.4,0.3-0.8,0.8-0.8h7.8c0.4,0,0.8,0.3,0.8,0.8v0.7"/>
		<path class="st40" d="M308.2,510.7h-3.7c-0.2,0-0.3-0.1-0.3-0.3v-0.5c0-0.2,0.1-0.3,0.3-0.3h3.7c0.2,0,0.3,0.1,0.3,0.3v0.5
			C308.5,510.6,308.4,510.7,308.2,510.7z"/>
	</g>
	<line class="st39" x1="307.6" y1="506.6" x2="307.6" y2="508.4"/>
	<g>
		<path class="st39" d="M318.5,513.5h-7.3c-0.6,0-1-0.4-1-1V511c0-0.6,0.4-1,1-1h7.3c0.6,0,1,0.4,1,1v1.5
			C319.5,513,319,513.5,318.5,513.5z"/>
		<path class="st40" d="M315.4,512.3h-3.7c-0.2,0-0.3-0.1-0.3-0.3v-0.5c0-0.2,0.1-0.3,0.3-0.3h3.7c0.2,0,0.3,0.1,0.3,0.3v0.5
			C315.7,512.2,315.6,512.3,315.4,512.3z"/>
		<path class="st40" d="M317.7,512.3L317.7,512.3c-0.3,0-0.6-0.3-0.6-0.6l0,0c0-0.3,0.3-0.6,0.6-0.6l0,0c0.3,0,0.6,0.3,0.6,0.6l0,0
			C318.3,512,318,512.3,317.7,512.3z"/>
	</g>
	<g>
		<path class="st39" d="M318.5,518.8h-7.3c-0.6,0-1-0.4-1-1v-1.5c0-0.6,0.4-1,1-1h7.3c0.6,0,1,0.4,1,1v1.5
			C319.5,518.4,319,518.8,318.5,518.8z"/>
		<path class="st40" d="M315.4,517.6h-3.7c-0.2,0-0.3-0.1-0.3-0.3v-0.5c0-0.2,0.1-0.3,0.3-0.3h3.7c0.2,0,0.3,0.1,0.3,0.3v0.5
			C315.7,517.5,315.6,517.6,315.4,517.6z"/>
		<path class="st40" d="M317.7,517.6L317.7,517.6c-0.3,0-0.6-0.3-0.6-0.6l0,0c0-0.3,0.3-0.6,0.6-0.6l0,0c0.3,0,0.6,0.3,0.6,0.6l0,0
			C318.3,517.4,318,517.6,317.7,517.6z"/>
	</g>
	<line class="st39" x1="314.8" y1="513.5" x2="314.8" y2="515.3"/>
	<g>
		<polyline class="st41" points="314.8,507.2 316,508.4 317.2,507.2 		"/>
		<polyline class="st41" points="316,507.9 316,504.8 312.3,504.8 		"/>
	</g>
	<g>
		<polyline class="st41" points="307.6,514.7 306.4,513.5 305.2,514.7 		"/>
		<polyline class="st41" points="306.4,514 306.4,517.1 310.1,517.1 		"/>
	</g>
</g>
<path class="st0" d="M203.8,554.3c-0.5,0-0.9,0.4-0.9,0.9v4.1h-4.1c-0.5,0-0.9,0.4-0.9,0.9s0.4,0.9,0.9,0.9h4.1v4.1
	c0,0.5,0.4,0.9,0.9,0.9s0.9-0.4,0.9-0.9v-4.1h4.1c0.5,0,0.9-0.4,0.9-0.9s-0.4-0.9-0.9-0.9h-4.1v-4.1
	C204.7,554.7,204.3,554.3,203.8,554.3z"/>
<path class="st1" d="M225.8,561.1c-0.5,0-0.9-0.4-0.9-0.9s0.4-0.9,0.9-0.9h9.9c0.5,0,0.9,0.4,0.9,0.9s-0.4,0.9-0.9,0.9H225.8z"/>
<path class="st3" d="M21.3,561.6h1.4v-4.2c0-0.8-0.6-1.4-1.4-1.4H17v1.4h4.2L21.3,561.6L21.3,561.6z M15.6,566.6
	c-0.2,0.2-0.6,0.3-0.9,0.1c-1.9-1.1-3.3-3-3.7-5.3c0-0.3-0.3-0.5-0.5-0.5c-0.3,0-0.6,0.3-0.5,0.6c0.6,4.1,4.1,7.2,8.4,7.2
	c0.2,0,0.3-0.2,0.1-0.4l-1.8-1.8C16.4,566.2,15.9,566.2,15.6,566.6z M18.5,551.7c-0.2,0-0.3,0.2-0.1,0.4l1.8,1.8
	c0.3,0.3,0.8,0.3,1.1,0c0.2-0.2,0.6-0.3,0.9-0.1c1.9,1.1,3.3,3,3.7,5.3c0,0.3,0.3,0.5,0.5,0.5c0.3,0,0.6-0.3,0.5-0.6
	C26.3,554.9,22.7,551.7,18.5,551.7z M15.6,554.6h-1.4v1.4h-1.4v1.4h1.4v5.7c0,0.8,0.6,1.4,1.4,1.4h5.7v1.4h1.4v-1.4h1.4v-1.4h-8.5
	C15.6,563.1,15.6,554.6,15.6,554.6z"/>
<path class="st3" d="M54.4,563.7c-0.2,0-0.3,0-0.5-0.1c-0.1-0.1-0.2-0.3-0.1-0.4c0-0.1,0-0.3,0-0.4c0-0.1,0.1-0.3,0.1-0.4l0.5-1.6
	c0-0.2,0.1-0.3,0.1-0.5s0-0.3,0-0.4c0-0.3-0.1-0.6-0.4-0.8c-0.3-0.2-0.7-0.3-1-0.3s-0.5,0-0.8,0.1s-0.6,0.2-0.9,0.3l-0.1,0.5
	c0.1,0,0.2-0.1,0.3-0.1s0.2-0.1,0.4-0.1s0.3,0,0.5,0.1c0.1,0.1,0.1,0.3,0.1,0.4c0,0.1,0,0.3,0,0.4c0,0.1-0.1,0.3-0.1,0.4l-0.5,1.6
	c0,0.1-0.1,0.3-0.1,0.4c0,0.1,0,0.3,0,0.4c0,0.3,0.1,0.6,0.4,0.8c0.3,0.2,0.7,0.3,1,0.3s0.5,0,0.8-0.1c0.2-0.1,0.5-0.2,0.9-0.3
	l0.1-0.5c-0.1,0-0.2,0.1-0.3,0.1C54.6,563.7,54.5,563.7,54.4,563.7z M54.8,556.3c-0.2-0.2-0.5-0.3-0.8-0.3s-0.6,0.1-0.8,0.3
	c-0.4,0.3-0.4,0.9-0.1,1.3l0.1,0.1c0.4,0.4,1.1,0.4,1.5,0C55.2,557.3,55.3,556.7,54.8,556.3C54.9,556.3,54.9,556.3,54.8,556.3z
	 M53.2,551.7c-4.7,0-8.5,3.8-8.5,8.5s3.8,8.5,8.5,8.5s8.5-3.8,8.5-8.5S57.9,551.7,53.2,551.7z M53.2,567.6c-4,0-7.4-3.3-7.4-7.4
	s3.3-7.4,7.4-7.4s7.4,3.3,7.4,7.4S57.3,567.6,53.2,567.6z"/>
<path class="st3" d="M93,557.4c0.1-0.3,0.1-0.6,0.1-0.9c0-2.7-2.2-4.9-4.9-4.9c-2,0-3.9,1.3-4.6,3.2c-1.2-0.5-2.7,0.1-3.2,1.4
	c0,0.1-0.1,0.2-0.1,0.3c-2,0.3-3.4,2.2-3.1,4.1c0.3,1.8,1.8,3.1,3.6,3.1h3c0.3,0,0.6-0.3,0.6-0.6s-0.3-0.6-0.6-0.6h-3
	c-1.3,0-2.4-1.1-2.4-2.4c0-1.3,1.1-2.4,2.4-2.4c0.3,0,0.6-0.3,0.6-0.6c0-0.7,0.5-1.2,1.2-1.2c0.3,0,0.6,0.1,0.8,0.3
	c0.2,0.2,0.6,0.2,0.9,0c0.1-0.1,0.1-0.2,0.2-0.3c0.3-2,2.2-3.3,4.2-3s3.3,2.2,3,4.2c0,0.1,0,0.2-0.1,0.4c-0.1,0.3,0,0.5,0.3,0.7
	c1.1,0.7,1.4,2.2,0.7,3.4c-0.4,0.7-1.2,1.1-2,1.1h-1.8c-0.3,0-0.6,0.3-0.6,0.6s0.3,0.6,0.6,0.6h1.8c2,0,3.6-1.6,3.6-3.6
	C94.3,559.1,93.8,558.1,93,557.4z M89.9,564.6c-0.2-0.2-0.6-0.2-0.8,0l-2,2v-8.9c0-0.3-0.3-0.6-0.6-0.6c-0.3,0-0.6,0.3-0.6,0.6v8.9
	l-2-2c-0.2-0.2-0.6-0.2-0.9,0c-0.2,0.2-0.2,0.6,0,0.8l3,3c0.2,0.2,0.6,0.2,0.9,0l0,0l3-3C90.1,565.3,90.1,564.9,89.9,564.6z"/>
<path class="st3" d="M123.8,555.5c-0.1-0.1-0.3-0.2-0.5-0.2h-2.1v-0.7c0-0.6-0.2-1.1-0.6-1.5s-0.9-0.6-1.5-0.6h-4.2
	c-0.6,0-1.1,0.2-1.5,0.6c-0.4,0.4-0.6,0.9-0.6,1.5v0.7h-2.1c-0.2,0-0.4,0.1-0.5,0.2c-0.1,0.1-0.2,0.3-0.2,0.5s0.1,0.4,0.2,0.5
	s0.3,0.2,0.5,0.2l0.5,8c0,0.9,0.4,1.8,1.1,2.3c0.6,0.6,1.6,1,2.4,1h4.6c0.9,0,1.8-0.4,2.4-1s1.1-1.5,1.1-2.3l0.5-8
	c0.2,0,0.4-0.1,0.5-0.2s0.2-0.3,0.2-0.5C124,555.8,123.9,555.6,123.8,555.5L123.8,555.5z M113.9,554.6c0-0.2,0.1-0.5,0.3-0.6
	s0.4-0.3,0.6-0.3h4.2c0.2,0,0.5,0.1,0.6,0.3c0.1,0.1,0.3,0.4,0.3,0.6v0.9h-6.1L113.9,554.6L113.9,554.6z M121.6,564.6
	c0,0.6-0.3,1.1-0.7,1.6c-0.4,0.4-1,0.6-1.6,0.6h-4.5c-0.6,0-1.1-0.2-1.6-0.6c-0.4-0.4-0.7-1-0.7-1.6l-0.5-8.1h10.3L121.6,564.6
	L121.6,564.6z M115.6,564.3c-0.1,0-0.3,0-0.4-0.1s-0.1-0.2-0.1-0.4v-4.2c0-0.1,0-0.3,0.1-0.4c0.1-0.1,0.2-0.1,0.4-0.1
	c0.1,0,0.3,0,0.4,0.1s0.1,0.2,0.1,0.4v4.2c0,0.1,0,0.3-0.1,0.4C115.8,564.2,115.7,564.3,115.6,564.3z M118.4,564.3
	c-0.1,0-0.3,0-0.4-0.1s-0.1-0.2-0.1-0.4v-4.2c0-0.1,0-0.3,0.1-0.4c0.1-0.1,0.2-0.1,0.4-0.1s0.3,0,0.4,0.1s0.1,0.2,0.1,0.4v4.2
	c0,0.1,0,0.3-0.1,0.4C118.7,564.2,118.5,564.3,118.4,564.3z"/>
<path class="st3" d="M147,560.2l6.2-6.2c0.2-0.2,0.2-0.6,0-0.9c-0.2-0.2-0.6-0.2-0.9,0l0,0l-6.2,6.2l-6.2-6.2
	c-0.2-0.2-0.6-0.2-0.9,0c-0.2,0.2-0.2,0.6,0,0.8l6.2,6.2l-6.2,6.2c-0.2,0.2-0.2,0.6,0,0.9c0.2,0.2,0.6,0.2,0.9,0l6.2-6.2l6.2,6.2
	c0.2,0.2,0.6,0.2,0.9,0c0.2-0.2,0.2-0.6,0-0.8L147,560.2z"/>
<path class="st5" d="M276.8,568l-3.3-3.3c1.4-1.7,2-3.8,1.9-5.9s-1.1-4.1-2.7-5.6c-1.6-1.4-3.7-2.2-5.8-2.1
	c-2.1,0.1-4.2,0.9-5.7,2.4s-2.4,3.5-2.4,5.7c-0.1,2.1,0.7,4.2,2.1,5.8s3.4,2.6,5.6,2.7c2.1,0.2,4.2-0.5,5.9-1.9l3.3,3.3
	c0.1,0.1,0.2,0.1,0.3,0.2c0.1,0,0.2,0.1,0.3,0.1c0.1,0,0.2,0,0.3-0.1c0.1,0,0.2-0.1,0.3-0.2c0.1-0.1,0.1-0.2,0.2-0.3
	c0-0.1,0.1-0.2,0.1-0.3s0-0.2-0.1-0.3C276.9,568.1,276.9,568.1,276.8,568z M267,566.1c-1.3,0-2.6-0.4-3.7-1.1c-1.1-0.7-2-1.8-2.5-3
	s-0.6-2.6-0.4-3.9c0.3-1.3,0.9-2.5,1.8-3.4s2.1-1.6,3.4-1.8c1.3-0.3,2.6-0.1,3.9,0.4s2.3,1.4,3,2.5s1.1,2.4,1.1,3.7
	c0,1.8-0.7,3.5-2,4.7C270.5,565.4,268.8,566.1,267,566.1z M269.5,558.6h-1.7v-1.7c0-0.2-0.1-0.4-0.2-0.6c-0.2-0.2-0.4-0.2-0.6-0.2
	s-0.4,0.1-0.6,0.2c-0.2,0.2-0.2,0.4-0.2,0.6v1.7h-1.7c-0.2,0-0.4,0.1-0.6,0.2c-0.2,0.2-0.2,0.4-0.2,0.6s0.1,0.4,0.2,0.6
	c0.2,0.2,0.4,0.2,0.6,0.2h1.7v1.7c0,0.2,0.1,0.4,0.2,0.6c0.2,0.2,0.4,0.2,0.6,0.2s0.4-0.1,0.6-0.2c0.2-0.2,0.2-0.4,0.2-0.6v-1.7h1.7
	c0.2,0,0.4-0.1,0.6-0.2c0.2-0.2,0.2-0.4,0.2-0.6s-0.1-0.4-0.2-0.6C269.9,558.7,269.7,558.6,269.5,558.6z"/>
<path class="st5" d="M311.8,568l-3.3-3.3c1.4-1.7,2-3.8,1.9-5.9c-0.2-2.1-1.1-4.1-2.7-5.6c-1.6-1.4-3.7-2.2-5.8-2.1
	c-2.1,0.1-4.2,0.9-5.7,2.4s-2.4,3.5-2.4,5.7c-0.1,2.1,0.7,4.2,2.1,5.8s3.4,2.6,5.6,2.7c2.1,0.2,4.2-0.5,5.9-1.9l3.3,3.3
	c0.1,0.1,0.2,0.1,0.3,0.2c0.1,0,0.2,0.1,0.3,0.1c0.1,0,0.2,0,0.3-0.1c0.1,0,0.2-0.1,0.3-0.2c0.1-0.1,0.1-0.2,0.2-0.3
	c0-0.1,0.1-0.2,0.1-0.3s0-0.2-0.1-0.3C312,568.1,311.9,568.1,311.8,568z M302.1,566.1c-1.3,0-2.6-0.4-3.7-1.1c-1.1-0.7-2-1.8-2.5-3
	s-0.6-2.6-0.4-3.9c0.3-1.3,0.9-2.5,1.8-3.4s2.1-1.6,3.4-1.8c1.3-0.3,2.6-0.1,3.9,0.4s2.3,1.4,3,2.5s1.1,2.4,1.1,3.7
	c0,1.8-0.7,3.5-2,4.7C305.5,565.4,303.8,566.1,302.1,566.1z M302.9,558.6h1.7c0.2,0,0.4,0.1,0.6,0.2c0.2,0.2,0.2,0.4,0.2,0.6
	s-0.1,0.4-0.2,0.6c-0.2,0.2-0.4,0.2-0.6,0.2h-1.7h-1.7h-1.7c-0.2,0-0.4-0.1-0.6-0.2c-0.2-0.2-0.2-0.4-0.2-0.6s0.1-0.4,0.2-0.6
	c0.2-0.2,0.4-0.2,0.6-0.2h1.7H302.9z"/>
<path class="st42" d="M366.6,594.1h-9.7c-0.3,0-0.5-0.1-0.7-0.3s-0.3-0.4-0.3-0.7s0.1-0.5,0.3-0.7c0.2-0.2,0.4-0.3,0.7-0.3h9.7
	c0.3,0,0.5,0.1,0.7,0.3s0.3,0.4,0.3,0.7s-0.1,0.5-0.3,0.7C367.1,594,366.9,594.1,366.6,594.1L366.6,594.1z M375,594.1h-2.4
	c-0.3,0-0.5-0.1-0.7-0.3s-0.3-0.4-0.3-0.7s0.1-0.5,0.3-0.7c0.2-0.2,0.4-0.3,0.7-0.3h2.4c0.3,0,0.5,0.1,0.7,0.3s0.3,0.4,0.3,0.7
	s-0.1,0.5-0.3,0.7C375.5,594,375.2,594.1,375,594.1z M375,603.2h-9.7c-0.3,0-0.5-0.1-0.7-0.3s-0.3-0.4-0.3-0.7s0.1-0.5,0.3-0.7
	c0.2-0.2,0.4-0.3,0.7-0.3h9.7c0.3,0,0.5,0.1,0.7,0.3s0.3,0.4,0.3,0.7s-0.1,0.5-0.3,0.7C375.5,603.1,375.2,603.2,375,603.2z
	 M359.4,603.2H357c-0.3,0-0.5-0.1-0.7-0.3s-0.3-0.4-0.3-0.7s0.1-0.5,0.3-0.7c0.2-0.2,0.4-0.3,0.7-0.3h2.4c0.3,0,0.5,0.1,0.7,0.3
	s0.3,0.4,0.3,0.7s-0.1,0.5-0.3,0.7C359.9,603.1,359.6,603.2,359.4,603.2z M362.3,606c-0.8,0-1.5-0.2-2.2-0.7s-1.2-1-1.5-1.8
	s-0.4-1.5-0.2-2.3c0.2-0.8,0.5-1.5,1.1-2c0.6-0.6,1.3-0.9,2-1.1c0.7-0.2,1.6-0.1,2.3,0.2c0.7,0.3,1.3,0.8,1.8,1.5
	c0.4,0.6,0.7,1.4,0.7,2.2c0,1-0.4,2-1.2,2.8C364.4,605.6,363.4,606,362.3,606z M362.3,600.1c-0.4,0-0.8,0.1-1.1,0.3
	c-0.3,0.2-0.6,0.5-0.7,0.9c-0.2,0.4-0.2,0.8-0.1,1.1c0.1,0.4,0.3,0.7,0.5,1c0.3,0.3,0.6,0.5,1,0.5c0.4,0.1,0.8,0,1.1-0.1
	c0.3-0.1,0.7-0.4,0.9-0.7c0.2-0.3,0.3-0.7,0.3-1.1c0-0.5-0.2-1-0.6-1.4C363.4,600.3,362.9,600.1,362.3,600.1z M369.6,597.1
	c-0.8,0-1.5-0.2-2.2-0.7c-0.6-0.4-1.2-1-1.5-1.8c-0.3-0.7-0.4-1.5-0.2-2.3c0.2-0.8,0.5-1.5,1.1-2c0.6-0.6,1.3-0.9,2-1.1
	c0.8-0.2,1.6-0.1,2.3,0.2c0.7,0.3,1.3,0.8,1.8,1.5c0.4,0.6,0.7,1.4,0.7,2.2c0,1-0.4,2-1.2,2.8S370.6,597.1,369.6,597.1z
	 M369.6,591.2c-0.4,0-0.8,0.1-1.1,0.3c-0.3,0.2-0.6,0.5-0.7,0.9c-0.2,0.4-0.2,0.8-0.1,1.1c0.1,0.4,0.3,0.7,0.5,1
	c0.3,0.3,0.6,0.5,1,0.5c0.4,0.1,0.8,0,1.1-0.1c0.4-0.2,0.7-0.4,0.9-0.7c0.2-0.3,0.3-0.7,0.3-1.1c0-0.5-0.2-1-0.6-1.4
	C370.6,591.4,370.1,591.2,369.6,591.2z"/>
<g>
	<path class="st43" d="M267.9,634.7h2.6"/>
	<path class="st43" d="M267.9,638.4h5.1"/>
	<path class="st3" d="M274.1,628.6v3.2h3.1"/>
	<path class="st44" d="M274.1,628.6v3.2h3.1"/>
	<path class="st3" d="M273,642.5c0-0.3,0-0.6,0.1-0.9h-6.5c-0.3,0-0.7-0.3-0.7-0.6v-11.1c0-0.3,0.3-0.6,0.7-0.6h7.1l3,2.7v5.8
		c0.4-0.1,0.9-0.2,1.3-0.2c0.1,0,0.1,0,0.2,0v-5.9c0-0.2-0.1-0.4-0.2-0.6l-3.5-3.2c-0.1-0.1-0.3-0.2-0.5-0.2h-7.4
		c-1.2,0-2.2,1-2.2,2.1v11.1c0,1.2,1,2.1,2.2,2.1h6.5C273,642.9,273,642.7,273,642.5z"/>
	<path class="st3" d="M278,638.6c-2.2,0-3.9,1.7-3.9,3.9s1.8,3.9,3.9,3.9s3.9-1.7,3.9-3.9S280.1,638.6,278,638.6z M278,645.3
		c-0.3,0-0.6-0.2-0.6-0.6c0-0.3,0.3-0.6,0.6-0.6c0.3,0,0.6,0.2,0.6,0.6C278.5,645,278.3,645.3,278,645.3z M278.7,642.5
		c0,0.4-0.3,0.7-0.7,0.7s-0.7-0.3-0.7-0.7v-2.2c0-0.4,0.3-0.7,0.7-0.7s0.7,0.3,0.7,0.7V642.5z"/>
</g>
<path class="st45" d="M317.9,638.5v3.2c0,0.4-0.2,0.9-0.5,1.2s-0.7,0.5-1.2,0.5H307c-0.4,0-0.9-0.2-1.2-0.5s-0.5-0.7-0.5-1.2v-9.2
	c0-0.4,0.2-0.9,0.5-1.2s0.7-0.5,1.2-0.5h3.2 M314.7,630.9h3.2v3.2 M312.4,636.3l5.5-5.5"/>
<path class="st45" d="M341.4,632.2c0.9-0.5,2.7-0.7,2.7-0.7c0.1-0.1,0.5-0.1,0.5-0.1c2.2-0.2,4.4,0.5,6.1,2.1
	c2.9,2.9,2.9,7.9,0,10.8c-3,3-7.9,3-10.8,0c-1.5-1.5-2.2-3.3-2.2-5.2 M344,627.6l-4.5,4.5l3.9,3.9"/>
<path class="st46" d="M372.6,642.1v-7c0-1.7,1.3-3,3-3h7"/>
<path class="st6" d="M353.1,551.2h-18v8h18V551.2z M343.1,551.2h-8v18h8V551.2z"/>
<path class="st6" d="M369.5,556.2h18v8h-18V556.2z"/>
<path class="st47" d="M22.8,686.6l-5.2,5.2l5.2,5.2 M13.5,686.5v10.7"/>
<path class="st47" d="M46.5,686.6l-5.2,5.2l5.2,5.2"/>
<path class="st47" d="M67.1,697.1l5.2-5.2l-5.2-5.2"/>
<path class="st47" d="M90.8,686.6l5.2,5.2l-5.2,5.2 M100.2,686.5v10.7"/>
<path class="st3" d="M133.5,685.3L133.5,685.3c0.4,0,0.8,0.3,0.8,0.8v11.5c0,0.4-0.3,0.8-0.8,0.8l0,0c-0.4,0-0.8-0.3-0.8-0.8v-11.5
	C132.7,685.7,133.1,685.3,133.5,685.3z M146.9,692.6h-8.1l2.8,2.7c0.8,0.8-0.4,1.9-1.2,1.1l-2.5-2.4l-1.7-1.6
	c-0.3-0.3-0.3-0.8,0-1.1l4.2-4c0.2-0.2,0.4-0.2,0.6-0.2c0.8,0,1.1,0.9,0.6,1.4l-2.8,2.7h8.1C148.1,691.1,148,692.7,146.9,692.6z"/>
<path class="st3" d="M177.6,692.6h-10.1l2.8,2.7c0.8,0.8-0.4,1.9-1.2,1.1l-2.5-2.4l-1.7-1.6c-0.3-0.3-0.3-0.8,0-1.1l4.2-4
	c0.2-0.2,0.4-0.2,0.6-0.2c0.8,0,1.1,0.9,0.6,1.4l-2.8,2.7h10.1C178.8,691.1,178.7,692.7,177.6,692.6z"/>
<path class="st3" d="M196.8,692.6h10.1l-2.8,2.7c-0.8,0.8,0.4,1.9,1.2,1.1l2.5-2.4l1.7-1.6c0.3-0.3,0.3-0.8,0-1.1l-4.2-4
	c-0.2-0.2-0.4-0.2-0.6-0.2c-0.8,0-1.1,0.9-0.6,1.4l2.8,2.7h-10.1C195.6,691.1,195.7,692.7,196.8,692.6z"/>
<path class="st3" d="M240.9,685.3L240.9,685.3c-0.4,0-0.8,0.3-0.8,0.8v11.5c0,0.4,0.3,0.8,0.8,0.8l0,0c0.4,0,0.8-0.3,0.8-0.8v-11.5
	C241.7,685.7,241.3,685.3,240.9,685.3z M227.5,692.6h8.1l-2.8,2.7c-0.8,0.8,0.4,1.9,1.2,1.1l2.5-2.4l1.7-1.6c0.3-0.3,0.3-0.8,0-1.1
	l-4.2-4c-0.2-0.2-0.4-0.2-0.6-0.2c-0.8,0-1.1,0.9-0.6,1.4l2.8,2.7h-8.1C226.3,691.1,226.4,692.7,227.5,692.6z"/>
<g>
	<path class="st48" d="M16.7,603.5v-6l-1.5,1v-1l1.7-1.1h1v7.1H16.7z M19.3,601.5c-0.2-0.6-0.2-1.2-0.2-1.8c0-1.8,0.9-3.5,2.9-3.5
		c2.2,0,2.9,2,2.9,3.8s-0.9,3.5-2.9,3.5C20.6,603.6,19.7,602.8,19.3,601.5z M22,602.6c1.6,0,1.7-1.7,1.7-3c0-1.2-0.4-2.6-1.8-2.6
		c-1.7,0-1.8,1.7-1.8,3C20.2,601.3,20.5,602.6,22,602.6z"/>
	<path class="st42" d="M10.4,596.3l0.8-3.7c0.2-0.8,1.1-1,1.7-0.5l2.9,2.6c0.6,0.5,0.4,1.5-0.4,1.7l-3.7,1
		C10.9,597.7,10.2,597.1,10.4,596.3z"/>
	<path class="st49" d="M13.5,594c1.6-1.7,4-3,6.5-3c5,0,9,4,9,9s-4,9-9,9c-4.4,0-8.1-3.2-8.9-7.4"/>
</g>
<path class="st50" d="M57.2,587.7c6.8,0,12.2,5.5,12.2,12.2s-5.5,12.2-12.2,12.2S45,606.7,45,600S50.5,587.7,57.2,587.7z
	 M54.2,594.5v11 M60.2,594.5v11"/>
<g>
	<circle class="st51" cx="94.8" cy="600" r="12.2"/>
	<path class="st42" d="M90.8,605v-10.2c0-0.8,0.9-1.3,1.6-0.8l7.3,5.1c0.6,0.4,0.6,1.2,0,1.6l-7.3,5.1
		C91.7,606.3,90.8,605.8,90.8,605z"/>
</g>
<g>
	<path class="st48" d="M128.4,603.5v-6l-1.5,1v-1l1.7-1.1h1v7.1H128.4z M131,601.5c-0.2-0.6-0.2-1.2-0.2-1.8c0-1.8,0.9-3.5,2.9-3.5
		c2.2,0,2.9,2,2.9,3.8s-0.9,3.5-2.9,3.5C132.4,603.6,131.4,602.8,131,601.5z M133.8,602.6c1.6,0,1.7-1.7,1.7-3
		c0-1.2-0.4-2.6-1.8-2.6c-1.7,0-1.8,1.7-1.8,3S132.3,602.6,133.8,602.6z"/>
	<path class="st42" d="M141.6,596.3l-0.8-3.7c-0.2-0.8-1.1-1-1.7-0.5l-2.9,2.6c-0.6,0.5-0.4,1.5,0.4,1.7l3.7,1
		C141.1,597.7,141.7,597.1,141.6,596.3z"/>
	<path class="st49" d="M138.4,594c-1.6-1.7-4-3-6.5-3c-5,0-9,4-9,9s4,9,9,9c4.4,0,8.1-3.2,8.9-7.4"/>
</g>
<path class="st42" d="M171.6,605.8c0,0.4-0.2,0.7-0.5,0.8c-0.1,0.1-0.3,0.1-0.4,0.1c-0.2,0-0.4-0.1-0.6-0.2l-5-4.1h-2.6
	c-0.5,0-0.9-0.4-0.9-0.9v-3.6c0-0.5,0.4-0.9,0.9-0.9h2.6l5-4.1c0.3-0.2,0.6-0.3,1-0.1c0.3,0.1,0.5,0.5,0.5,0.8V605.8z M175.1,604.4
	C175,604.4,175,604.4,175.1,604.4c-0.3,0-0.5-0.1-0.7-0.3l-0.1-0.1c-0.3-0.3-0.4-0.8-0.1-1.2c0.7-0.9,1-2,1-3.1
	c0-1.2-0.4-2.4-1.2-3.3c-0.3-0.4-0.3-0.9,0.1-1.2l0.1-0.1c0.2-0.2,0.4-0.3,0.7-0.3s0.5,0.1,0.7,0.3c1.1,1.3,1.6,2.9,1.6,4.6
	c0,1.6-0.5,3.1-1.4,4.4C175.6,604.2,175.3,604.4,175.1,604.4z M178.8,607.2c-0.2,0.2-0.4,0.3-0.7,0.3l0,0c-0.2,0-0.5-0.1-0.6-0.3
	l-0.1-0.1c-0.3-0.3-0.4-0.9-0.1-1.2c1.5-1.7,2.3-4,2.3-6.2c0-2.4-0.9-4.6-2.4-6.4c-0.3-0.4-0.3-0.9,0-1.2l0.1-0.1
	c0.2-0.2,0.4-0.3,0.7-0.3c0.2,0,0.5,0.1,0.7,0.3c1.9,2.1,2.9,4.9,2.9,7.7C181.6,602.4,180.6,605.1,178.8,607.2z"/>
<path class="st42" d="M206.7,606c0,0.4-0.2,0.7-0.5,0.8c-0.1,0.1-0.3,0.1-0.4,0.1c-0.2,0-0.4-0.1-0.6-0.2l-5-4.1h-2.6
	c-0.5,0-0.9-0.4-0.9-0.9v-3.6c0-0.5,0.4-0.9,0.9-0.9h2.6l5-4.1c0.3-0.2,0.6-0.3,1-0.1c0.3,0.1,0.5,0.5,0.5,0.8V606z M210.2,604.6
	L210.2,604.6c-0.3,0-0.5-0.1-0.7-0.3l-0.1-0.1c-0.3-0.3-0.4-0.8-0.1-1.2c0.7-0.9,1-2,1-3.1c0-1.2-0.4-2.4-1.2-3.3
	c-0.3-0.4-0.3-0.9,0.1-1.2l0.1-0.1c0.2-0.2,0.4-0.3,0.7-0.3s0.5,0.1,0.7,0.3c1.1,1.3,1.6,2.9,1.6,4.6c0,1.6-0.5,3.1-1.4,4.4
	C210.7,604.4,210.5,604.6,210.2,604.6z"/>
<path class="st42" d="M238.8,605.7c0,0.4-0.2,0.7-0.5,0.8c-0.1,0.1-0.3,0.1-0.4,0.1c-0.2,0-0.4-0.1-0.6-0.2l-5-4.1h-2.6
	c-0.5,0-0.9-0.4-0.9-0.9v-3.6c0-0.5,0.4-0.9,0.9-0.9h2.6l5-4.1c0.3-0.2,0.6-0.3,1-0.1c0.3,0.1,0.5,0.5,0.5,0.8V605.7z M240.8,602.5
	v-6c0,0,2,0,2,3S240.8,602.5,240.8,602.5z"/>
<path class="st42" d="M256.8,590.3L256.8,590.3c0.3-0.3,0.8-0.3,1.1,0l17.5,17.5c0.3,0.3,0.3,0.8,0,1.1l0,0c-0.3,0.3-0.8,0.3-1.1,0
	l-17.5-17.5C256.5,591.1,256.5,590.6,256.8,590.3z M259.8,596.5h-0.7c-0.6,0-1,0.5-1,1v4.1c0,0.6,0.5,1,1,1h3l5.7,4.7
	c0.2,0.2,0.4,0.2,0.7,0.2c0.1,0,0.3,0,0.4-0.1c0.4-0.2,0.6-0.5,0.6-0.9v-0.4L259.8,596.5z M272.4,602.7l-0.6-0.6V596
	c0,0,2.3,0,2.3,3.4C274.1,601.7,273.1,602.5,272.4,602.7z M269.5,599.8l-5.2-5.2l3.5-2.9c0.3-0.3,0.7-0.3,1.1-0.1s0.6,0.5,0.6,0.9
	V599.8z"/>
<g>
	<path class="st49" d="M299.7,607.1h-6c-0.6,0-1-0.4-1-1v-13c0-0.6,0.4-1,1-1h16c0.6,0,1,0.4,1,1v4.7"/>
	<path class="st42" d="M302.4,601.8c0-0.6,0.4-1,1-1h7c0.6,0,1,0.4,1,1v5c0,0.6-0.4,1-1,1h-7c-0.6,0-1-0.4-1-1V601.8z"/>
</g>
<g>
	<path class="st49" d="M343.2,600.5v7c0,0.6-0.4,1-1,1h-15c-0.6,0-1-0.4-1-1v-15c0-0.6,0.4-1,1-1h6.7"/>
	<path class="st42" d="M343.2,590.7h-4.8c-0.9,0-1.3,1.1-0.7,1.7l4.6,4.6c0.6,0.6,1.7,0.2,1.7-0.7v-4.8
		C344,591,343.6,590.7,343.2,590.7z"/>
	<path class="st52" d="M334.2,600.5l9-9"/>
</g>
<path class="st42" d="M27.5,629.3c0-0.2-0.1-0.4-0.2-0.5s-0.3-0.2-0.5-0.2h-4.1c-0.2,0-0.4,0.1-0.5,0.2c-0.1,0.1-0.2,0.3-0.2,0.5
	v0.5c0,0.2,0.1,0.4,0.2,0.5s0.3,0.2,0.5,0.2h1.6l-2.9,2.9l0,0c-0.2,0.3-0.2,0.7,0,0.9l0.4,0.4c0.3,0.3,0.7,0.3,1,0l0.3-0.3l0,0
	l2.5-2.5v1.6c0,0.2,0.1,0.4,0.2,0.5s0.3,0.2,0.5,0.2h0.5c0.4,0,0.7-0.3,0.7-0.7V629.3z M27.5,644.9c0,0.2-0.1,0.4-0.2,0.5
	s-0.3,0.2-0.5,0.2h-4.1c-0.2,0-0.4-0.1-0.5-0.2c-0.1-0.1-0.2-0.3-0.2-0.5v-0.5c0-0.2,0.1-0.4,0.2-0.5s0.3-0.2,0.5-0.2h1.6l-2.9-2.9
	l0,0c-0.2-0.3-0.2-0.7,0-0.9l0.4-0.4c0.3-0.3,0.7-0.3,1,0l0.3,0.3l0,0l2.5,2.5v-1.6c0-0.2,0.1-0.4,0.2-0.5s0.3-0.2,0.5-0.2h0.5
	c0.4,0,0.7,0.3,0.7,0.7V644.9z M10.5,629.3c0-0.2,0.1-0.4,0.2-0.5c0.1-0.1,0.3-0.2,0.5-0.2h4.1c0.2,0,0.4,0.1,0.5,0.2
	c0.1,0.1,0.2,0.3,0.2,0.5v0.5c0,0.2-0.1,0.4-0.2,0.5c-0.1,0.1-0.3,0.2-0.5,0.2h-1.6l2.9,2.9l0,0c0.2,0.3,0.2,0.7,0,0.9l-0.4,0.4
	c-0.3,0.3-0.7,0.3-1,0l-0.3-0.3l0,0l-2.5-2.5v1.6c0,0.2-0.1,0.4-0.2,0.5c-0.1,0.1-0.3,0.2-0.5,0.2h-0.5c-0.4,0-0.7-0.3-0.7-0.7
	L10.5,629.3z M10.5,644.9c0,0.2,0.1,0.4,0.2,0.5c0.1,0.1,0.3,0.2,0.5,0.2h4.1c0.2,0,0.4-0.1,0.5-0.2c0.1-0.1,0.2-0.3,0.2-0.5v-0.5
	c0-0.2-0.1-0.4-0.2-0.5c-0.1-0.1-0.3-0.2-0.5-0.2h-1.6l2.9-2.9l0,0c0.2-0.3,0.2-0.7,0-0.9l-0.4-0.4c-0.3-0.3-0.7-0.3-1,0l-0.3,0.3
	l0,0l-2.5,2.5v-1.6c0-0.2-0.1-0.4-0.2-0.5c-0.1-0.1-0.3-0.2-0.5-0.2h-0.5c-0.4,0-0.7,0.3-0.7,0.7L10.5,644.9z M20.5,635.6
	c-0.8-0.8-2.1-0.8-2.9,0s-0.8,2.1,0,2.9c0.8,0.8,2.1,0.8,2.9,0S21.3,636.4,20.5,635.6z"/>
<path class="st42" d="M53,634.2c0,0.2,0.1,0.4,0.2,0.5c0.1,0.1,0.3,0.2,0.5,0.2h4.1c0.2,0,0.4-0.1,0.5-0.2c0.1-0.1,0.2-0.3,0.2-0.5
	v-0.5c0-0.2-0.1-0.4-0.2-0.5c-0.1-0.1-0.3-0.2-0.5-0.2h-1.6l2.9-2.9l0,0c0.2-0.3,0.2-0.7,0-0.9l-0.4-0.4c-0.3-0.3-0.7-0.3-1,0
	l-0.3,0.3l0,0l-2.5,2.5V630c0-0.2-0.1-0.4-0.2-0.5c-0.1-0.1-0.3-0.2-0.5-0.2h-0.5c-0.4,0-0.7,0.3-0.7,0.7V634.2z M53,640
	c0-0.2,0.1-0.4,0.2-0.5c0.1-0.1,0.3-0.2,0.5-0.2h4.1c0.2,0,0.4,0.1,0.5,0.2c0.1,0.1,0.2,0.3,0.2,0.5v0.5c0,0.2-0.1,0.4-0.2,0.5
	c-0.1,0.1-0.3,0.2-0.5,0.2h-1.6l2.9,2.9l0,0c0.2,0.3,0.2,0.7,0,0.9l-0.4,0.4c-0.3,0.3-0.7,0.3-1,0l-0.3-0.3l0,0l-2.5-2.5v1.6
	c0,0.2-0.1,0.4-0.2,0.5c-0.1,0.1-0.3,0.2-0.5,0.2h-0.5c-0.4,0-0.7-0.3-0.7-0.7V640z M48.6,634.2c0,0.2-0.1,0.4-0.2,0.5
	c-0.1,0.1-0.3,0.2-0.5,0.2h-4.1c-0.2,0-0.4-0.1-0.5-0.2c-0.1-0.1-0.2-0.3-0.2-0.5v-0.5c0-0.2,0.1-0.4,0.2-0.5
	c0.1-0.1,0.3-0.2,0.5-0.2h1.6l-2.9-2.9l0,0c-0.2-0.3-0.2-0.7,0-0.9l0.4-0.4c0.3-0.3,0.7-0.3,1,0l0.3,0.3l0,0l2.5,2.5V630
	c0-0.2,0.1-0.4,0.2-0.5c0.1-0.1,0.3-0.2,0.5-0.2h0.5c0.4,0,0.7,0.3,0.7,0.7V634.2z M48.6,640c0-0.2-0.1-0.4-0.2-0.5
	c-0.1-0.1-0.3-0.2-0.5-0.2h-4.1c-0.2,0-0.4,0.1-0.5,0.2c-0.1,0.1-0.2,0.3-0.2,0.5v0.5c0,0.2,0.1,0.4,0.2,0.5
	c0.1,0.1,0.3,0.2,0.5,0.2h1.6l-2.9,2.9l0,0c-0.2,0.3-0.2,0.7,0,0.9l0.4,0.4c0.3,0.3,0.7,0.3,1,0l0.3-0.3l0,0l2.5-2.5v1.6
	c0,0.2,0.1,0.4,0.2,0.5c0.1,0.1,0.3,0.2,0.5,0.2h0.5c0.4,0,0.7-0.3,0.7-0.7V640z M52.2,635.7c-0.8-0.8-2.1-0.8-2.9,0
	c-0.8,0.8-0.8,2.1,0,2.9c0.8,0.8,2.1,0.8,2.9,0C53,637.7,53,636.4,52.2,635.7z"/>
<g>
	<path class="st53" d="M78.8,643.1h7.9"/>
	<rect x="80.5" y="631" class="st3" width="4.4" height="5.3"/>
	<path class="st3" d="M82.6,641.3l-5.6-5.6h5.6h5.6L82.6,641.3z"/>
</g>
<g>
	<g>
		<path class="st3" d="M112.7,634v6.2c0,0.4,0.5,0.7,0.8,0.4l3.7-3.1c0.2-0.2,0.2-0.6,0-0.8l-3.7-3.1
			C113.2,633.3,112.7,633.6,112.7,634z"/>
		<path class="st54" d="M114.3,643.7c-3.7,0-6.6-3-6.6-6.6s3-6.6,6.6-6.6"/>
		<path class="st55" d="M114.3,643.7c3.7,0,6.6-3,6.6-6.6s-3-6.6-6.6-6.6"/>
	</g>
</g>
<g>
	<path class="st56" d="M144.2,642.4h-4.1c-0.6,0-1-0.4-1-1v-9.2c0-0.6,0.4-1,1-1h11.2c0.6,0,1,0.4,1,1v3.3"/>
	<path class="st3" d="M146.3,638.7c0-0.6,0.4-1,1-1h4.8c0.6,0,1,0.4,1,1v3.2c0,0.6-0.4,1-1,1h-4.8c-0.6,0-1-0.4-1-1V638.7z"/>
</g>
<path class="st15" d="M177.4,632.9c0.3-0.3,0.3-0.8,0-1.1s-0.8-0.3-1.1,0l-4.7,4.7c-0.3,0.3-0.3,0.8,0,1.1l4.7,4.7
	c0.3,0.3,0.8,0.3,1.1,0s0.3-0.8,0-1.1l-3.5-3.5h9.7c0.4,0,0.7-0.3,0.7-0.7s-0.3-0.7-0.7-0.7h-9.7L177.4,632.9z"/>
<path class="st15" d="M207.1,641.6l5-4.5l-5-4.5"/>
<path class="st3" d="M239.6,641.1c-0.1,0-0.2,0-0.3-0.1c-0.1,0-0.2-0.1-0.3-0.2l-2.9-2.9c-0.1-0.1-0.1-0.2-0.2-0.3
	c0-0.1-0.1-0.2-0.1-0.3c0-0.2,0.1-0.4,0.2-0.6c0.2-0.2,0.4-0.2,0.6-0.2s0.4,0.1,0.6,0.2l2.3,2.3l5.8-5.8c0.2-0.2,0.4-0.2,0.6-0.2
	c0.2,0,0.4,0.1,0.6,0.2c0.2,0.2,0.2,0.4,0.2,0.6c0,0.2-0.1,0.4-0.2,0.6l-6.4,6.3c-0.1,0.1-0.2,0.1-0.3,0.2
	C239.8,641.1,239.7,641.1,239.6,641.1L239.6,641.1z"/>
<path class="st57" d="M12.6,222h10c1.1,0,2,0.9,2,2v10c0,1.1-0.9,2-2,2h-10c-1.1,0-2-0.9-2-2v-10C10.6,222.9,11.5,222,12.6,222z"/>
<path class="st58" d="M45.5,222h10c1.1,0,2,0.9,2,2v10c0,1.1-0.9,2-2,2h-10c-1.1,0-2-0.9-2-2v-10C43.5,222.9,44.3,222,45.5,222z"/>
<path class="st59" d="M78.3,222h10c1.1,0,2,0.9,2,2v10c0,1.1-0.9,2-2,2h-10c-1.1,0-2-0.9-2-2v-10C76.3,222.9,77.2,222,78.3,222z"/>
<g>
	<path class="st60" d="M111.2,222h10c1.1,0,2,0.9,2,2v10c0,1.1-0.9,2-2,2h-10c-1.1,0-2-0.9-2-2v-10C109.2,222.9,110.1,222,111.2,222
		z"/>
	<path class="st6" d="M113.2,225h6c0.6,0,1,0.4,1,1v6c0,0.6-0.4,1-1,1h-6c-0.6,0-1-0.4-1-1v-6C112.2,225.4,112.6,225,113.2,225z"/>
</g>
<g>
	<path class="st60" d="M144,222h10c1.1,0,2,0.9,2,2v10c0,1.1-0.9,2-2,2h-10c-1.1,0-2-0.9-2-2v-10C142,222.9,142.9,222,144,222z"/>
	<path class="st6" d="M145.5,228h7c0.3,0,0.5,0.2,0.5,0.5v1c0,0.3-0.2,0.5-0.5,0.5h-7c-0.3,0-0.5-0.2-0.5-0.5v-1
		C145,228.2,145.2,228,145.5,228z"/>
</g>
<path class="st57" d="M181.9,222L181.9,222c3.9,0,7,3.1,7,7l0,0c0,3.9-3.1,7-7,7l0,0c-3.9,0-7-3.1-7-7l0,0
	C174.9,225.1,178,222,181.9,222z"/>
<path class="st58" d="M214.7,222L214.7,222c3.9,0,7,3.1,7,7l0,0c0,3.9-3.1,7-7,7l0,0c-3.9,0-7-3.1-7-7l0,0
	C207.7,225.1,210.9,222,214.7,222z"/>
<path class="st59" d="M247.6,222L247.6,222c3.9,0,7,3.1,7,7l0,0c0,3.9-3.1,7-7,7l0,0c-3.9,0-7-3.1-7-7l0,0
	C240.6,225.1,243.7,222,247.6,222z"/>
<path class="st61" d="M280.5,223L280.5,223c3.3,0,6,2.7,6,6l0,0c0,3.3-2.7,6-6,6l0,0c-3.3,0-6-2.7-6-6l0,0
	C274.5,225.7,277.1,223,280.5,223z"/>
<path id="Date_x5F_Picker" class="st33" d="M23.9,456.7H13.8c-0.8,0-1.4,0.6-1.4,1.4v10.1c0,0.8,0.6,1.4,1.4,1.4h10.1
	c0.8,0,1.4-0.6,1.4-1.4v-10.1C25.4,457.4,24.7,456.7,23.9,456.7z M22.1,455.6v1.7 M15.6,455.6v1.7 M12.4,460h13"/>
<path class="st7" d="M119.9,455.7c-4.1,0-7.5,3.4-7.5,7.5s3.4,7.5,7.5,7.5s7.5-3.4,7.5-7.5S124,455.7,119.9,455.7z M121.5,467.3
	c-0.4,0.2-0.7,0.3-0.9,0.3c-0.2,0.1-0.5,0.1-0.8,0.1c-0.5,0-0.8-0.1-1.1-0.3c-0.3-0.2-0.4-0.5-0.4-0.9c0-0.1,0-0.3,0-0.4
	s0.1-0.3,0.1-0.5l0.5-1.7c0-0.2,0.1-0.3,0.1-0.5c0-0.1,0-0.3,0-0.4c0-0.2,0-0.4-0.1-0.5s-0.3-0.1-0.5-0.1c-0.1,0-0.3,0-0.4,0.1
	c-0.1,0-0.2,0.1-0.3,0.1l0.1-0.5c0.3-0.1,0.6-0.2,0.9-0.3c0.3-0.1,0.6-0.1,0.8-0.1c0.5,0,0.8,0.1,1.1,0.3c0.3,0.2,0.4,0.5,0.4,0.9
	c0,0.1,0,0.2,0,0.4c0,0.2,0,0.4-0.1,0.5l-0.5,1.7c0,0.1-0.1,0.3-0.1,0.5s0,0.3,0,0.4c0,0.2,0.1,0.4,0.2,0.5s0.3,0.1,0.5,0.1
	c0.1,0,0.2,0,0.4-0.1c0.1,0,0.3-0.1,0.3-0.1L121.5,467.3z M121.4,460.4c-0.2,0.2-0.5,0.3-0.8,0.3s-0.6-0.1-0.8-0.3
	c-0.2-0.2-0.3-0.5-0.3-0.8s0.1-0.5,0.3-0.8c0.2-0.2,0.5-0.3,0.8-0.3s0.6,0.1,0.8,0.3c0.2,0.2,0.3,0.5,0.3,0.8
	C121.7,460,121.6,460.2,121.4,460.4z"/>
<g id="Multi-select">
	<g>
		<circle class="st6" cx="151.6" cy="463.8" r="8.5"/>
	</g>
	<path class="st5" d="M150.1,467.3c-0.1,0-0.2,0-0.3-0.1c-0.1,0-0.2-0.1-0.2-0.2l-2.4-2.5c-0.1-0.1-0.1-0.1-0.1-0.2
		s-0.1-0.2-0.1-0.3c0-0.2,0.1-0.4,0.2-0.5s0.3-0.2,0.5-0.2s0.4,0.1,0.5,0.2l1.9,2l4.8-5c0.1-0.1,0.3-0.2,0.5-0.2s0.4,0.1,0.5,0.2
		s0.2,0.3,0.2,0.5s-0.1,0.4-0.2,0.5l-5.3,5.6c-0.1,0.1-0.1,0.1-0.2,0.2C150.3,467.3,150.2,467.3,150.1,467.3z"/>
</g>
<g id="Date-Time_x5F_Picker_00000072263187319800864730000013777911781723497386_">
	<path class="st33" d="M86.8,455v1.6"/>
	<path class="st33" d="M80.6,455v1.6"/>
	<path class="st33" d="M77.5,459.2H90"/>
	<path class="st15" d="M78.2,457.5c0-0.4,0.3-0.6,0.6-0.6h9.7c0.4,0,0.6,0.3,0.6,0.6v2.4c0.5,0.2,1,0.4,1.5,0.7v-0.7v-2.4
		c0-1.2-1-2.1-2.1-2.1h-9.7c-1.2,0-2.1,1-2.1,2.1v9.7c0,1.2,1,2.1,2.1,2.1h3.8h0.1c-0.4-0.5-0.6-1-0.9-1.5h-3
		c-0.4,0-0.6-0.3-0.6-0.6V457.5z M83,467.8c0.1,0.3,0.3,0.5,0.4,0.7v-0.7H83z"/>
	<path class="st55" d="M87.5,461.4c-2.3,0-4.2,1.9-4.2,4.2s1.9,4.2,4.2,4.2c2.3,0,4.2-1.9,4.2-4.2S89.8,461.4,87.5,461.4z"/>
	<path class="st33" d="M87.3,464.4v1.5l1.6,1"/>
</g>
<path id="Time_x5F_Picker_00000127012084562973650130000015727950552692275867_" class="st56" d="M51.5,455.3
	c-4.1,0-7.4,3.3-7.4,7.4s3.3,7.4,7.4,7.4s7.4-3.3,7.4-7.4C58.9,458.6,55.6,455.3,51.5,455.3z M51,459.7v3.5l3.5,2.5"/>
<path class="st62" d="M189.9,310.8l-11.4-11.5c-0.1-0.1-0.3-0.2-0.4-0.2h-13c-3,0-5.5,2.5-5.5,5.5v10.8h-4.8c-0.9,0-1.7,0.8-1.7,1.7
	v9.7c0,0.9,0.8,1.7,1.7,1.7h4.8v4.7c0,3,2.5,5.5,5.5,5.5h19.5c3,0,5.5-2.5,5.5-5.5v-22C190.1,311,190,310.9,189.9,310.8z
	 M178.6,301.2l9.3,9.3h-8.7c-0.3,0-0.6-0.3-0.6-0.6V301.2z M188.9,333.2c0,2.3-1.9,4.2-4.2,4.2h-19.6c-2.3,0-4.2-1.9-4.2-4.2v-4.7
	h20.3c0.9,0,1.7-0.8,1.7-1.7v-9.7c0-0.9-0.8-1.7-1.7-1.7h-20.4v-10.8c0-2.3,1.9-4.2,4.2-4.2h12.4v9.6c0,1,0.8,1.9,1.9,1.9h9.6V333.2
	z"/>
<path id="Reset" class="st63" d="M315.3,691.3c0,6.3-5.1,11.3-11.3,11.3c-6.3,0-11.3-5.1-11.3-11.3c0-6.3,5.1-11.3,11.3-11.3
	c3.3,0,6.3,1.4,8.4,3.7 M312.3,679.5l1.1,5.3c0,0.1,0,0.1-0.1,0.1l-5.1-0.6 M307.5,688l-7.2,7.2 M307.5,695.3l-7.2-7.2"/>
<g id="Stop-Rec">
	<path class="st64" d="M338.7,444.1L338.7,444.1c11.2,0,20.2,9.1,20.2,20.2l0,0c0,11.2-9.1,20.2-20.2,20.2l0,0
		c-11.2,0-20.2-9.1-20.2-20.2l0,0C318.5,453.2,327.5,444.1,338.7,444.1z"/>
	<path class="st7" d="M333.7,456.4h10c1.7,0,3,1.3,3,3v10c0,1.7-1.3,3-3,3h-10c-1.7,0-3-1.3-3-3v-10
		C330.7,457.7,332,456.4,333.7,456.4z"/>
	<path class="st65" d="M338.7,444.1L338.7,444.1c11.2,0,20.2,9.1,20.2,20.2l0,0c0,11.2-9.1,20.2-20.2,20.2l0,0
		c-11.2,0-20.2-9.1-20.2-20.2l0,0C318.5,453.2,327.5,444.1,338.7,444.1z"/>
</g>
<g id="Resume">
	<circle class="st66" cx="338.3" cy="691.1" r="12.2"/>
	<path class="st67" d="M333.8,685.8v10.5"/>
	<path class="st6" d="M337.3,695.6v-9.1c0-0.8,0.9-1.3,1.6-0.8l6.3,4.5c0.6,0.4,0.6,1.2,0,1.6l-6.3,4.5
		C338.2,696.9,337.3,696.5,337.3,695.6z"/>
</g>
<g id="Cancel">
	<path class="st68" d="M186,474.2c-6.1,0-11-4.9-11-11s4.9-11,11-11s11,4.9,11,11C197,469.3,192.1,474.2,186,474.2z"/>
	<path class="st47" d="M190.5,458.7l-9,9"/>
	<path class="st47" d="M181.5,458.7l9,9"/>
</g>
<g id="Play">
	<path class="st69" d="M233.2,442.9L233.2,442.9c11.2,0,20.2,9.1,20.2,20.2l0,0c0,11.2-9.1,20.2-20.2,20.2l0,0
		c-11.2,0-20.2-9.1-20.2-20.2l0,0C212.9,452,222,442.9,233.2,442.9z"/>
	<path class="st6" d="M228.2,470.2V456c0-1.2,1.4-1.9,2.4-1.2l9.9,7.1c0.8,0.6,0.8,1.8,0,2.4l-9.9,7.1
		C229.6,472.2,228.2,471.5,228.2,470.2z"/>
	<path class="st36" d="M233.2,442.9L233.2,442.9c11.2,0,20.2,9.1,20.2,20.2l0,0c0,11.2-9.1,20.2-20.2,20.2l0,0
		c-11.2,0-20.2-9.1-20.2-20.2l0,0C212.9,452,222,442.9,233.2,442.9z"/>
</g>
<g id="Pause">
	<path class="st69" d="M284.9,443L284.9,443c11.2,0,20.2,9.1,20.2,20.2l0,0c0,11.2-9.1,20.2-20.2,20.2l0,0
		c-11.2,0-20.2-9.1-20.2-20.2l0,0C264.6,452,273.7,443,284.9,443z"/>
	<path class="st70" d="M280.2,454.6v17.2"/>
	<path class="st70" d="M289.6,454.6v17.2"/>
	<path class="st36" d="M284.9,443L284.9,443c11.2,0,20.2,9.1,20.2,20.2l0,0c0,11.2-9.1,20.2-20.2,20.2l0,0
		c-11.2,0-20.2-9.1-20.2-20.2l0,0C264.6,452,273.7,443,284.9,443z"/>
</g>
<g>
	<path class="st71" d="M369.1,686.1h7c0.8,0,1.5,0.7,1.5,1.5v7c0,0.8-0.7,1.5-1.5,1.5h-7c-0.8,0-1.5-0.7-1.5-1.5v-7
		C367.6,686.8,368.3,686.1,369.1,686.1z"/>
	<path class="st72" d="M372.6,678.8L372.6,678.8c6.8,0,12.2,5.5,12.2,12.2l0,0c0,6.8-5.5,12.2-12.2,12.2l0,0
		c-6.8,0-12.2-5.5-12.2-12.2l0,0C360.4,684.3,365.8,678.8,372.6,678.8z"/>
</g>
<path class="st3" d="M180.3,552.7l0.2-0.2c0.2-0.2,0.2-0.5,0-0.7s-0.5-0.2-0.7,0l-1.1,1.1c-0.1,0.1-0.1,0.2-0.1,0.4s0.1,0.3,0.1,0.4
	l1.1,1.1c0.2,0.2,0.5,0.2,0.7,0s0.2-0.5,0-0.7l-0.2-0.2c1.7,0.1,3.1,1.5,3.1,3.2c0,0.3,0.2,0.5,0.5,0.5s0.5-0.2,0.5-0.5
	C184.4,554.7,182.6,552.8,180.3,552.7z M180.2,556.5h-6.4c-0.3,0-0.5,0.2-0.5,0.5v6.4c0,0.3,0.2,0.5,0.5,0.5h6.4
	c0.3,0,0.5-0.2,0.5-0.5V557C180.7,556.7,180.5,556.5,180.2,556.5z M174.1,565.7c-0.2-0.2-0.5-0.2-0.7,0s-0.2,0.5,0,0.7l0.2,0.2
	c-1.7-0.1-3.1-1.5-3.1-3.2c0-0.3-0.2-0.5-0.5-0.5s-0.5,0.2-0.5,0.5c0,2.3,1.8,4.2,4.1,4.2l-0.2,0.2c-0.2,0.2-0.2,0.5,0,0.7
	s0.5,0.2,0.7,0l1.1-1.1c0.1-0.1,0.1-0.2,0.1-0.4s-0.1-0.3-0.1-0.4L174.1,565.7z"/>
<path class="st73" d="M13.8,739.8h9c0.7,0,1.4,0.6,1.4,1.3v9.4l-5.9,5.7l-5.9-5.7v-9.4C12.4,740.4,13,739.8,13.8,739.8z"/>
<path class="st6" d="M53.1,739h-9c-1.1,0-2,0.9-2,2v9.6l6.5,6.4l6.5-6.4V741C55.1,739.9,54.2,739,53.1,739z"/>
<g>
	<path class="st74" d="M74.3,739.8h9c0.7,0,1.3,0.6,1.3,1.3v9.4l-5.8,5.7l-5.8-5.7v-9.4C73,740.4,73.6,739.8,74.3,739.8z"/>
	<path class="st75" d="M77.6,745.1v4"/>
	<path class="st75" d="M80.1,745.1v4"/>
</g>
<g>
	<circle class="st74" cx="107.7" cy="747.1" r="8.4"/>
	<path class="st75" d="M106.5,745.1v4"/>
	<path class="st75" d="M109,745.1v4"/>
</g>
<g class="st76">
	<g class="st77">
		<circle class="st6" cx="140.8" cy="746.4" r="10.5"/>
		<g>
			<g>
				<g>
					<g>
						<g>
							<g>
								<g>
									<defs>
										<rect id="SVGID_00000098210159508522097120000008410950101377944980_" x="136.3" y="741.9" width="9" height="9"/>
									</defs>
									<clipPath id="SVGID_00000054955943030433256520000017685010319533183926_">
										<use xlink:href="#SVGID_00000098210159508522097120000008410950101377944980_"  style="overflow:visible;"/>
									</clipPath>
									<g style="clip-path:url(#SVGID_00000054955943030433256520000017685010319533183926_);">
										<path class="st5" d="M136.5,746.3c0,0,0.2-0.2,0.5-0.2s0.5,0.2,0.5,0.2l1.4,1.5l5.4-5.3c0,0,0.2-0.2,0.5-0.2
											s0.4,0.2,0.4,0.2s0.1,0.1,0.1,0.3c0,0.1-0.1,0.3-0.1,0.3c0,0.1-5.7,7-5.7,7s-0.3,0.3-0.6,0.3s-0.6-0.1-0.8-0.4
											c-0.2-0.2-1.8-2.9-1.8-2.9S136.1,746.7,136.5,746.3z"/>
									</g>
								</g>
							</g>
						</g>
					</g>
				</g>
			</g>
		</g>
	</g>
	<g class="st77">
		<circle class="st79" cx="175" cy="747.1" r="10"/>
		<circle class="st6" cx="175" cy="747.1" r="7"/>
	</g>
	<g class="st77">
		<circle class="st80" cx="212.1" cy="747.1" r="10.2"/>
		<g>
			<g>
				<g>
					<g>
						<g>
							<g>
								<g>
									<defs>
										<rect id="SVGID_00000183215631328033972060000014707266003955462563_" x="207.1" y="742.1" width="10" height="10"/>
									</defs>
									<clipPath id="SVGID_00000033336491326921241800000017721478408301132986_">
										<use xlink:href="#SVGID_00000183215631328033972060000014707266003955462563_"  style="overflow:visible;"/>
									</clipPath>
									<g style="clip-path:url(#SVGID_00000033336491326921241800000017721478408301132986_);">
										<path class="st6" d="M207.4,747.1c0,0,0.2-0.2,0.6-0.2c0.4,0,0.5,0.2,0.6,0.2l1.6,1.7l6-5.9c0,0,0.2-0.2,0.5-0.2
											s0.4,0.2,0.4,0.2s0.1,0.1,0.1,0.3c0,0.1-0.1,0.3-0.1,0.4c0,0.1-6.4,7.7-6.4,7.7s-0.3,0.3-0.7,0.3s-0.7-0.1-0.8-0.4
											c-0.2-0.3-1.9-3.2-1.9-3.2S206.9,747.5,207.4,747.1z"/>
									</g>
								</g>
							</g>
						</g>
					</g>
				</g>
			</g>
		</g>
	</g>
	<g class="st77">
		<circle class="st18" cx="249.1" cy="746.9" r="10.2"/>
		<circle class="st6" cx="249.1" cy="746.9" r="4.1"/>
	</g>
</g>
<g>
	<path class="st6" d="M318.8,306.1c6.4,0,11.5,5.1,11.5,11.5s-5.1,11.5-11.5,11.5s-11.5-5.1-11.5-11.5
		C307.2,311.3,312.4,306.1,318.8,306.1z"/>
	<path class="st5" d="M316.9,322.1c-0.1,0-0.2,0-0.3-0.1c-0.1,0-0.2-0.1-0.3-0.2l-3.2-3.2c-0.1-0.1-0.2-0.2-0.2-0.3
		s-0.1-0.2-0.1-0.4s0.1-0.5,0.3-0.7c0.2-0.2,0.4-0.3,0.6-0.3s0.5,0.1,0.6,0.3l2.5,2.6l6.4-6.5c0.2-0.2,0.4-0.3,0.6-0.3
		s0.5,0.1,0.6,0.3c0.2,0.2,0.3,0.4,0.3,0.7s-0.1,0.5-0.3,0.7l-7,7.1c-0.1,0.1-0.2,0.2-0.3,0.2C317,322.1,316.9,322.2,316.9,322.1z"
		/>
</g>
<g>
	<path class="st68" d="M354.9,328.6c-6.1,0-11-4.9-11-11s4.9-11,11-11s11,4.9,11,11S360.9,328.6,354.9,328.6z"/>
	<path class="st47" d="M359.4,313.1l-9,9"/>
	<path class="st47" d="M350.4,313.1l9,9"/>
</g>
<path class="st6" d="M142.1,746.7c0,0,0.3-0.4,1-0.3s0.9,0.3,0.9,0.4l2.5,2.7l9.5-9.4c0,0,0.3-0.4,0.8-0.3c0.5,0,0.7,0.3,0.7,0.4
	c0,0,0.1,0.2,0.1,0.4s-0.1,0.5-0.2,0.6c-0.1,0.1-10.2,12.4-10.2,12.4s-0.5,0.4-1.1,0.4s-1-0.2-1.3-0.6s-3.1-5.1-3.1-5.1
	S141.4,747.4,142.1,746.7z"/>
<path class="st45" d="M178.5,747.2l2.4,2.5l5.1-5.1"/>
<path class="st1" d="M232.2,312.5c0.7-0.2,1.5-0.4,2.2-0.4c4,0,7.5,3.9,8.5,5.2c-0.4,0.5-1.1,1.3-2,2.1c-0.3,0.3-0.3,0.7-0.1,1
	c0.1,0.2,0.3,0.2,0.5,0.2s0.3-0.1,0.5-0.2c1.5-1.4,2.5-2.7,2.5-2.7c0.2-0.2,0.2-0.6,0-0.8c-0.2-0.3-4.5-6.2-10-6.2
	c-0.9,0-1.7,0.1-2.6,0.4c-0.4,0.1-0.6,0.5-0.4,0.9S231.9,312.6,232.2,312.5z M225.4,307.9c-0.3-0.3-0.7-0.2-1,0.1
	c-0.3,0.3-0.2,0.7,0.1,1l4.2,3.7c-2.6,1.8-4.3,4.1-4.4,4.2c-0.2,0.2-0.2,0.6,0,0.8c0.2,0.3,4.5,6.2,10,6.2c1.7,0,3.4-0.6,5.2-1.7
	l3.8,3.3c0.1,0.1,0.3,0.2,0.5,0.2s0.4-0.1,0.5-0.2c0.3-0.3,0.2-0.7-0.1-1L225.4,307.9z M232.6,316l3.1,2.7c-0.4,0.3-0.8,0.4-1.3,0.4
	c-1.2,0-2.1-1-2.1-2.1C232.3,316.7,232.4,316.3,232.6,316z M234.4,322.5c-4,0-7.5-3.9-8.5-5.2c0.6-0.8,2.1-2.4,4-3.6l1.6,1.4
	c-0.4,0.6-0.6,1.3-0.6,2c0,2,1.6,3.5,3.5,3.5c0.9,0,1.7-0.3,2.4-0.9l1.7,1.5C237.1,322,235.7,322.5,234.4,322.5z"/>
<g>
	<path class="st3" d="M281.1,317.2c-0.2-0.2-4.4-5.9-9.8-5.9s-9.6,5.7-9.8,5.9c-0.2,0.2-0.2,0.5,0,0.8c0.2,0.2,4.4,5.9,9.8,5.9
		s9.6-5.7,9.8-5.9C281.2,317.8,281.2,317.4,281.1,317.2z M271.3,322.6c-4,0-7.4-3.8-8.4-5c1-1.2,4.4-5,8.4-5s7.4,3.8,8.4,5
		C278.7,318.8,275.3,322.6,271.3,322.6z"/>
	<circle class="st82" cx="271.3" cy="317.6" r="2.8"/>
</g>
<path class="st83" d="M208.2,743.4l3.5,3.5l-3.5,3.5 M212.7,741.9l5,5l-5,5"/>
<path class="st84" d="M243.9,741.9c-0.3,0.3-0.3,0.8,0,1.1l3.9,3.9l-3.9,3.9c-0.3,0.3-0.3,0.8,0,1.1s0.8,0.3,1.1,0l4.4-4.4
	c0.3-0.3,0.3-0.8,0-1.1L245,742C244.7,741.6,244.2,741.6,243.9,741.9z M239.6,743.4c-0.3,0.3-0.2,0.8,0.1,1.1l2,1.7h-7.4
	c-0.4,0-0.7,0.3-0.7,0.7s0.3,0.7,0.7,0.7h7.4l-2,1.7c-0.3,0.3-0.4,0.8-0.1,1.1c0.3,0.3,0.8,0.4,1.1,0.1l3.5-3
	c0.2-0.1,0.3-0.4,0.3-0.6c0-0.2-0.1-0.4-0.3-0.6l-3.5-3C240.4,743,239.9,743.1,239.6,743.4z"/>
<path class="st83" d="M265.7,741.9l5,5l-5,5"/>
<path class="st85" d="M269.8,683L269.8,683c1.2,0,2.1,0.9,2.1,2.1v4.3c0,1.2-0.9,2.1-2.1,2.1l0,0c-1.2,0-2.1-0.9-2.1-2.1v-4.3
	C267.7,683.9,268.6,683,269.8,683z M274.7,691.6l-0.2,0.6c-0.2,0.8-0.7,1.4-1.4,1.8l0,0c-2,1.3-4.7,1.3-6.7,0l0,0
	c-0.7-0.4-1.2-1.1-1.4-1.8l-0.2-0.6 M270,695.2v2.6 M267,697.1h5.9"/>
<g>
	<path class="st71" d="M287.6,742.9l1.3-6c0.2-0.8,1.1-1.1,1.7-0.5l4.6,4.3c0.6,0.5,0.3,1.5-0.4,1.7l-5.9,1.7
		C288.1,744.2,287.4,743.6,287.6,742.9z"/>
	<path class="st86" d="M291.8,739.2c2.1-2.2,5.2-4,8.6-4c6.5,0,11.8,5.4,11.8,12c0,6.6-5.3,12-11.8,12c-5.8,0-10.7-4.3-11.7-9.9"/>
</g>
<path class="st1" d="M335.1,743.4h-9.7c-0.3,0-0.5-0.1-0.7-0.3c-0.2-0.2-0.3-0.4-0.3-0.7c0-0.3,0.1-0.5,0.3-0.7
	c0.2-0.2,0.4-0.3,0.7-0.3h9.7c0.3,0,0.5,0.1,0.7,0.3c0.2,0.2,0.3,0.4,0.3,0.7c0,0.3-0.1,0.5-0.3,0.7
	C335.6,743.3,335.4,743.4,335.1,743.4L335.1,743.4z M343.5,743.4h-2.4c-0.3,0-0.5-0.1-0.7-0.3c-0.2-0.2-0.3-0.4-0.3-0.7
	c0-0.3,0.1-0.5,0.3-0.7c0.2-0.2,0.4-0.3,0.7-0.3h2.4c0.3,0,0.5,0.1,0.7,0.3c0.2,0.2,0.3,0.4,0.3,0.7c0,0.3-0.1,0.5-0.3,0.7
	C344,743.3,343.8,743.4,343.5,743.4z M343.5,752.4h-9.7c-0.3,0-0.5-0.1-0.7-0.3c-0.2-0.2-0.3-0.4-0.3-0.7c0-0.3,0.1-0.5,0.3-0.7
	c0.2-0.2,0.4-0.3,0.7-0.3h9.7c0.3,0,0.5,0.1,0.7,0.3c0.2,0.2,0.3,0.4,0.3,0.7c0,0.3-0.1,0.5-0.3,0.7
	C344,752.3,343.8,752.4,343.5,752.4z M327.9,752.4h-2.4c-0.3,0-0.5-0.1-0.7-0.3c-0.2-0.2-0.3-0.4-0.3-0.7c0-0.3,0.1-0.5,0.3-0.7
	c0.2-0.2,0.4-0.3,0.7-0.3h2.4c0.3,0,0.5,0.1,0.7,0.3c0.2,0.2,0.3,0.4,0.3,0.7c0,0.3-0.1,0.5-0.3,0.7
	C328.4,752.3,328.2,752.4,327.9,752.4z M330.9,755.3c-0.8,0-1.5-0.2-2.2-0.7c-0.6-0.4-1.2-1-1.5-1.8c-0.3-0.7-0.4-1.5-0.2-2.3
	c0.2-0.8,0.5-1.5,1.1-2c0.6-0.6,1.3-0.9,2-1.1c0.8-0.2,1.6-0.1,2.3,0.2c0.7,0.3,1.3,0.8,1.8,1.5c0.4,0.6,0.7,1.4,0.7,2.2
	c0,1-0.4,2-1.2,2.8C332.9,754.9,331.9,755.3,330.9,755.3z M330.9,749.3c-0.4,0-0.8,0.1-1.1,0.3c-0.3,0.2-0.6,0.5-0.7,0.9
	c-0.2,0.4-0.2,0.8-0.1,1.1c0.1,0.4,0.3,0.7,0.5,1c0.3,0.3,0.6,0.5,1,0.5c0.4,0.1,0.8,0,1.1-0.1c0.4-0.2,0.7-0.4,0.9-0.7
	c0.2-0.3,0.3-0.7,0.3-1.1c0-0.5-0.2-1-0.6-1.4S331.4,749.3,330.9,749.3z M338.1,746.3c-0.8,0-1.5-0.2-2.2-0.7
	c-0.6-0.4-1.2-1-1.5-1.8c-0.3-0.7-0.4-1.5-0.2-2.3c0.2-0.8,0.5-1.5,1.1-2c0.6-0.6,1.3-0.9,2-1.1c0.8-0.2,1.6-0.1,2.3,0.2
	c0.7,0.3,1.3,0.8,1.8,1.5c0.4,0.6,0.7,1.4,0.7,2.2c0,1-0.4,2-1.2,2.8C340.1,745.9,339.1,746.3,338.1,746.3z M338.1,740.4
	c-0.4,0-0.8,0.1-1.1,0.3c-0.3,0.2-0.6,0.5-0.7,0.9s-0.2,0.8-0.1,1.1c0.1,0.4,0.3,0.7,0.5,1c0.3,0.3,0.6,0.5,1,0.5
	c0.4,0.1,0.8,0,1.1-0.1c0.4-0.2,0.7-0.4,0.9-0.7c0.2-0.3,0.3-0.7,0.3-1.1c0-0.5-0.2-1-0.6-1.4C339.1,740.6,338.6,740.4,338.1,740.4z
	"/>
<g>
	<path class="st72" d="M356.8,746.9L356.8,746.9c0-6.8,5.5-12.2,12.2-12.2l0,0c6.8,0,12.2,5.5,12.2,12.2l0,0
		c0,6.8-5.5,12.2-12.2,12.2l0,0C362.2,759.1,356.8,753.7,356.8,746.9z"/>
	<path class="st87" d="M363.7,752.6h10.6"/>
	<rect x="367" y="741.2" class="st71" width="4" height="5"/>
	<path class="st71" d="M369,750.6l-5-4.4l5.6,0l4.4,0L369,750.6z"/>
</g>
</svg>
