<?xml version="1.0" encoding="utf-8"?>
<!-- Generator: Adobe Illustrator 27.8.0, SVG Export Plug-In . SVG Version: 6.00 Build 0)  -->
<svg version="1.1" id="Layer_1" xmlns="http://www.w3.org/2000/svg" xmlns:xlink="http://www.w3.org/1999/xlink" x="0px" y="0px"
	 width="600px" height="288px" viewBox="0 0 600 288" style="enable-background:new 0 0 600 288;" xml:space="preserve">
<style type="text/css">
	.st0{fill:none;stroke:#000000;stroke-width:1.5;stroke-linecap:round;stroke-miterlimit:10;}
	.st1{fill:none;stroke:#000000;stroke-width:1.5;stroke-linecap:round;stroke-linejoin:round;}
	.st2{fill:none;stroke:#000000;stroke-width:1.5;stroke-miterlimit:10;}
	.st3{fill:none;stroke:#000000;stroke-width:1.5;stroke-linecap:round;}
	.st4{fill:none;stroke:#000000;stroke-width:1.5;stroke-linecap:round;stroke-linejoin:bevel;}
	.st5{fill:none;stroke:#000000;stroke-width:2;}
	.st6{fill:none;stroke:#000000;stroke-width:1.5;}
	.st7{fill-rule:evenodd;clip-rule:evenodd;}
	.st8{clip-path:url(#SVGID_00000029027422870634484240000000224850031977289107_);}
	.st9{fill:#10203B;}
	.st10{stroke:#000000;stroke-width:1.5;stroke-linecap:round;stroke-linejoin:round;}
	.st11{fill:none;stroke:#313949;stroke-width:1.5;stroke-linecap:round;stroke-linejoin:round;stroke-miterlimit:10;}
	.st12{clip-path:url(#SVGID_00000148624287385304978840000012581120173677788036_);}
</style>
<g>
	<path class="st0" d="M36.2,19.1h7"/>
	<path class="st0" d="M36.2,14.1h14"/>
	<path class="st0" d="M36.2,9.1h14"/>
</g>
<g>
	<path class="st1" d="M239.2,10.1L239.2,10.1c0.6,0,1,0.4,1,1v7"/>
	<path class="st0" d="M243.2,10.1h3c0.6,0,1,0.4,1,1v2c0,0.6-0.4,1-1,1h-2c-0.6,0-1,0.4-1,1v2c0,0.6,0.4,1,1,1h3"/>
	<path class="st0" d="M249.2,10.1h3c0.6,0,1,0.4,1,1v2c0,0.6-0.4,1-1,1h-2.9"/>
	<path class="st0" d="M249.2,14.1h3c0.6,0,1,0.4,1,1v2c0,0.6-0.4,1-1,1h-3"/>
</g>
<g>
	<path class="st1" d="M10.7,18.1H9.2c-1.1,0-2-0.9-2-2v-4c0-1.1,0.9-2,2-2h1.5 M16.2,10.1h3c1.1,0,2,0.9,2,2v4c0,1.1-0.9,2-2,2h-3"
		/>
	<path class="st1" d="M13.2,7.1v14"/>
	<path class="st1" d="M12.2,7.1h2"/>
	<path class="st1" d="M12.2,21.1h2"/>
</g>
<g>
	<path class="st2" d="M67.2,9.1h10c1.1,0,2,0.9,2,2v7c0,1.1-0.9,2-2,2h-10c-1.1,0-2-0.9-2-2v-7C65.2,10,66.1,9.1,67.2,9.1z"/>
	<path class="st1" d="M66.2,10.1l4.6,4.6c0.8,0.8,2,0.8,2.8,0l4.6-4.6"/>
</g>
<path class="st2" d="M100.3,15.2c-1.4-1.4-2.8-3-2.2-3.6c0.9-0.9,1.7-1.5,0-3.5s-2.7-0.5-3.6,0.4c-1,1,0,4.8,3.7,8.5
	s7.6,4.7,8.5,3.7c0.9-0.9,2.4-2,0.4-3.6c-1.8-1.4-2.5-0.9-3.2-0.2c-0.2,0.2-0.3,0.5-0.6,0.5C102.7,17.5,101.4,16.5,100.3,15.2
	L100.3,15.2z"/>
<g>
	<path class="st3" d="M135.2,9.1h-10c-1.1,0-2,0.9-2,2v6c0,1.1,0.9,2,2,2h10c1.1,0,2-0.9,2-2v-6C137.2,10,136.3,9.1,135.2,9.1z"/>
	<path d="M132.5,15.8l-1.9-2.2c-0.2-0.2,0-0.5,0.2-0.5h3.7c0.3,0,0.4,0.3,0.2,0.5l-1.9,2.2C132.8,16,132.6,16,132.5,15.8z"/>
</g>
<g>
	<path class="st4" d="M159.3,10.1h7"/>
	<path class="st4" d="M159.3,15.1h7"/>
	<path class="st4" d="M159.3,20.1h7"/>
	<path class="st1" d="M152.7,15.1l1,1l2.5-3"/>
	<path class="st1" d="M152.7,10.1l1,1l2.5-3"/>
	<path d="M152.2,19.6c0-0.6,0.4-1,1-1h1c0.6,0,1,0.4,1,1v1c0,0.6-0.4,1-1,1h-1c-0.6,0-1-0.4-1-1V19.6z"/>
</g>
<g>
	<path class="st3" d="M7.2,49.1l12-12"/>
	<circle class="st3" cx="9.2" cy="39.1" r="2.2"/>
	<circle class="st3" cx="17.2" cy="47.1" r="2.2"/>
</g>
<g>
	<path class="st2" d="M38.2,37.1h8c1.1,0,2,0.9,2,2v8c0,1.1-0.9,2-2,2h-8c-1.1,0-2-0.9-2-2v-8C36.2,38,37.1,37.1,38.2,37.1z"/>
	<path class="st1" d="M39.7,43.6l1.5,1.5l4-4"/>
</g>
<g>
	<path class="st1" d="M74.1,44.6l2.3-2.3c0.5-0.6,0.8-1.4,0.8-2.2s-0.3-1.6-0.9-2.2c-0.5-0.6-1.3-0.9-2-0.9s-1.5,0.3-2.1,0.9l-2,2"
		/>
	<path class="st1" d="M67.8,42L66,43.9c-0.5,0.6-0.8,1.4-0.8,2.2s0.3,1.6,0.9,2.2c0.5,0.6,1.3,0.9,2,0.9s1.5-0.3,2.1-0.9l1.5-1.5"/>
	<path class="st1" d="M68.7,45.6l5-5"/>
</g>
<g>
	<path d="M105.7,49.1c0.8,0,1.5-0.7,1.5-1.5s-0.7-1.5-1.5-1.5s-1.5,0.7-1.5,1.5S104.9,49.1,105.7,49.1z"/>
	<path class="st1" d="M101.2,47.1h-8v-9h14v5"/>
	<path d="M93.7,40.1h0.6c0.2,0,0.3-0.2,0.5-0.3c0,0,0.2-0.3,0.3-0.5v-0.6h-1.5v1.5L93.7,40.1z"/>
	<path d="M105.2,38.6v0.6c0,0.2,0.2,0.3,0.3,0.5c0,0,0.3,0.2,0.5,0.3s0.4,0,0.6,0v-1.5h-1.5L105.2,38.6z"/>
	<path class="st5" d="M95.2,46.6V46c0-0.2-0.2-0.3-0.3-0.5c0,0-0.3-0.2-0.5-0.3s-0.4,0-0.6,0v1.5h1.5L95.2,46.6z"/>
	<path d="M99.7,41.1h1c0.8,0,1.5,0.7,1.5,1.5l0,0c0,0.8-0.7,1.5-1.5,1.5h-1c-0.8,0-1.5-0.7-1.5-1.5l0,0
		C98.2,41.8,98.9,41.1,99.7,41.1z"/>
</g>
<g>
	<path class="st3" d="M152.2,50.1L152.2,50.1c0-2.8,2.2-5,5-5h2c2.8,0,5,2.2,5,5l0,0"/>
	<circle class="st6" cx="158.2" cy="40.1" r="3"/>
</g>
<g>
	<path class="st1" d="M184.3,37v10.6"/>
	<path class="st1" d="M193.6,40.1h-13.4"/>
	<path class="st1" d="M194.2,41.2v-4.5c0-0.3-0.2-0.6-0.6-0.6h-12.9c-0.3,0-0.6,0.3-0.6,0.6v10.9c0,0.3,0.2,0.5,0.5,0.5h6.7"/>
	<path d="M194.6,49.1h-3.7c-0.3,0-0.6-0.3-0.6-0.6v-4.7c0-0.3,0.3-0.6,0.6-0.6h2.8l1.6,1.4v3.9C195.3,48.8,195,49.1,194.6,49.1
		L194.6,49.1z"/>
</g>
<g>
	<path class="st1" d="M212.2,49.1v-9.7c0-1.3,1-2.3,2.2-2.3h1.8"/>
	<path class="st1" d="M210.2,42.1h5"/>
	<path class="st1" d="M217.2,44.1l5,5"/>
	<path class="st1" d="M222.2,44.1l-5,5"/>
</g>
<g>
	<path class="st4" d="M245.2,38.1h6"/>
	<path class="st4" d="M245.2,43.1h6"/>
	<path class="st4" d="M245.2,48.1h6"/>
	<path class="st1" d="M239.2,37.1h1v4"/>
	<path class="st1" d="M239.2,44.1h2.5v2.5h-2.5v2.5h2.3"/>
</g>
<g>
	<path class="st1" d="M306.2,38.1l2-2l2,2"/>
	<path class="st1" d="M308.2,36.6v4.5"/>
	<path d="M301.7,44.1c0.8,0,1.5-0.7,1.5-1.5s-0.7-1.5-1.5-1.5s-1.5,0.7-1.5,1.5S300.9,44.1,301.7,44.1z"/>
	<path class="st1" d="M310.2,48.1l-2.8-2.8c-0.1,0-0.3-0.2-0.4-0.3h-1c-0.2,0-0.3,0.2-0.4,0.3l-3.8,4.3"/>
	<path class="st1" d="M302.7,38.1h-5.5c-0.6,0-1,0.4-1,1v10c0,0.6,0.4,1,1,1h12c0.6,0,1-0.4,1-1v-4"/>
</g>
<g>
	<path d="M393.6,19.1l-0.4,1.5v0.2c0,0,0,0.1,0.1,0.2h0.1c0,0.1,0.3,0.1,0.3,0.1l1.6-0.4L398,18l-1.7-1.7L393.6,19.1z"/>
	<path d="M399.1,16.4l-1.2-1.2c-0.1-0.1-0.2-0.1-0.3-0.1s-0.2,0-0.3,0.1l-0.6,0.6l1.7,1.7l0.6-0.6h0.1L399.1,16.4
		C399.2,16.5,399.1,16.4,399.1,16.4L399.1,16.4z"/>
	<path class="st1" d="M391.2,18.1h-5c-1.1,0-2-0.9-2-2v-4c0-1.1,0.9-2,2-2h10c1.1,0,2,0.9,2,2v1"/>
</g>
<g>
	<path class="st1" d="M414.2,13.1l2.1-5l2.1,5 M415.3,11.6h2.1 M414.2,15.6h4l-4,5h4"/>
	<path class="st1" d="M426.2,17.6l-2.5,2.5l-2.5-2.5"/>
	<path class="st1" d="M423.7,20.1V8.6"/>
</g>
<g>
	<path class="st1" d="M388.1,47.1h-2.8c-1.1,0-2-0.9-2-2v-4c0-1.1,0.9-2,2-2h10c1.1,0,2,0.9,2,2v1"/>
	<path class="st7" d="M391.1,44.9v2.5c0,1.4,1.2,2.6,2.6,2.7c0.4,0,0.7,0,1-0.2c0.3,0,0.6-0.3,0.8-0.5l-3-3H392c0,0,0-0.1-0.1-0.2
		v-0.4l-0.8-1V44.9z M392.6,44.6l1,1v-2.2c0,0-0.1,0-0.1-0.2h-0.4c-0.3,0-0.5,0.2-0.5,0.5V44.6L392.6,44.6L392.6,44.6z M394.2,46.1
		l1,1v-3.2c0,0-0.1,0-0.1-0.2h-0.4c-0.3,0-0.5,0.2-0.5,0.5V46.1L394.2,46.1L394.2,46.1z M395.6,47.6l0.8,0.8
		c0.4-0.7,0.8-1.5,0.8-1.5s0.1,0,0.1-0.2v-0.2c0,0-0.1,0-0.1-0.2s-0.1,0-0.2,0c-0.2,0-0.5,0-0.7,0.2L395.6,47.6L395.6,47.6
		L395.6,47.6z"/>
	<path class="st1" d="M390.2,44c2.5,2.5,6.1,6.1,6.1,6.1"/>
</g>
<g>
	<path class="st1" d="M448.3,11.1l3.5,3.5l-3.5,3.5"/>
	<path class="st1" d="M451.8,14.6h-9.6"/>
	<path class="st1" d="M455.7,11.6v6"/>
</g>
<g>
	<path class="st1" d="M482.2,14l-3.5,3.5l-3.5-3.5"/>
	<path class="st1" d="M478.7,17.5V7.9"/>
	<path class="st1" d="M481.7,20.6h-6"/>
</g>
<g>
	<path class="st1" d="M363.3,9.1l3,3"/>
	<path class="st1" d="M363.3,19.6V9.3"/>
	<path class="st1" d="M360.3,19.4l-3-3"/>
	<path class="st1" d="M360.3,9.1v10.3"/>
</g>
<g>
	<path class="st1" d="M475.2,37.1h10c1.1,0,2,0.9,2,2v8c0,1.1-0.9,2-2,2h-10c-1.1,0-2-0.9-2-2v-8C473.2,38,474.1,37.1,475.2,37.1z"
		/>
	<path class="st1" d="M478.2,40.1h4"/>
</g>
<g>
	<path class="st1" d="M414.2,37.1h10c1.1,0,2,0.9,2,2v8c0,1.1-0.9,2-2,2h-10c-1.1,0-2-0.9-2-2v-8C412.2,38,413.1,37.1,414.2,37.1z"
		/>
	<path class="st1" d="M415.2,40.1h2"/>
	<path class="st1" d="M421.2,40.1h2"/>
</g>
<g>
	<path class="st1" d="M513.7,18.7l-2,2l-2-2"/>
	<path class="st1" d="M513.8,9.1l-2-2l-2,2"/>
	<path class="st1" d="M511.8,20.6v-12"/>
	<path class="st1" d="M501.2,9.6h2.5"/>
	<path class="st1" d="M501.2,13.6h3.5"/>
	<path class="st1" d="M501.2,17.6h5"/>
</g>
<g>
	<path class="st1" d="M360.2,46.1h-4c-1.1,0-2-0.9-2-2v-4c0-1.1,0.9-2,2-2h10c1.1,0,2,0.9,2,2v2"/>
	<path d="M366.1,43.3h-0.8c-0.1,0-0.2,0.2-0.2,0.3l-0.3,1c-0.1,0.2-0.2,0.5-0.4,0.6c-0.2,0.2-0.4,0.3-0.6,0.4l-1,0.3
		c-0.1,0-0.3,0-0.3,0.3c-0.1,0-0.1,0.3-0.1,0.4s0,0.3,0.1,0.4c0.1,0,0.2,0.2,0.3,0.3l1,0.3c0.2,0,0.5,0.2,0.6,0.4
		c0.2,0.2,0.3,0.4,0.4,0.6l0.3,1c0,0,0.1,0.3,0.3,0.3h0.8c0.1,0,0.2-0.2,0.3-0.4l0.3-1c0.1-0.2,0.2-0.5,0.4-0.6s0.4-0.3,0.6-0.4
		l1-0.3c0.1,0,0.3,0,0.3-0.3c0.1,0,0.1-0.3,0.1-0.4s0-0.3-0.1-0.4c-0.1,0-0.2-0.2-0.4-0.3l-1-0.3c-0.2,0-0.5-0.2-0.6-0.4
		c-0.2-0.2-0.3-0.4-0.4-0.7l-0.3-1C366.4,43.5,366.4,43.4,366.1,43.3L366.1,43.3z"/>
</g>
<g>
	<g>
		<defs>
			<rect id="SVGID_1_" x="6.2" y="63.9" width="14" height="14"/>
		</defs>
		<clipPath id="SVGID_00000094603234736013447570000000672411502745409437_">
			<use xlink:href="#SVGID_1_"  style="overflow:visible;"/>
		</clipPath>
		<g style="clip-path:url(#SVGID_00000094603234736013447570000000672411502745409437_);">
			<g>
				<path class="st2" d="M6.8,73.2l1.3,2.2c0.1,0.2,0.2,0.2,0.4,0.2l1.7-0.6c0.3,0.2,0.7,0.5,1.1,0.6l0.2,1.6
					c0.1,0.2,0.2,0.2,0.3,0.2h2.7c0.2,0,0.3-0.2,0.3-0.2l0.2-1.7c0.4-0.2,0.8-0.4,1.1-0.6l1.7,0.6c0.2,0,0.3,0,0.4-0.2l1.3-2.2
					c0.1-0.2,0.1-0.3-0.1-0.5L18,71.5c0.1-0.2,0.1-0.4,0.1-0.6s0-0.5-0.1-0.6l1.4-1.1c0.1-0.1,0.2-0.3,0.1-0.5l-1.3-2.2
					c-0.1-0.2-0.2-0.2-0.4-0.2L16.1,67c-0.3-0.2-0.7-0.5-1.1-0.6l-0.2-1.6c-0.1-0.2-0.2-0.2-0.3-0.2h-2.7c-0.2,0-0.3,0.2-0.3,0.2
					l-0.2,1.6c-0.4,0.2-0.8,0.4-1.1,0.6l-1.7-0.6c-0.2,0-0.3,0-0.4,0.2l-1.3,2.2v0.5l1.4,1.1c-0.1,0.2-0.1,0.5-0.1,0.7
					s0,0.5,0.1,0.6l-1.4,1.1C6.8,72.9,6.6,73.1,6.8,73.2z"/>
				<path class="st7" d="M15.3,71c0,1.2-0.9,2-2,2s-2-0.9-2-2s0.9-2,2-2S15.3,69.8,15.3,71z"/>
			</g>
		</g>
	</g>
</g>
<path class="st1" d="M243.2,74.9l-4-4l4-4"/>
<path d="M290.4,68.9h-6.6c-0.3,0-0.4,0.3-0.2,0.5l3.3,3.3h0.4l3.3-3.3C290.8,69.2,290.7,68.9,290.4,68.9L290.4,68.9z"/>
<path class="st1" d="M309.2,66.9v8"/>
<path class="st1" d="M305.2,70.9h8"/>
<path class="st1" d="M30.2,69.9c0,0,2.5-5,7-5s7,5,7,5s-2.5,5-7,5S30.2,69.9,30.2,69.9z"/>
<path class="st1" d="M37.2,71.9c1.1,0,2-0.9,2-2s-0.9-2-2-2s-2,0.9-2,2S36.1,71.9,37.2,71.9z"/>
<circle class="st1" cx="62.2" cy="69.9" r="7"/>
<path class="st1" d="M62.2,65.9v5"/>
<circle cx="62.2" cy="73.9" r="1"/>
<path class="st1" d="M80.2,65.7h12"/>
<path class="st1" d="M83.2,65.7v-1.4c0-0.4,0.2-0.7,0.4-1c0.3-0.3,0.6-0.4,1-0.4h2.6c0.4,0,0.7,0,1,0.4c0.3,0.3,0.4,0.6,0.4,1v1.4
	 M91.2,65.7v9.8c0,0.4-0.2,0.7-0.4,1c-0.3,0.3-0.6,0.4-1,0.4h-7.1c-0.4,0-0.7,0-1-0.4s-0.4-0.6-0.4-1v-9.8H91.2z"/>
<path class="st1" d="M84.7,68.9v4.3"/>
<path class="st1" d="M87.7,68.9v4.3"/>
<path class="st2" d="M263.4,74.6c2.5,0,4.5-2,4.5-4.5s-2-4.5-4.5-4.5s-4.5,2-4.5,4.5S260.9,74.6,263.4,74.6z"/>
<path class="st0" d="M269.8,76.3l-2.9-2.9"/>
<path class="st1" d="M143.2,64.9l-11.8,11.8"/>
<path class="st1" d="M131.2,64.9L143,76.7"/>
<path class="st1" d="M158.7,73.9c-0.4,0-0.8-0.2-1.1-0.5s-0.5-0.7-0.5-1.1v-6.9c0-0.4,0.2-0.8,0.5-1.1c0.3-0.3,0.7-0.5,1.1-0.5h6.9
	c0.4,0,0.8,0.2,1.1,0.5s0.5,0.7,0.5,1.1"/>
<path class="st1" d="M161.2,69.4c0-0.8,0.7-1.5,1.5-1.5h6.9c0.8,0,1.5,0.7,1.5,1.5v6.9c0,0.8-0.7,1.5-1.5,1.5h-6.9
	c-0.8,0-1.5-0.7-1.5-1.5v-1"/>
<path class="st7" d="M160.3,72.9c0,0.3,0.2,0.5,0.5,0.5h2.4v1c0,0.4,0.5,0.7,0.8,0.4l1.9-1.8c0.2-0.2,0.2-0.5,0-0.7l-1.9-1.8
	c-0.3-0.3-0.8,0-0.8,0.4v1h-2.4c-0.3,0-0.5,0.2-0.5,0.5V72.9z"/>
<path class="st4" d="M185,68.1h9.2c0.1,0,3.7,0,3.7,3.7s-3.4,4.1-3.7,4.1h-7.3"/>
<path class="st4" d="M188.2,71.3l-3.2-3.2l3.2-3.2"/>
<circle class="st1" cx="219.2" cy="70.9" r="7"/>
<circle cx="219.7" cy="67.4" r="1.5"/>
<path class="st1" d="M217.7,71.5c0.8-0.6,1-1,1.5-0.8c0.6,0.2-1.7,4-1.1,4.2c0.5,0.2,1.1-0.3,1.7-0.8"/>
<path class="st1" d="M335.2,68.9l-4,4l-4-4"/>
<path class="st0" d="M118.2,75.9v-11c0-1.1-0.9-2-2-2h-7.9c-0.3,0-0.6,0-0.8,0.4l-2.3,2.9"/>
<path class="st2" d="M106.2,65.9h8c0.6,0,1,0.4,1,1v10c0,0.6-0.4,1-1,1h-8c-0.6,0-1-0.4-1-1v-10C105.2,66.4,105.6,65.9,106.2,65.9z"
	/>
<path class="st0" d="M108.2,70.2c0.2-0.4,0.5-0.8,0.9-1.1c0.4-0.2,0.9-0.3,1.4-0.2c0.5,0,0.9,0.3,1.2,0.7c0.3,0.4,0.5,0.8,0.5,1.3
	c0,1.3-2.1,2-2.1,2"/>
<circle cx="110.2" cy="74.9" r="1"/>
<g>
	<path class="st1" d="M377.4,74.8V71h-3.7"/>
	<path class="st1" d="M373.3,75.1l4.1-4.1"/>
	<path class="st1" d="M381.4,63.2V67h3.7"/>
	<path class="st1" d="M385.5,62.9l-4.1,4.1"/>
</g>
<g>
	<path class="st1" d="M348.4,71.5V75h3.5"/>
	<path class="st1" d="M352.4,71l-4,4"/>
	<path class="st1" d="M360.4,66.5V63h-3.5"/>
	<path class="st1" d="M356.4,67l4-4"/>
</g>
<g>
	<path class="st6" d="M399.2,69c0-4,3.2-7.2,7.2-7.2s7.2,3.2,7.2,7.2s-3.2,7.2-7.2,7.2C402.4,76.3,399.2,73,399.2,69z"/>
	<path class="st0" d="M406.4,66v6"/>
	<path class="st0" d="M409.4,69h-6"/>
</g>
<g>
	<path class="st6" d="M425.2,69c0-4,3.2-7.2,7.2-7.2s7.2,3.2,7.2,7.2s-3.2,7.2-7.2,7.2C428.4,76.3,425.2,73,425.2,69z"/>
	<path class="st0" d="M435.4,69h-6"/>
</g>
<path d="M462.4,72l-4.5-8c-0.8-1.4-2.7-1.4-3.5,0l-4.5,8c-0.8,1.3,0.2,3,1.7,3h9.1C462.2,75,463.1,73.4,462.4,72L462.4,72z
	 M455.3,66.5c0-0.4,0.3-0.8,0.8-0.8s0.8,0.3,0.8,0.8v3c0,0.4-0.3,0.8-0.8,0.8s-0.8-0.3-0.8-0.8V66.5z M456.1,73c-0.5,0-1-0.5-1-1
	s0.5-1,1-1s1,0.4,1,1S456.6,73,456.1,73z"/>
<path d="M477.8,60.8c0.5,0,0.8,0.4,0.8,0.8v14c0,0.5-0.3,0.8-0.8,0.8S477,76,477,75.6v-14C477,61.1,477.3,60.8,477.8,60.8z
	 M482,64.8L482,64.8c-0.5-0.5-1.2-0.2-1.2,0.6v6.3c0,0.7,0.7,1.1,1.2,0.7l2.6-3.2c0.3-0.3,0.3-0.9,0-1.2L482,64.8L482,64.8z"/>
<path class="st1" d="M193.1,9.1h-9.3c-0.7,0-1.3,0.6-1.3,1.3v9.3c0,0.7,0.6,1.3,1.3,1.3h9.3c0.7,0,1.3-0.6,1.3-1.3v-9.3
	C194.4,9.7,193.8,9.1,193.1,9.1z"/>
<path class="st1" d="M191.4,8.1v1.5"/>
<path class="st1" d="M185.4,8.1v1.5"/>
<path class="st1" d="M182.4,12.1h12"/>
<g>
	<path class="st1" d="M220.5,8.5V10"/>
	<path class="st1" d="M214.5,8.5V10"/>
	<path class="st1" d="M211.5,12.5h12"/>
	<path d="M221,15.5c-1.9,0-3.5,1.6-3.5,3.5s1.6,3.5,3.5,3.5s3.5-1.6,3.5-3.5S222.9,15.5,221,15.5z M223,19.5h-2
		c-0.3,0-0.5-0.2-0.5-0.5v-1.5c0-0.3,0.2-0.5,0.5-0.5s0.5,0.2,0.5,0.5v1h1.5c0.3,0,0.5,0.2,0.5,0.5S223.3,19.5,223,19.5z"/>
	<path d="M222.2,8.7c1.2,0,2.1,0.9,2.1,2.1v4.7c-0.5-0.2-1-0.4-1.5-0.5v-4.2c0-0.3-0.3-0.6-0.6-0.6h-9.3c-0.3,0-0.6,0.3-0.6,0.6v9.3
		c0,0.3,0.3,0.6,0.6,0.6h4.2c0,0.5,0.2,1,0.5,1.5h-4.7c-1.2,0-2.1-0.9-2.1-2.1v-9.3c0-1.2,0.9-2.1,2.1-2.1
		C212.9,8.7,222.2,8.7,222.2,8.7z"/>
</g>
<g>
	<path d="M554.3,7.6c3,0,5.5,2.5,5.5,5.5s-2.5,5.5-5.5,5.5s-5.5-2.5-5.5-5.5S551.3,7.6,554.3,7.6 M554.3,6.1c-3.9,0-7,3.1-7,7
		s3.1,7,7,7s7-3.1,7-7S558.2,6.1,554.3,6.1L554.3,6.1z"/>
	<circle cx="554.3" cy="13.1" r="3.1"/>
</g>
<g>
	<path class="st6" d="M569.8,17.1v-8c0-1.1,0.9-2,2-2h10c1.1,0,2,0.9,2,2v8c0,1.1-0.9,2-2,2h-10C570.7,19.1,569.8,18.2,569.8,17.1z"
		/>
	<path class="st6" d="M574.3,7.1v12"/>
	<path class="st6" d="M579.3,7.1v12"/>
	<path class="st6" d="M569.8,10.9h13.5"/>
</g>
<g>
	<path d="M526,39.8c0-0.2-0.2-0.5-0.2-0.7c0-0.4,0.1-0.7,0.6-0.6c0.2,0,0.5,0.1,0.7,0.2c1.2,0.6,2,1.5,2.7,2.7
		c0.1,0.2,0.2,0.5,0.2,0.7c0,0.4-0.2,0.6-0.5,0.6c-0.2,0-0.4-0.1-0.6-0.2h-0.2c-0.7,0.9-1.3,1.8-2,2.8v0.2c0.2,0.3,0.3,0.7,0.4,1
		c0.1,0.4-0.1,0.6-0.5,0.5s-0.7-0.3-1-0.5c-1.5-1-2.8-2.3-3.7-3.9c-0.1-0.2-0.2-0.5-0.3-0.8c0-0.3,0.1-0.5,0.5-0.5s0.7,0.3,1,0.5
		h0.2C524.2,41.1,525.1,40.4,526,39.8L526,39.8z"/>
	<path d="M523.1,44.9c0.2,0.2,0.4,0.4,0.6,0.6l-0.1,0.1l-1.5,1.5c-0.1,0.1-0.3,0.2-0.4,0.2h-0.4c0-0.3,0-0.6,0.3-0.9
		c0.5-0.5,1-1,1.4-1.4v-0.2L523.1,44.9z"/>
</g>
<path class="st9" d="M578,28.3c0,12.9,16,13.4,16,30s-16,17.1-16,30c-16.6,0-30-13.4-30-30S561.4,28.3,578,28.3z"/>
<path class="st1" d="M537.1,12.1c0,4.5-6,8.3-6,8.3s-6-3.8-6-8.3c0-1.5,0.6-3,1.8-4s2.7-1.7,4.2-1.7s3.1,0.6,4.2,1.7
	C536.5,9.2,537.1,10.6,537.1,12.1z"/>
<path class="st10" d="M531.1,14.4c1.1,0,2-0.9,2-2s-0.9-2-2-2s-2,0.9-2,2S530,14.4,531.1,14.4z"/>
<path class="st0" d="M270.7,40.5h2.6"/>
<path class="st0" d="M270.7,43.4h5.2"/>
<path class="st1" d="M280.1,41.2V38l-2.4-2.2h-8.2c-0.7,0-1.4,0.7-1.4,1.4v11.2c0,0.7,0.6,1.4,1.4,1.4h5.6"/>
<path class="st1" d="M277.2,46.8l2-2l2,2"/>
<path class="st1" d="M279.2,45.3v4.5"/>
<path class="st1" d="M451.7,38.3v-0.2c0-0.6-0.4-1-1-1h-6.6c-0.9,0-1.3,1.1-0.7,1.7l4.3,4.3l-4.3,4.3c-0.6,0.6-0.2,1.7,0.7,1.7h6.6
	c0.6,0,1-0.4,1-1v-0.2"/>
<g>
	<path class="st1" d="M329.2,17h-2c-1.1,0-2-0.9-2-2v-4c0-1.1,0.9-2,2-2h10c1.1,0,2,0.9,2,2v1"/>
	<path class="st3" d="M338.2,16v-0.8c0-0.1-0.1-0.2-0.2-0.2h-4c-0.2,0-0.3,0.3-0.1,0.4l3.1,2.3c0.1,0.1,0.1,0.3,0,0.4l-3.1,2.4
		c-0.2,0.1-0.1,0.5,0.1,0.5h4c0.1,0,0.2-0.1,0.2-0.2V20"/>
</g>
<path class="st1" d="M510.2,39.4v-0.2c0-0.7-0.6-1.2-1.2-1.2h-7.8c-1.1,0-2,0.9-2,2v7c0,1.1,0.9,2,2,2h7.8c0.7,0,1.2-0.6,1.2-1.2
	v-0.3"/>
<path class="st1" d="M505.4,43.4l2.2,2.2l5.6-5.6"/>
<circle cx="297.2" cy="17" r="1"/>
<path class="st1" d="M302.2,9L302.2,9c1.1,0,2,0.9,2,2v4c0,1.1-0.9,2-2,2l0,0c-1.1,0-2-0.9-2-2v-4C300.2,9.9,301.1,9,302.2,9z"/>
<path class="st1" d="M309.2,9L309.2,9c1.1,0,2,0.9,2,2v4c0,1.1-0.9,2-2,2l0,0c-1.1,0-2-0.9-2-2v-4C307.2,9.9,308.1,9,309.2,9z"/>
<g>
	<path class="st4" d="M331.8,49h7.4"/>
	<path class="st1" d="M325.2,44l1,1l2.5-3"/>
	<path class="st1" d="M325.2,49l1,1l2.5-3"/>
	<path class="st1" d="M325.2,39l1,1l2.5-3"/>
	<path class="st0" d="M334.2,43c1.7,0,3-1.3,3-3s-1.3-3-3-3s-3,1.3-3,3S332.5,43,334.2,43z"/>
	<path class="st0" d="M336.7,42.5l2.5,2.5"/>
</g>
<g>
	<path class="st0" d="M122.2,47h3"/>
	<path class="st0" d="M122.2,42h3"/>
	<path class="st0" d="M122.2,37h13"/>
	<path class="st0" d="M131.2,46c1.7,0,3-1.3,3-3s-1.3-3-3-3s-3,1.3-3,3S129.5,46,131.2,46z"/>
	<path class="st0" d="M133.7,45.5l2.5,2.5"/>
</g>
<path class="st11" d="M511.7,65.9h-14 M497.7,65.1V71c0,1.2,0,1.8,0.2,2.2c0.2,0.4,0.5,0.7,0.9,0.9c0.4,0.2,1,0.2,2.2,0.2h7.3
	c1.2,0,1.8,0,2.2-0.2c0.4-0.2,0.7-0.5,0.9-0.9c0.2-0.4,0.2-1,0.2-2.2v-5.9c0-1.2,0-1.8-0.2-2.2s-0.5-0.7-0.9-0.9s-1-0.2-2.2-0.2H501
	c-1.2,0-1.8,0-2.2,0.2c-0.4,0.2-0.7,0.5-0.9,0.9C497.7,63.3,497.7,63.9,497.7,65.1z"/>
<g>
	<g>
		<defs>
			<rect id="SVGID_00000052074196975067095460000006962504006951986819_" x="267.1" y="8.5" width="15.5" height="10"/>
		</defs>
		<clipPath id="SVGID_00000127044057462127604110000010077949175601671066_">
			<use xlink:href="#SVGID_00000052074196975067095460000006962504006951986819_"  style="overflow:visible;"/>
		</clipPath>
		<g style="clip-path:url(#SVGID_00000127044057462127604110000010077949175601671066_);">
			<path class="st0" d="M268.9,17.5l3.4-4.5c0.2-0.4,0.4-0.8,0.4-1.3c0-1.3-1.1-2.4-2.4-2.4c-1.3,0-2.4,1.1-2.4,2.4s1.1,2.4,2.4,2.4
				c0.9,0,1.6-0.4,2.1-1.1"/>
			<path class="st0" d="M278,17.5l3.4-4.5c0.2-0.4,0.4-0.8,0.4-1.3c0-1.3-1.1-2.4-2.4-2.4c-1.3,0-2.4,1.1-2.4,2.4s1.1,2.4,2.4,2.4
				c0.9,0,1.6-0.4,2.1-1.1"/>
			<path d="M272.2,18.4c0.6,0,1-0.4,1-1c0-0.6-0.4-1-1-1s-1,0.4-1,1C271.2,18,271.6,18.4,272.2,18.4z"/>
			<path d="M275.2,18.4c0.6,0,1-0.4,1-1c0-0.6-0.4-1-1-1s-1,0.4-1,1C274.2,18,274.6,18.4,275.2,18.4z"/>
		</g>
	</g>
</g>
</svg>
