<?xml version="1.0" encoding="utf-8"?>
<!-- Generator: Adobe Illustrator 23.0.0, SVG Export Plug-In . SVG Version: 6.00 Build 0)  -->
<svg version="1.1" id="Layer_1" xmlns="http://www.w3.org/2000/svg" xmlns:xlink="http://www.w3.org/1999/xlink" x="0px" y="0px"
	 viewBox="0 0 19.1 13.3" style="enable-background:new 0 0 19.1 13.3;" xml:space="preserve">
<style type="text/css">
	.st0{fill:none;stroke:#000000;stroke-miterlimit:10;}
</style>
<path class="st0" d="M9.4,3.7C9.4,5.5,8,8,6.3,8S3.2,5.5,3.2,3.7s1.4-3.2,3.1-3.2C7.9,0.4,9.4,1.9,9.4,3.7z"/>
<path class="st0" d="M4.9,7.5c0,0-3,1.1-3.7,1.8s-0.7,3.5-0.7,3.5h11.6"/>
<path class="st0" d="M7.5,7.7c0,0,2.8,0.7,3.5,1.4c0.7,0.7,0.7,3.8,0.7,3.8"/>
<path class="st0" d="M16.6,4.8c0,1.6-1.2,3.7-2.6,3.7s-2.6-2.2-2.6-3.7S12.6,2,14,2C15.4,2.1,16.6,3.4,16.6,4.8z"/>
<path class="st0" d="M14.9,8.2c0,0,2.4,0.8,3.1,1.4c0.6,0.6,0.6,3.1,0.6,3.1H13"/>
<g>
</g>
<g>
</g>
<g>
</g>
<g>
</g>
<g>
</g>
<g>
</g>
<g>
</g>
<g>
</g>
<g>
</g>
<g>
</g>
<g>
</g>
<g>
</g>
<g>
</g>
<g>
</g>
<g>
</g>
</svg>
